<?xml version="1.0" encoding="utf-8" ?>
<svg xmlns="http://www.w3.org/2000/svg" xmlns:xlink="http://www.w3.org/1999/xlink" width="390" height="200" viewBox="0 0 390 200">
	<defs>
		<linearGradient id="linearGradient6865329924" gradientTransform="matrix(390 0 0 200 0 0)" gradientUnits="userSpaceOnUse" x1="0" y1="0.5" x2="1" y2="0.5">
			<stop offset="0" stop-color="rgb(19, 52, 83)"/>
			<stop offset="1" stop-color="rgb(43, 88, 147)" stop-opacity="0.80000001"/>
		</linearGradient>
	</defs>
	<path transform="matrix(1 0 0 1 0 0)" d="M0 0L390 0L390 200L0 200L0 0Z" fill-rule="nonzero" fill="url(#linearGradient6865329924)"/>
	<path transform="matrix(1 0 0 1 20 68)" d="M15.4102 9.00781Q15.3105 10.2324 15.2754 11.3633Q15.2402 12.4883 15.2402 13.0859Q15.2402 13.6133 15.2637 14.0938Q15.2871 14.5742 15.3105 14.9141L14.7598 14.9141Q14.373 12.8984 13.7871 11.7207Q13.2012 10.543 12.3809 10.0508Q11.5664 9.55859 10.4648 9.55859L9.91406 9.55859L9.91406 23.2637Q9.91406 24.2246 10.1133 24.7051Q10.3184 25.1855 10.8691 25.3438Q11.4258 25.4961 12.4805 25.5195L12.4805 26Q11.7363 25.9766 10.5 25.9531Q9.26367 25.9297 7.92188 25.9297Q6.59766 25.9297 5.41992 25.9531Q4.24805 25.9766 3.52734 26L3.52734 25.5195Q4.60547 25.4961 5.15625 25.3438Q5.71289 25.1855 5.90039 24.7051Q6.09375 24.2246 6.09375 23.2637L6.09375 9.55859L5.56641 9.55859Q4.46484 9.55859 3.64453 10.0508Q2.83008 10.543 2.25586 11.709Q1.68164 12.8691 1.24805 14.9141L0.697266 14.9141Q0.744141 14.5742 0.755859 14.0938Q0.767578 13.6133 0.767578 13.0859Q0.767578 12.4883 0.732422 11.3633Q0.697266 10.2324 0.597656 9.00781Q1.70508 9.03125 3.01172 9.05469Q4.31836 9.07812 5.63672 9.07812Q6.96094 9.07812 8.01562 9.07812Q9.09375 9.07812 10.4004 9.07812Q11.7129 9.07812 13.0312 9.05469Q14.3496 9.03125 15.4102 9.00781Z" fill-rule="nonzero" fill="rgb(255, 255, 255)"/>
	<path transform="matrix(1 0 0 1 20 68)" d="M21.3372 7.23242L21.3372 15.4883Q21.9348 14.2402 22.9544 13.748Q23.9739 13.2559 25.2454 13.2559Q26.2825 13.2559 26.9036 13.5078Q27.5305 13.7598 27.888 14.1934Q28.2981 14.6504 28.4739 15.3711Q28.6555 16.0859 28.6555 17.3105L28.6555 23.7676Q28.6555 24.7754 29.0012 25.1387Q29.3528 25.4961 30.1907 25.4961L30.1907 26Q29.7337 25.9766 28.8079 25.9414Q27.888 25.9062 27.0266 25.9062Q26.0891 25.9062 25.2102 25.9414Q24.3372 25.9766 23.9036 26L23.9036 25.4961Q24.6243 25.4961 24.9114 25.1387Q25.1985 24.7754 25.1985 23.7676L25.1985 16.3027Q25.1985 15.7051 25.0755 15.2598Q24.9583 14.8145 24.636 14.5625Q24.3137 14.3105 23.7102 14.3105Q23.0657 14.3105 22.5208 14.6621Q21.9817 15.0078 21.6594 15.6348Q21.3372 16.2559 21.3372 17.0703L21.3372 23.7676Q21.3372 24.7754 21.6243 25.1387Q21.9114 25.4961 22.6321 25.4961L22.6321 26Q22.1985 25.9766 21.3606 25.9414Q20.5227 25.9062 19.6555 25.9062Q18.718 25.9062 17.7688 25.9414Q16.8255 25.9766 16.345 26L16.345 25.4961Q17.1829 25.4961 17.5286 25.1387Q17.8801 24.7754 17.8801 23.7676L17.8801 10.1094Q17.8801 9.03125 17.552 8.51562Q17.2298 8 16.345 8L16.345 7.49609Q17.1126 7.56641 17.8333 7.56641Q18.8176 7.56641 19.7024 7.48438Q20.593 7.40234 21.3372 7.23242Z" fill-rule="nonzero" fill="rgb(255, 255, 255)"/>
	<path transform="matrix(1 0 0 1 20 68)" d="M37.2475 13.2559Q39.3627 13.2559 40.558 14.5039Q41.7592 15.752 41.7592 18.582L33.8666 18.582L33.8139 18.1309L38.7358 18.1309Q38.7592 16.9531 38.5893 15.957Q38.4252 14.9609 38.062 14.3633Q37.7045 13.7598 37.101 13.7598Q36.2631 13.7598 35.6713 14.8145Q35.0854 15.8691 34.9682 18.3184L35.0385 18.4648Q35.0151 18.752 35.0034 19.0684Q34.9916 19.3789 34.9916 19.7129Q34.9916 21.3652 35.4604 22.4023Q35.9291 23.4336 36.6498 23.9023Q37.3705 24.3652 38.1147 24.3652Q38.6186 24.3652 39.1577 24.2129Q39.6967 24.0547 40.2475 23.6387Q40.7983 23.2168 41.2787 22.4492L41.7123 22.5898Q41.4252 23.5039 40.7983 24.3711Q40.1772 25.2324 39.2162 25.7832Q38.2553 26.334 36.9135 26.334Q35.2787 26.334 34.0307 25.6426Q32.7827 24.9453 32.0737 23.5273Q31.3705 22.1094 31.3705 19.9297Q31.3705 17.6973 32.1264 16.209Q32.8823 14.7207 34.2123 13.9883Q35.5424 13.2559 37.2475 13.2559Z" fill-rule="nonzero" fill="rgb(255, 255, 255)"/>
	<path transform="matrix(1 0 0 1 20 68)" d="M48.9823 9.00781Q49.5858 9.03125 50.6054 9.05469Q51.6249 9.07812 52.6327 9.07812Q53.7811 9.07812 54.8593 9.05469Q55.9433 9.03125 56.4003 9.03125Q59.7343 9.03125 61.3925 10.3555Q63.0507 11.6738 63.0507 13.7598Q63.0507 14.6211 62.7108 15.5703Q62.3768 16.5195 61.5683 17.3281Q60.7655 18.1309 59.371 18.6348Q57.9823 19.1387 55.8729 19.1387L53.4237 19.1387L53.4237 18.6582L55.6327 18.6582Q57.0507 18.6582 57.7772 18.0078Q58.5097 17.3574 58.785 16.3027Q59.0663 15.248 59.0663 14.0234Q59.0663 11.7441 58.3925 10.6191Q57.7186 9.48828 56.0897 9.48828Q55.1522 9.48828 54.8768 9.89844Q54.6015 10.3027 54.6015 11.5508L54.6015 23.3105Q54.6015 24.248 54.789 24.7051Q54.9823 25.1621 55.5331 25.3086Q56.0897 25.4492 57.1679 25.4727L57.1679 26Q56.4237 25.9766 55.246 25.9531Q54.0741 25.9297 52.7733 25.9297Q51.7421 25.9297 50.7577 25.9531Q49.7733 25.9766 48.9823 26L48.9823 25.5195Q49.7499 25.4727 50.1308 25.332Q50.5175 25.1855 50.6464 24.752Q50.7811 24.3184 50.7811 23.457L50.7811 11.5508Q50.7811 10.666 50.6464 10.2441Q50.5175 9.82227 50.119 9.66992Q49.7265 9.51172 48.9823 9.48828L48.9823 9.00781Z" fill-rule="nonzero" fill="rgb(255, 255, 255)"/>
	<path transform="matrix(1 0 0 1 20 68)" d="M68.761 7.23242L68.761 15.4883Q69.3587 14.2402 70.3782 13.748Q71.3978 13.2559 72.6692 13.2559Q73.7063 13.2559 74.3274 13.5078Q74.9544 13.7598 75.3118 14.1934Q75.722 14.6504 75.8978 15.3711Q76.0794 16.0859 76.0794 17.3105L76.0794 23.7676Q76.0794 24.7754 76.4251 25.1387Q76.7767 25.4961 77.6145 25.4961L77.6145 26Q77.1575 25.9766 76.2317 25.9414Q75.3118 25.9062 74.4505 25.9062Q73.513 25.9062 72.6341 25.9414Q71.761 25.9766 71.3274 26L71.3274 25.4961Q72.0481 25.4961 72.3353 25.1387Q72.6224 24.7754 72.6224 23.7676L72.6224 16.3027Q72.6224 15.7051 72.4993 15.2598Q72.3821 14.8145 72.0599 14.5625Q71.7376 14.3105 71.1341 14.3105Q70.4895 14.3105 69.9446 14.6621Q69.4056 15.0078 69.0833 15.6348Q68.761 16.2559 68.761 17.0703L68.761 23.7676Q68.761 24.7754 69.0481 25.1387Q69.3353 25.4961 70.056 25.4961L70.056 26Q69.6224 25.9766 68.7845 25.9414Q67.9466 25.9062 67.0794 25.9062Q66.1419 25.9062 65.1927 25.9414Q64.2493 25.9766 63.7688 26L63.7688 25.4961Q64.6067 25.4961 64.9524 25.1387Q65.304 24.7754 65.304 23.7676L65.304 10.1094Q65.304 9.03125 64.9759 8.51562Q64.6536 8 63.7688 8L63.7688 7.49609Q64.5364 7.56641 65.2571 7.56641Q66.2415 7.56641 67.1263 7.48438Q68.0169 7.40234 68.761 7.23242Z" fill-rule="nonzero" fill="rgb(255, 255, 255)"/>
	<path transform="matrix(1 0 0 1 20 68)" d="M81.7944 26.1699Q80.7104 26.1699 79.9897 25.7598Q79.269 25.3496 78.935 24.6699Q78.601 23.9844 78.601 23.1699Q78.601 22.1387 79.0698 21.4883Q79.5385 20.8379 80.2768 20.4336Q81.021 20.0234 81.8471 19.7598Q82.6792 19.4961 83.435 19.2441Q84.1909 18.9922 84.6596 18.6465Q85.1284 18.2949 85.1284 17.7441L85.1284 15.8691Q85.1284 15.248 84.9233 14.7559Q84.7182 14.2637 84.2964 14Q83.8803 13.7363 83.2065 13.7363Q82.726 13.7363 82.2456 13.8711Q81.7651 14 81.4546 14.3105Q82.1284 14.5508 82.4975 15.043Q82.8725 15.5352 82.8725 16.1621Q82.8725 16.9766 82.3042 17.457Q81.7417 17.9375 80.9741 17.9375Q80.1128 17.9375 79.6674 17.3984Q79.2221 16.8535 79.2221 16.0859Q79.2221 15.3945 79.5678 14.9375Q79.9194 14.4805 80.5464 14.0703Q81.2143 13.6895 82.1635 13.4727Q83.1128 13.2559 84.2143 13.2559Q85.3217 13.2559 86.2065 13.4844Q87.0971 13.7129 87.6948 14.3105Q88.2456 14.8613 88.4155 15.6699Q88.5854 16.4727 88.5854 17.6973L88.5854 24.2246Q88.5854 24.8223 88.7026 25.0508Q88.8257 25.2793 89.1128 25.2793Q89.3296 25.2793 89.5288 25.1621Q89.7339 25.0391 89.9741 24.8691L90.2143 25.2793Q89.7104 25.7129 89.0483 25.9414Q88.3921 26.1699 87.5776 26.1699Q86.687 26.1699 86.1596 25.918Q85.6323 25.666 85.4038 25.2324Q85.1753 24.7988 85.1753 24.2246Q84.601 25.1387 83.7807 25.6543Q82.9663 26.1699 81.7944 26.1699ZM83.4936 24.6348Q83.9741 24.6348 84.3667 24.4062Q84.7651 24.1777 85.1284 23.6504L85.1284 18.7285Q84.9116 19.0859 84.5249 19.3789Q84.144 19.666 83.7104 19.9648Q83.2827 20.2637 82.8842 20.627Q82.4858 20.9844 82.2456 21.5117Q82.0053 22.0391 82.0053 22.7832Q82.0053 23.7207 82.4155 24.1777Q82.8257 24.6348 83.4936 24.6348Z" fill-rule="nonzero" fill="rgb(255, 255, 255)"/>
	<path transform="matrix(1 0 0 1 20 68)" d="M99.1658 13.2559Q99.9334 13.2559 100.414 13.584Q100.894 13.9062 101.123 14.4102Q101.351 14.9141 101.351 15.4648Q101.351 16.3496 100.836 16.918Q100.32 17.4805 99.4822 17.4805Q98.6385 17.4805 98.1697 17.0645Q97.701 16.6426 97.701 15.9453Q97.701 15.2715 97.9998 14.832Q98.3045 14.3867 98.7615 14.0703Q98.4217 13.9766 98.0877 14.0938Q97.6307 14.1699 97.2205 14.4688Q96.8162 14.7676 96.5291 15.2129Q96.242 15.6582 96.0721 16.1738Q95.9021 16.6895 95.9021 17.1699L95.9021 23.5273Q95.9021 24.6816 96.4646 25.0918Q97.033 25.4961 98.158 25.4961L98.158 26Q97.6072 25.9766 96.5525 25.9414Q95.4978 25.9062 94.3436 25.9062Q93.3826 25.9062 92.3982 25.9414Q91.4139 25.9766 90.91 26L90.91 25.4961Q91.7537 25.4961 92.0994 25.1387Q92.4451 24.7754 92.4451 23.7676L92.4451 16.209Q92.4451 15.1309 92.1228 14.6152Q91.8006 14.0938 90.91 14.0938L90.91 13.5898Q91.6775 13.666 92.3982 13.666Q93.4061 13.666 94.2791 13.584Q95.158 13.4961 95.9021 13.3262L95.9021 15.5586Q96.1893 14.9141 96.6697 14.3867Q97.1502 13.8535 97.7713 13.5547Q98.3982 13.2559 99.1658 13.2559Z" fill-rule="nonzero" fill="rgb(255, 255, 255)"/>
	<path transform="matrix(1 0 0 1 20 68)" d="M105.434 26.1699Q104.35 26.1699 103.63 25.7598Q102.909 25.3496 102.575 24.6699Q102.241 23.9844 102.241 23.1699Q102.241 22.1387 102.71 21.4883Q103.178 20.8379 103.917 20.4336Q104.661 20.0234 105.487 19.7598Q106.319 19.4961 107.075 19.2441Q107.831 18.9922 108.3 18.6465Q108.768 18.2949 108.768 17.7441L108.768 15.8691Q108.768 15.248 108.563 14.7559Q108.358 14.2637 107.936 14Q107.52 13.7363 106.846 13.7363Q106.366 13.7363 105.885 13.8711Q105.405 14 105.094 14.3105Q105.768 14.5508 106.137 15.043Q106.512 15.5352 106.512 16.1621Q106.512 16.9766 105.944 17.457Q105.382 17.9375 104.614 17.9375Q103.753 17.9375 103.307 17.3984Q102.862 16.8535 102.862 16.0859Q102.862 15.3945 103.208 14.9375Q103.559 14.4805 104.186 14.0703Q104.854 13.6895 105.803 13.4727Q106.753 13.2559 107.854 13.2559Q108.962 13.2559 109.846 13.4844Q110.737 13.7129 111.335 14.3105Q111.885 14.8613 112.055 15.6699Q112.225 16.4727 112.225 17.6973L112.225 24.2246Q112.225 24.8223 112.343 25.0508Q112.466 25.2793 112.753 25.2793Q112.969 25.2793 113.169 25.1621Q113.374 25.0391 113.614 24.8691L113.854 25.2793Q113.35 25.7129 112.688 25.9414Q112.032 26.1699 111.218 26.1699Q110.327 26.1699 109.8 25.918Q109.272 25.666 109.044 25.2324Q108.815 24.7988 108.815 24.2246Q108.241 25.1387 107.421 25.6543Q106.606 26.1699 105.434 26.1699ZM107.134 24.6348Q107.614 24.6348 108.007 24.4062Q108.405 24.1777 108.768 23.6504L108.768 18.7285Q108.552 19.0859 108.165 19.3789Q107.784 19.666 107.35 19.9648Q106.923 20.2637 106.524 20.627Q106.126 20.9844 105.885 21.5117Q105.645 22.0391 105.645 22.7832Q105.645 23.7207 106.055 24.1777Q106.466 24.6348 107.134 24.6348Z" fill-rule="nonzero" fill="rgb(255, 255, 255)"/>
	<path transform="matrix(1 0 0 1 20 68)" d="M120.743 13.2559Q122.495 13.2559 123.814 13.9062Q125.138 14.5508 125.882 15.9922Q126.626 17.4336 126.626 19.8066Q126.626 22.1855 125.882 23.6152Q125.138 25.0391 123.814 25.6895Q122.495 26.334 120.743 26.334Q119.038 26.334 117.708 25.6895Q116.378 25.0391 115.622 23.6152Q114.866 22.1855 114.866 19.8066Q114.866 17.4336 115.622 15.9922Q116.378 14.5508 117.708 13.9062Q119.038 13.2559 120.743 13.2559ZM120.743 13.7363Q119.782 13.7363 119.132 15.166Q118.487 16.5898 118.487 19.8066Q118.487 23.0234 119.132 24.4414Q119.782 25.8535 120.743 25.8535Q121.728 25.8535 122.36 24.4414Q122.999 23.0234 122.999 19.8066Q122.999 16.5898 122.36 15.166Q121.728 13.7363 120.743 13.7363Z" fill-rule="nonzero" fill="rgb(255, 255, 255)"/>
	<path transform="matrix(1 0 0 1 20 68)" d="M132.745 7.23242L132.745 15.4883Q133.342 14.2402 134.362 13.748Q135.382 13.2559 136.653 13.2559Q137.69 13.2559 138.311 13.5078Q138.938 13.7598 139.296 14.1934Q139.706 14.6504 139.882 15.3711Q140.063 16.0859 140.063 17.3105L140.063 23.7676Q140.063 24.7754 140.409 25.1387Q140.76 25.4961 141.598 25.4961L141.598 26Q141.141 25.9766 140.216 25.9414Q139.296 25.9062 138.434 25.9062Q137.497 25.9062 136.618 25.9414Q135.745 25.9766 135.311 26L135.311 25.4961Q136.032 25.4961 136.319 25.1387Q136.606 24.7754 136.606 23.7676L136.606 16.3027Q136.606 15.7051 136.483 15.2598Q136.366 14.8145 136.044 14.5625Q135.721 14.3105 135.118 14.3105Q134.473 14.3105 133.928 14.6621Q133.389 15.0078 133.067 15.6348Q132.745 16.2559 132.745 17.0703L132.745 23.7676Q132.745 24.7754 133.032 25.1387Q133.319 25.4961 134.04 25.4961L134.04 26Q133.606 25.9766 132.768 25.9414Q131.93 25.9062 131.063 25.9062Q130.126 25.9062 129.176 25.9414Q128.233 25.9766 127.753 26L127.753 25.4961Q128.591 25.4961 128.936 25.1387Q129.288 24.7754 129.288 23.7676L129.288 10.1094Q129.288 9.03125 128.96 8.51562Q128.637 8 127.753 8L127.753 7.49609Q128.52 7.56641 129.241 7.56641Q130.225 7.56641 131.11 7.48438Q132.001 7.40234 132.745 7.23242Z" fill-rule="nonzero" fill="rgb(255, 255, 255)"/>
	<path transform="matrix(1 0 0 1 20 68)" d="M143.855 8.48047Q144.506 8.48047 144.933 8.90234Q145.367 9.31836 145.367 10.0625Q145.367 10.7832 145.162 11.4102Q144.957 12.0312 144.658 12.7988Q144.359 13.5664 144.025 14.7676L143.685 14.7676Q143.375 13.6133 143.052 12.8457Q142.73 12.0781 142.537 11.4453Q142.343 10.8066 142.343 10.0859Q142.343 9.3418 142.771 8.91406Q143.205 8.48047 143.855 8.48047Z" fill-rule="nonzero" fill="rgb(255, 255, 255)"/>
	<path transform="matrix(1 0 0 1 20 68)" d="M151.414 13.2559Q152.422 13.2559 153.177 13.5078Q153.933 13.7598 154.273 14Q155.088 14.5508 155.281 13.2793L155.785 13.2793Q155.738 13.9531 155.709 14.9258Q155.685 15.8984 155.685 17.5039L155.181 17.5039Q155.064 16.6133 154.724 15.752Q154.39 14.8906 153.752 14.3398Q153.119 13.7832 152.111 13.7832Q151.414 13.7832 150.933 14.1816Q150.453 14.5742 150.453 15.3184Q150.453 16.0391 150.886 16.5781Q151.32 17.1172 152 17.6094Q152.685 18.1016 153.429 18.6582Q154.226 19.2559 154.871 19.8477Q155.521 20.4336 155.902 21.1309Q156.289 21.8223 156.289 22.7832Q156.289 23.8613 155.662 24.6699Q155.041 25.4727 154.021 25.9062Q153.002 26.334 151.754 26.334Q151.033 26.334 150.465 26.1875Q149.902 26.0469 149.498 25.8301Q149.181 25.6895 148.906 25.5605Q148.631 25.4258 148.39 25.3262Q148.15 25.2559 147.968 25.4961Q147.793 25.7363 147.693 26.1699L147.189 26.1699Q147.242 25.4023 147.265 24.3008Q147.289 23.1934 147.289 21.3652L147.793 21.3652Q147.933 22.666 148.314 23.6621Q148.701 24.6582 149.363 25.2207Q150.025 25.7832 151.033 25.7832Q151.437 25.7832 151.818 25.6191Q152.205 25.4492 152.457 25.0684Q152.709 24.6816 152.709 24.0781Q152.709 23.0234 152.023 22.332Q151.343 21.6348 150.289 20.8145Q149.521 20.1934 148.836 19.584Q148.15 18.9688 147.716 18.2363Q147.289 17.5039 147.289 16.5664Q147.289 15.4883 147.863 14.7441Q148.437 14 149.386 13.6309Q150.336 13.2559 151.414 13.2559Z" fill-rule="nonzero" fill="rgb(255, 255, 255)"/>
	<path transform="matrix(1 0 0 1 20 68)" d="M172.295 8.67383Q173.877 8.67383 174.896 9.14258Q175.922 9.60547 176.713 10.2324Q177.193 10.5898 177.445 10.3145Q177.697 10.0391 177.791 9.00781L178.342 9.00781Q178.295 9.94531 178.271 11.2754Q178.248 12.6055 178.248 14.8145L177.697 14.8145Q177.574 13.7129 177.381 12.9336Q177.193 12.1543 176.853 11.5566Q176.519 10.9531 175.898 10.4727Q175.295 9.86914 174.504 9.58203Q173.713 9.29492 172.846 9.29492Q171.551 9.29492 170.637 9.98047Q169.728 10.666 169.16 11.8438Q168.598 13.0156 168.334 14.4922Q168.07 15.9688 168.07 17.5508Q168.07 19.1621 168.346 20.6387Q168.621 22.1094 169.207 23.2637Q169.799 24.418 170.736 25.0918Q171.674 25.7598 172.945 25.7598Q173.736 25.7598 174.539 25.4609Q175.342 25.1621 175.922 24.582Q176.853 23.8613 177.187 22.7949Q177.527 21.7285 177.697 19.9531L178.248 19.9531Q178.248 22.2324 178.271 23.6387Q178.295 25.0391 178.342 26L177.791 26Q177.697 24.9688 177.469 24.7051Q177.24 24.4414 176.713 24.7754Q175.822 25.4023 174.826 25.8711Q173.83 26.334 172.271 26.334Q169.728 26.334 167.818 25.3027Q165.914 24.2715 164.853 22.332Q163.799 20.3867 163.799 17.6504Q163.799 14.9609 164.889 12.9453Q165.984 10.9297 167.889 9.80469Q169.799 8.67383 172.295 8.67383Z" fill-rule="nonzero" fill="rgb(255, 255, 255)"/>
	<path transform="matrix(1 0 0 1 20 68)" d="M186.455 13.2559Q188.207 13.2559 189.525 13.9062Q190.85 14.5508 191.594 15.9922Q192.338 17.4336 192.338 19.8066Q192.338 22.1855 191.594 23.6152Q190.85 25.0391 189.525 25.6895Q188.207 26.334 186.455 26.334Q184.75 26.334 183.42 25.6895Q182.09 25.0391 181.334 23.6152Q180.578 22.1855 180.578 19.8066Q180.578 17.4336 181.334 15.9922Q182.09 14.5508 183.42 13.9062Q184.75 13.2559 186.455 13.2559ZM186.455 13.7363Q185.494 13.7363 184.844 15.166Q184.199 16.5898 184.199 19.8066Q184.199 23.0234 184.844 24.4414Q185.494 25.8535 186.455 25.8535Q187.439 25.8535 188.072 24.4414Q188.711 23.0234 188.711 19.8066Q188.711 16.5898 188.072 15.166Q187.439 13.7363 186.455 13.7363Z" fill-rule="nonzero" fill="rgb(255, 255, 255)"/>
	<path transform="matrix(1 0 0 1 20 68)" d="M198.48 7.20898L198.48 23.7676Q198.48 24.7754 198.826 25.1387Q199.177 25.4961 200.015 25.4961L200.015 26Q199.558 25.9766 198.644 25.9414Q197.736 25.9062 196.798 25.9062Q195.861 25.9062 194.912 25.9414Q193.968 25.9766 193.488 26L193.488 25.4961Q194.326 25.4961 194.671 25.1387Q195.023 24.7754 195.023 23.7676L195.023 10.0859Q195.023 9.00781 194.695 8.49219Q194.373 7.97656 193.488 7.97656L193.488 7.47266Q194.255 7.54297 194.976 7.54297Q195.961 7.54297 196.845 7.46094Q197.736 7.37891 198.48 7.20898Z" fill-rule="nonzero" fill="rgb(255, 255, 255)"/>
	<path transform="matrix(1 0 0 1 20 68)" d="M206.088 7.20898L206.088 23.7676Q206.088 24.7754 206.434 25.1387Q206.785 25.4961 207.623 25.4961L207.623 26Q207.166 25.9766 206.252 25.9414Q205.344 25.9062 204.406 25.9062Q203.469 25.9062 202.52 25.9414Q201.576 25.9766 201.096 26L201.096 25.4961Q201.934 25.4961 202.279 25.1387Q202.631 24.7754 202.631 23.7676L202.631 10.0859Q202.631 9.00781 202.303 8.49219Q201.981 7.97656 201.096 7.97656L201.096 7.47266Q201.863 7.54297 202.584 7.54297Q203.569 7.54297 204.453 7.46094Q205.344 7.37891 206.088 7.20898Z" fill-rule="nonzero" fill="rgb(255, 255, 255)"/>
	<path transform="matrix(1 0 0 1 20 68)" d="M214.607 13.2559Q216.722 13.2559 217.917 14.5039Q219.119 15.752 219.119 18.582L211.226 18.582L211.173 18.1309L216.095 18.1309Q216.119 16.9531 215.949 15.957Q215.785 14.9609 215.421 14.3633Q215.064 13.7598 214.46 13.7598Q213.623 13.7598 213.031 14.8145Q212.445 15.8691 212.328 18.3184L212.398 18.4648Q212.375 18.752 212.363 19.0684Q212.351 19.3789 212.351 19.7129Q212.351 21.3652 212.82 22.4023Q213.289 23.4336 214.009 23.9023Q214.73 24.3652 215.474 24.3652Q215.978 24.3652 216.517 24.2129Q217.056 24.0547 217.607 23.6387Q218.158 23.2168 218.638 22.4492L219.072 22.5898Q218.785 23.5039 218.158 24.3711Q217.537 25.2324 216.576 25.7832Q215.615 26.334 214.273 26.334Q212.638 26.334 211.39 25.6426Q210.142 24.9453 209.433 23.5273Q208.73 22.1094 208.73 19.9297Q208.73 17.6973 209.486 16.209Q210.242 14.7207 211.572 13.9883Q212.902 13.2559 214.607 13.2559Z" fill-rule="nonzero" fill="rgb(255, 255, 255)"/>
	<path transform="matrix(1 0 0 1 20 68)" d="M226.75 13.2559Q227.687 13.2559 228.467 13.4609Q229.246 13.666 229.75 13.9766Q230.377 14.3574 230.722 14.9258Q231.074 15.4883 231.074 16.2324Q231.074 17.0703 230.541 17.6152Q230.013 18.1543 229.176 18.1543Q228.338 18.1543 227.834 17.6738Q227.33 17.1934 227.33 16.3789Q227.33 15.6055 227.804 15.0898Q228.285 14.5742 228.912 14.4102Q228.719 14.1699 228.332 14Q227.951 13.8301 227.47 13.8301Q226.726 13.8301 226.164 14.2637Q225.601 14.6973 225.215 15.4648Q224.834 16.2324 224.629 17.2637Q224.424 18.2949 224.424 19.5195Q224.424 21.3652 224.892 22.4258Q225.361 23.4805 226.094 23.9141Q226.826 24.3418 227.617 24.3418Q228.074 24.3418 228.613 24.2012Q229.152 24.0547 229.715 23.627Q230.277 23.1934 230.758 22.4023L231.168 22.543Q230.904 23.4336 230.301 24.3242Q229.703 25.209 228.742 25.7715Q227.781 26.334 226.392 26.334Q224.834 26.334 223.574 25.6543Q222.314 24.9688 221.553 23.5391Q220.797 22.1094 220.797 19.8535Q220.797 17.6973 221.576 16.2207Q222.361 14.7441 223.703 14Q225.045 13.2559 226.75 13.2559Z" fill-rule="nonzero" fill="rgb(255, 255, 255)"/>
	<path transform="matrix(1 0 0 1 20 68)" d="M237.289 9.6582L237.289 13.5898L240.119 13.5898L240.119 14.0703L237.289 14.0703L237.289 23.7676Q237.289 24.4883 237.552 24.7871Q237.816 25.0859 238.343 25.0859Q238.777 25.0859 239.205 24.7637Q239.638 24.4414 239.978 23.6504L240.382 23.8613Q240.001 24.9453 239.216 25.6426Q238.437 26.334 237.095 26.334Q236.304 26.334 235.701 26.1289Q235.103 25.9297 234.693 25.5195Q234.165 24.9922 233.996 24.2129Q233.831 23.4336 233.831 22.1855L233.831 14.0703L231.816 14.0703L231.816 13.5898L233.831 13.5898L233.831 10.4258Q234.839 10.4258 235.689 10.2441Q236.544 10.0625 237.289 9.6582Z" fill-rule="nonzero" fill="rgb(255, 255, 255)"/>
	<path transform="matrix(1 0 0 1 20 68)" d="M243.985 7.40234Q244.992 7.40234 245.578 7.89453Q246.164 8.38672 246.164 9.24805Q246.164 10.1094 245.578 10.6016Q244.992 11.0938 243.985 11.0938Q242.971 11.0938 242.385 10.6016Q241.799 10.1094 241.799 9.24805Q241.799 8.38672 242.385 7.89453Q242.971 7.40234 243.985 7.40234ZM245.854 13.3262L245.854 23.7676Q245.854 24.7754 246.199 25.1387Q246.551 25.4961 247.389 25.4961L247.389 26Q246.961 25.9766 246.047 25.9414Q245.133 25.9062 244.201 25.9062Q243.264 25.9062 242.303 25.9414Q241.342 25.9766 240.861 26L240.861 25.4961Q241.705 25.4961 242.051 25.1387Q242.397 24.7754 242.397 23.7676L242.397 16.209Q242.397 15.1309 242.074 14.6152Q241.752 14.0938 240.861 14.0938L240.861 13.5898Q241.629 13.666 242.35 13.666Q243.358 13.666 244.231 13.584Q245.11 13.4961 245.854 13.3262Z" fill-rule="nonzero" fill="rgb(255, 255, 255)"/>
	<path transform="matrix(1 0 0 1 20 68)" d="M254.615 13.2559Q256.367 13.2559 257.685 13.9062Q259.009 14.5508 259.754 15.9922Q260.498 17.4336 260.498 19.8066Q260.498 22.1855 259.754 23.6152Q259.009 25.0391 257.685 25.6895Q256.367 26.334 254.615 26.334Q252.91 26.334 251.58 25.6895Q250.25 25.0391 249.494 23.6152Q248.738 22.1855 248.738 19.8066Q248.738 17.4336 249.494 15.9922Q250.25 14.5508 251.58 13.9062Q252.91 13.2559 254.615 13.2559ZM254.615 13.7363Q253.654 13.7363 253.004 15.166Q252.359 16.5898 252.359 19.8066Q252.359 23.0234 253.004 24.4414Q253.654 25.8535 254.615 25.8535Q255.599 25.8535 256.232 24.4414Q256.871 23.0234 256.871 19.8066Q256.871 16.5898 256.232 15.166Q255.599 13.7363 254.615 13.7363Z" fill-rule="nonzero" fill="rgb(255, 255, 255)"/>
	<path transform="matrix(1 0 0 1 20 68)" d="M270.911 13.2559Q271.919 13.2559 272.552 13.5078Q273.19 13.7598 273.554 14.1934Q273.935 14.6504 274.116 15.3711Q274.298 16.0859 274.298 17.3105L274.298 23.7676Q274.298 24.7754 274.644 25.1387Q274.989 25.4961 275.833 25.4961L275.833 26Q275.376 25.9766 274.462 25.9414Q273.554 25.9062 272.663 25.9062Q271.749 25.9062 270.87 25.9414Q269.997 25.9766 269.546 26L269.546 25.4961Q270.261 25.4961 270.548 25.1387Q270.841 24.7754 270.841 23.7676L270.841 16.3027Q270.841 15.7051 270.718 15.2598Q270.601 14.8145 270.284 14.5625Q269.974 14.3105 269.353 14.3105Q268.702 14.3105 268.163 14.6738Q267.624 15.0312 267.296 15.6699Q266.974 16.3027 266.974 17.0938L266.974 23.7676Q266.974 24.7754 267.272 25.1387Q267.577 25.4961 268.269 25.4961L268.269 26Q267.841 25.9766 267.009 25.9414Q266.183 25.9062 265.298 25.9062Q264.384 25.9062 263.423 25.9414Q262.462 25.9766 261.981 26L261.981 25.4961Q262.825 25.4961 263.171 25.1387Q263.517 24.7754 263.517 23.7676L263.517 16.209Q263.517 15.1309 263.194 14.6152Q262.872 14.0938 261.981 14.0938L261.981 13.5898Q262.749 13.666 263.47 13.666Q264.478 13.666 265.351 13.584Q266.229 13.4961 266.974 13.3262L266.974 15.4883Q267.577 14.2637 268.608 13.7598Q269.64 13.2559 270.911 13.2559Z" fill-rule="nonzero" fill="rgb(255, 255, 255)"/>
	<path transform="matrix(1 0 0 1 20 109)" d="M5.02344 6.67188L5.02344 6.99219Q4.48047 7.00781 4.19922 7.11328Q3.92188 7.21484 3.82422 7.49609Q3.72656 7.77734 3.72656 8.36719L3.72656 16.3672Q3.72656 16.9102 3.8125 17.1836Q3.90234 17.457 4.16797 17.5469Q4.43359 17.6328 4.92969 17.6328L5.96875 17.6328Q6.65625 17.6328 7.12891 17.4414Q7.60156 17.2461 7.91797 16.8633Q8.23828 16.4805 8.41406 15.875Q8.59375 15.2656 8.6875 14.4492L9.05469 14.4492Q9.00781 14.9609 9.00781 15.793Q9.00781 16.1133 9.03125 16.7305Q9.05469 17.3438 9.12109 18Q8.30469 17.9688 7.28125 17.9609Q6.25781 17.9531 5.45703 17.9531Q5.08984 17.9531 4.51172 17.9531Q3.9375 17.9531 3.27344 17.9609Q2.60938 17.9688 1.92578 17.9766Q1.24609 17.9844 0.625 18L0.625 17.6797Q1.16797 17.6484 1.4375 17.5547Q1.71094 17.457 1.79688 17.168Q1.88672 16.8789 1.88672 16.3047L1.88672 8.36719Q1.88672 7.77734 1.79688 7.49609Q1.71094 7.21484 1.42969 7.11328Q1.15234 7.00781 0.625 6.99219L0.625 6.67188Q0.992188 6.6875 1.57422 6.70312Q2.16016 6.71875 2.83203 6.71875Q3.44141 6.71875 4.03906 6.70312Q4.64062 6.6875 5.02344 6.67188Z" fill-rule="nonzero" fill="rgb(255, 255, 255)" fill-opacity="0.9"/>
	<path transform="matrix(1 0 0 1 20 109)" d="M11.8915 5.71094Q12.3837 5.71094 12.7196 6.02344Q13.0595 6.33594 13.0595 6.80078Q13.0595 7.26562 12.7196 7.57812Q12.3837 7.88672 11.8915 7.88672Q11.3954 7.88672 11.0556 7.57812Q10.7196 7.26562 10.7196 6.80078Q10.7196 6.33594 11.0556 6.02344Q11.3954 5.71094 11.8915 5.71094ZM12.8485 9.56641L12.8485 16.5117Q12.8485 17.1836 13.1102 17.4258Q13.3759 17.6641 14.0009 17.6641L14.0009 18Q13.7274 17.9844 13.1571 17.9609Q12.5907 17.9375 12.0009 17.9375Q11.4384 17.9375 10.8446 17.9609Q10.2548 17.9844 9.96962 18L9.96962 17.6641Q10.5907 17.6641 10.8563 17.4258Q11.122 17.1836 11.122 16.5117L11.122 11.4883Q11.122 10.7695 10.8798 10.4258Q10.6415 10.0781 9.96962 10.0781L9.96962 9.74219Q10.4813 9.79297 10.9618 9.79297Q11.5048 9.79297 11.9735 9.73828Q12.4462 9.67969 12.8485 9.56641Z" fill-rule="nonzero" fill="rgb(255, 255, 255)" fill-opacity="0.9"/>
	<path transform="matrix(1 0 0 1 20 109)" d="M20.2227 9.51953Q20.8321 9.51953 21.2462 9.6875Q21.6642 9.85547 21.922 10.1445Q22.2071 10.4492 22.3204 10.9531Q22.4337 11.457 22.4337 12.2227L22.4337 16.5117Q22.4337 17.1836 22.6876 17.4258Q22.9454 17.6641 23.5509 17.6641L23.5509 18Q23.2813 17.9844 22.711 17.9609Q22.1446 17.9375 21.6017 17.9375Q21.0548 17.9375 20.5352 17.9609Q20.0157 17.9844 19.7423 18L19.7423 17.6641Q20.2735 17.6641 20.4884 17.4258Q20.7032 17.1836 20.7032 16.5117L20.7032 11.7773Q20.7032 11.3125 20.6368 10.9375Q20.5743 10.5586 20.3438 10.3281Q20.1134 10.0977 19.6173 10.0977Q19.0548 10.0977 18.6134 10.4336Q18.1759 10.7695 17.9102 11.3555Q17.6485 11.9375 17.6485 12.6562L17.6485 16.5117Q17.6485 17.1836 17.8712 17.4258Q18.0977 17.6641 18.6095 17.6641L18.6095 18Q18.3517 17.9844 17.8399 17.9609Q17.3282 17.9375 16.7852 17.9375Q16.2384 17.9375 15.6446 17.9609Q15.0548 17.9844 14.7696 18L14.7696 17.6641Q15.3907 17.6641 15.6563 17.4258Q15.922 17.1836 15.922 16.5117L15.922 11.4883Q15.922 10.7695 15.6798 10.4258Q15.4415 10.0781 14.7696 10.0781L14.7696 9.74219Q15.2813 9.79297 15.7618 9.79297Q16.3048 9.79297 16.7735 9.73828Q17.2462 9.67969 17.6485 9.56641L17.6485 11.3125Q18.0626 10.3516 18.7579 9.9375Q19.4571 9.51953 20.2227 9.51953ZM25.0392 9.51953Q25.6485 9.51953 26.0626 9.6875Q26.4806 9.85547 26.7345 10.1445Q27.0235 10.4492 27.1329 10.9531Q27.2462 11.457 27.2462 12.2227L27.2462 16.5117Q27.2462 17.1836 27.5118 17.4258Q27.7774 17.6641 28.3985 17.6641L28.3985 18Q28.129 17.9844 27.5509 17.9609Q26.9767 17.9375 26.4142 17.9375Q25.8712 17.9375 25.3517 17.9609Q24.8321 17.9844 24.5587 18L24.5587 17.6641Q25.0899 17.6641 25.3048 17.4258Q25.5196 17.1836 25.5196 16.5117L25.5196 11.7773Q25.5196 11.3125 25.4532 10.9375Q25.3907 10.5586 25.1485 10.3281Q24.9102 10.0977 24.3985 10.0977Q23.8399 10.0977 23.3985 10.4414Q22.961 10.7852 22.6954 11.3711Q22.4337 11.9531 22.4337 12.6719L22.3673 11.3438Q22.8009 10.2891 23.5274 9.90625Q24.2579 9.51953 25.0392 9.51953Z" fill-rule="nonzero" fill="rgb(255, 255, 255)" fill-opacity="0.9"/>
	<path transform="matrix(1 0 0 1 20 109)" d="M30.9955 5.71094Q31.4877 5.71094 31.8237 6.02344Q32.1635 6.33594 32.1635 6.80078Q32.1635 7.26562 31.8237 7.57812Q31.4877 7.88672 30.9955 7.88672Q30.4994 7.88672 30.1596 7.57812Q29.8237 7.26562 29.8237 6.80078Q29.8237 6.33594 30.1596 6.02344Q30.4994 5.71094 30.9955 5.71094ZM31.9526 9.56641L31.9526 16.5117Q31.9526 17.1836 32.2143 17.4258Q32.4799 17.6641 33.1049 17.6641L33.1049 18Q32.8315 17.9844 32.2612 17.9609Q31.6947 17.9375 31.1049 17.9375Q30.5424 17.9375 29.9487 17.9609Q29.3588 17.9844 29.0737 18L29.0737 17.6641Q29.6947 17.6641 29.9604 17.4258Q30.226 17.1836 30.226 16.5117L30.226 11.4883Q30.226 10.7695 29.9838 10.4258Q29.7455 10.0781 29.0737 10.0781L29.0737 9.74219Q29.5854 9.79297 30.0658 9.79297Q30.6088 9.79297 31.0776 9.73828Q31.5502 9.67969 31.9526 9.56641Z" fill-rule="nonzero" fill="rgb(255, 255, 255)" fill-opacity="0.9"/>
	<path transform="matrix(1 0 0 1 20 109)" d="M36.6705 7.10547L36.6705 9.76172L38.8815 9.76172L38.8815 10.0781L36.6705 10.0781L36.6705 16.3672Q36.6705 17.0234 36.9088 17.2969Q37.151 17.5664 37.6002 17.5664Q38.0143 17.5664 38.3424 17.2305Q38.6705 16.8945 38.9127 16.0977L39.2174 16.207Q39.026 17.0547 38.5377 17.6406Q38.0494 18.2227 37.1041 18.2227Q36.5612 18.2227 36.1901 18.0859Q35.8229 17.9531 35.5533 17.6953Q35.2018 17.3281 35.0729 16.8164Q34.944 16.3047 34.944 15.457L34.944 10.0781L33.4713 10.0781L33.4713 9.76172L34.944 9.76172L34.944 7.42578Q35.4401 7.40625 35.8698 7.33594Q36.3033 7.26562 36.6705 7.10547Z" fill-rule="nonzero" fill="rgb(255, 255, 255)" fill-opacity="0.9"/>
	<path transform="matrix(1 0 0 1 20 109)" d="M43.4705 9.51953Q44.8807 9.51953 45.6775 10.3672Q46.4783 11.2148 46.4783 13.0547L40.9588 13.0547L40.9275 12.7539L44.783 12.7539Q44.7986 11.9688 44.6541 11.3047Q44.5135 10.6406 44.2088 10.2422Q43.9041 9.83984 43.408 9.83984Q42.7205 9.83984 42.2166 10.5703Q41.7127 11.2969 41.5994 12.8945L41.6463 12.9766Q41.6307 13.1992 41.615 13.4648Q41.5994 13.7266 41.5994 13.9844Q41.5994 15.0898 41.9353 15.8438Q42.2713 16.5938 42.8143 16.9688Q43.3611 17.3438 43.9197 17.3438Q44.3533 17.3438 44.7596 17.207Q45.1697 17.0703 45.5369 16.7422Q45.9041 16.4141 46.1932 15.8398L46.5135 15.9688Q46.3182 16.5117 45.9197 17.0391Q45.5213 17.5664 44.8963 17.8945Q44.2713 18.2227 43.4393 18.2227Q42.3182 18.2227 41.4861 17.7188Q40.658 17.2148 40.2088 16.2734Q39.7596 15.3281 39.7596 14.0312Q39.7596 12.6094 40.2244 11.6016Q40.6893 10.5938 41.5291 10.0586Q42.3689 9.51953 43.4705 9.51953Z" fill-rule="nonzero" fill="rgb(255, 255, 255)" fill-opacity="0.9"/>
	<path transform="matrix(1 0 0 1 20 109)" d="M55.074 5.45703L55.074 16.2578Q55.074 16.9766 55.3201 17.3203Q55.5661 17.6641 56.2224 17.6641L56.2224 18Q55.7263 17.9531 55.2302 17.9531Q54.6872 17.9531 54.2146 18Q53.7458 18.0469 53.3435 18.1758L53.3435 7.375Q53.3435 6.65625 53.0935 6.3125Q52.8474 5.96875 52.1911 5.96875L52.1911 5.63281Q52.7029 5.67969 53.1833 5.67969Q53.7107 5.67969 54.1911 5.625Q54.6716 5.56641 55.074 5.45703ZM51.4724 9.51953Q52.1755 9.51953 52.7576 9.82422Q53.3435 10.1289 53.5857 10.8477L53.3904 11.0234Q53.1677 10.4492 52.7341 10.1875Q52.3044 9.92188 51.7615 9.92188Q50.8474 9.92188 50.2693 10.8906Q49.6951 11.8555 49.7107 13.8711Q49.7107 15.1992 49.9333 16.0391Q50.1599 16.8789 50.5974 17.2812Q51.0388 17.6797 51.6638 17.6797Q52.2888 17.6797 52.7927 17.1523Q53.2966 16.625 53.3904 15.6328L53.5349 15.9688Q53.3747 17.0547 52.7654 17.6406Q52.1599 18.2227 51.1365 18.2227Q50.1599 18.2227 49.4138 17.7539Q48.6716 17.2812 48.2693 16.3125Q47.8708 15.3438 47.8708 13.8711Q47.8708 12.4141 48.3591 11.4492Q48.8474 10.4805 49.6638 10Q50.4802 9.51953 51.4724 9.51953Z" fill-rule="nonzero" fill="rgb(255, 255, 255)" fill-opacity="0.9"/>
	<path transform="matrix(1 0 0 1 20 109)" d="M69.2489 6.67188Q69.1825 7.28125 69.159 7.85156Q69.1356 8.41797 69.1356 8.71875Q69.1356 9.02344 69.1512 9.29688Q69.1669 9.56641 69.1825 9.74219L68.8153 9.74219Q68.7059 8.71875 68.4715 8.12891Q68.2411 7.53516 67.784 7.28906Q67.327 7.03906 66.5106 7.03906L65.409 7.03906Q64.8973 7.03906 64.6317 7.12891Q64.37 7.21484 64.2723 7.48047Q64.1747 7.74219 64.1747 8.30469L64.1747 16.3672Q64.1747 16.9102 64.2723 17.1836Q64.37 17.457 64.6317 17.5469Q64.8973 17.6328 65.409 17.6328L66.4481 17.6328Q67.3583 17.6328 67.8934 17.3438Q68.4325 17.0547 68.7098 16.3984Q68.9911 15.7422 69.1356 14.6094L69.5028 14.6094Q69.4559 15.0703 69.4559 15.8242Q69.4559 16.1445 69.4794 16.7539Q69.5028 17.3594 69.5692 18Q68.7528 17.9688 67.7294 17.9609Q66.7059 17.9531 65.9051 17.9531Q65.5379 17.9531 64.9598 17.9531Q64.3856 17.9531 63.7215 17.9609Q63.0575 17.9688 62.3739 17.9766Q61.6942 17.9844 61.0731 18L61.0731 17.6797Q61.6161 17.6484 61.8856 17.5547Q62.159 17.457 62.245 17.168Q62.3348 16.8789 62.3348 16.3047L62.3348 8.36719Q62.3348 7.77734 62.245 7.49609Q62.159 7.21484 61.8778 7.11328Q61.6004 7.00781 61.0731 6.99219L61.0731 6.67188Q61.6942 6.6875 62.3739 6.69531Q63.0575 6.70312 63.7215 6.71094Q64.3856 6.71875 64.9598 6.71875Q65.5379 6.71875 65.9051 6.71875Q66.6395 6.71875 67.5731 6.71094Q68.5106 6.70312 69.2489 6.67188ZM66.5926 12.1445Q66.5926 12.1445 66.5926 12.3047Q66.5926 12.4648 66.5926 12.4648L63.6942 12.4648Q63.6942 12.4648 63.6942 12.3047Q63.6942 12.1445 63.6942 12.1445L66.5926 12.1445ZM67.0575 10.0312Q66.9911 10.9453 66.9989 11.4258Q67.0067 11.9023 67.0067 12.3047Q67.0067 12.7031 67.0223 13.1836Q67.0419 13.6641 67.1044 14.5742L66.7372 14.5742Q66.6551 14.0469 66.5262 13.5586Q66.4012 13.0703 66.0731 12.7695Q65.745 12.4648 65.0575 12.4648L65.0575 12.1445Q65.5692 12.1445 65.8622 11.9375Q66.159 11.7266 66.3192 11.3906Q66.4794 11.0547 66.5497 10.6953Q66.6239 10.3359 66.6864 10.0312L67.0575 10.0312Z" fill-rule="nonzero" fill="rgb(255, 255, 255)" fill-opacity="0.9"/>
	<path transform="matrix(1 0 0 1 20 109)" d="M78.226 5.45703L78.226 16.2578Q78.226 16.9766 78.4721 17.3203Q78.7182 17.6641 79.3744 17.6641L79.3744 18Q78.8783 17.9531 78.3822 17.9531Q77.8393 17.9531 77.3666 18Q76.8979 18.0469 76.4955 18.1758L76.4955 7.375Q76.4955 6.65625 76.2455 6.3125Q75.9994 5.96875 75.3432 5.96875L75.3432 5.63281Q75.8549 5.67969 76.3354 5.67969Q76.8627 5.67969 77.3432 5.625Q77.8237 5.56641 78.226 5.45703ZM74.6244 9.51953Q75.3276 9.51953 75.9096 9.82422Q76.4955 10.1289 76.7377 10.8477L76.5424 11.0234Q76.3197 10.4492 75.8862 10.1875Q75.4565 9.92188 74.9135 9.92188Q73.9994 9.92188 73.4213 10.8906Q72.8471 11.8555 72.8627 13.8711Q72.8627 15.1992 73.0854 16.0391Q73.3119 16.8789 73.7494 17.2812Q74.1908 17.6797 74.8158 17.6797Q75.4408 17.6797 75.9447 17.1523Q76.4487 16.625 76.5424 15.6328L76.6869 15.9688Q76.5268 17.0547 75.9174 17.6406Q75.3119 18.2227 74.2885 18.2227Q73.3119 18.2227 72.5658 17.7539Q71.8237 17.2812 71.4213 16.3125Q71.0229 15.3438 71.0229 13.8711Q71.0229 12.4141 71.5112 11.4492Q71.9994 10.4805 72.8158 10Q73.6322 9.51953 74.6244 9.51953Z" fill-rule="nonzero" fill="rgb(255, 255, 255)" fill-opacity="0.9"/>
	<path transform="matrix(1 0 0 1 20 109)" d="M82.0516 5.71094Q82.5438 5.71094 82.8797 6.02344Q83.2196 6.33594 83.2196 6.80078Q83.2196 7.26562 82.8797 7.57812Q82.5438 7.88672 82.0516 7.88672Q81.5555 7.88672 81.2157 7.57812Q80.8797 7.26562 80.8797 6.80078Q80.8797 6.33594 81.2157 6.02344Q81.5555 5.71094 82.0516 5.71094ZM83.0086 9.56641L83.0086 16.5117Q83.0086 17.1836 83.2704 17.4258Q83.536 17.6641 84.161 17.6641L84.161 18Q83.8875 17.9844 83.3172 17.9609Q82.7508 17.9375 82.161 17.9375Q81.5985 17.9375 81.0047 17.9609Q80.4149 17.9844 80.1297 18L80.1297 17.6641Q80.7508 17.6641 81.0164 17.4258Q81.2821 17.1836 81.2821 16.5117L81.2821 11.4883Q81.2821 10.7695 81.0399 10.4258Q80.8016 10.0781 80.1297 10.0781L80.1297 9.74219Q80.6414 9.79297 81.1219 9.79297Q81.6649 9.79297 82.1336 9.73828Q82.6063 9.67969 83.0086 9.56641Z" fill-rule="nonzero" fill="rgb(255, 255, 255)" fill-opacity="0.9"/>
	<path transform="matrix(1 0 0 1 20 109)" d="M87.7266 7.10547L87.7266 9.76172L89.9375 9.76172L89.9375 10.0781L87.7266 10.0781L87.7266 16.3672Q87.7266 17.0234 87.9649 17.2969Q88.2071 17.5664 88.6563 17.5664Q89.0704 17.5664 89.3985 17.2305Q89.7266 16.8945 89.9688 16.0977L90.2735 16.207Q90.0821 17.0547 89.5938 17.6406Q89.1055 18.2227 88.1602 18.2227Q87.6172 18.2227 87.2461 18.0859Q86.879 17.9531 86.6094 17.6953Q86.2579 17.3281 86.129 16.8164Q86 16.3047 86 15.457L86 10.0781L84.5274 10.0781L84.5274 9.76172L86 9.76172L86 7.42578Q86.4961 7.40625 86.9258 7.33594Q87.3594 7.26562 87.7266 7.10547Z" fill-rule="nonzero" fill="rgb(255, 255, 255)" fill-opacity="0.9"/>
	<path transform="matrix(1 0 0 1 20 109)" d="M92.4996 5.71094Q92.9918 5.71094 93.3277 6.02344Q93.6676 6.33594 93.6676 6.80078Q93.6676 7.26562 93.3277 7.57812Q92.9918 7.88672 92.4996 7.88672Q92.0035 7.88672 91.6637 7.57812Q91.3277 7.26562 91.3277 6.80078Q91.3277 6.33594 91.6637 6.02344Q92.0035 5.71094 92.4996 5.71094ZM93.4566 9.56641L93.4566 16.5117Q93.4566 17.1836 93.7184 17.4258Q93.984 17.6641 94.609 17.6641L94.609 18Q94.3356 17.9844 93.7652 17.9609Q93.1988 17.9375 92.609 17.9375Q92.0465 17.9375 91.4527 17.9609Q90.8629 17.9844 90.5777 18L90.5777 17.6641Q91.1988 17.6641 91.4645 17.4258Q91.7301 17.1836 91.7301 16.5117L91.7301 11.4883Q91.7301 10.7695 91.4879 10.4258Q91.2496 10.0781 90.5777 10.0781L90.5777 9.74219Q91.0895 9.79297 91.5699 9.79297Q92.1129 9.79297 92.5816 9.73828Q93.0543 9.67969 93.4566 9.56641Z" fill-rule="nonzero" fill="rgb(255, 255, 255)" fill-opacity="0.9"/>
	<path transform="matrix(1 0 0 1 20 109)" d="M99.3777 9.51953Q100.448 9.51953 101.28 9.96875Q102.112 10.4141 102.608 11.375Q103.104 12.3359 103.104 13.8867Q103.104 15.4414 102.608 16.3945Q102.112 17.3438 101.28 17.7852Q100.448 18.2227 99.3777 18.2227Q98.3192 18.2227 97.4715 17.7852Q96.6238 17.3438 96.1356 16.3945Q95.6473 15.4414 95.6473 13.8867Q95.6473 12.3359 96.1356 11.375Q96.6238 10.4141 97.4715 9.96875Q98.3192 9.51953 99.3777 9.51953ZM99.3777 9.83984Q98.5457 9.83984 98.0145 10.793Q97.4871 11.7422 97.4871 13.8867Q97.4871 16.0312 98.0145 16.9688Q98.5457 17.9023 99.3777 17.9023Q100.19 17.9023 100.725 16.9688Q101.264 16.0312 101.264 13.8867Q101.264 11.7422 100.725 10.793Q100.19 9.83984 99.3777 9.83984Z" fill-rule="nonzero" fill="rgb(255, 255, 255)" fill-opacity="0.9"/>
	<path transform="matrix(1 0 0 1 20 109)" d="M109.808 9.51953Q110.449 9.51953 110.855 9.6875Q111.265 9.85547 111.535 10.1445Q111.824 10.4492 111.945 10.9297Q112.066 11.4062 112.066 12.2227L112.066 16.5117Q112.066 17.1836 112.328 17.4258Q112.593 17.6641 113.214 17.6641L113.214 18Q112.945 17.9844 112.367 17.9609Q111.793 17.9375 111.234 17.9375Q110.687 17.9375 110.152 17.9609Q109.617 17.9844 109.343 18L109.343 17.6641Q109.886 17.6641 110.109 17.4258Q110.336 17.1836 110.336 16.5117L110.336 11.7773Q110.336 11.3125 110.253 10.9375Q110.175 10.5586 109.918 10.3281Q109.664 10.0977 109.152 10.0977Q108.562 10.0977 108.105 10.4336Q107.648 10.7695 107.382 11.3555Q107.121 11.9375 107.121 12.6562L107.121 16.5117Q107.121 17.1836 107.351 17.4258Q107.586 17.6641 108.113 17.6641L108.113 18Q107.855 17.9844 107.336 17.9609Q106.816 17.9375 106.257 17.9375Q105.711 17.9375 105.117 17.9609Q104.527 17.9844 104.242 18L104.242 17.6641Q104.863 17.6641 105.128 17.4258Q105.394 17.1836 105.394 16.5117L105.394 11.4883Q105.394 10.7695 105.152 10.4258Q104.914 10.0781 104.242 10.0781L104.242 9.74219Q104.753 9.79297 105.234 9.79297Q105.777 9.79297 106.246 9.73828Q106.718 9.67969 107.121 9.56641L107.121 11.3125Q107.535 10.3203 108.261 9.92188Q108.992 9.51953 109.808 9.51953Z" fill-rule="nonzero" fill="rgb(255, 255, 255)" fill-opacity="0.9"/>
	<path transform="matrix(1 0 0 1 20 109)" d="M122.384 6.67188L122.384 6.99219Q121.841 7.00781 121.559 7.11328Q121.282 7.21484 121.184 7.49609Q121.087 7.77734 121.087 8.36719L121.087 16.3672Q121.087 16.9102 121.173 17.1836Q121.263 17.457 121.528 17.5469Q121.794 17.6328 122.29 17.6328L123.329 17.6328Q124.016 17.6328 124.489 17.4414Q124.962 17.2461 125.278 16.8633Q125.598 16.4805 125.774 15.875Q125.954 15.2656 126.048 14.4492L126.415 14.4492Q126.368 14.9609 126.368 15.793Q126.368 16.1133 126.391 16.7305Q126.415 17.3438 126.481 18Q125.665 17.9688 124.641 17.9609Q123.618 17.9531 122.817 17.9531Q122.45 17.9531 121.872 17.9531Q121.298 17.9531 120.634 17.9609Q119.97 17.9688 119.286 17.9766Q118.606 17.9844 117.985 18L117.985 17.6797Q118.528 17.6484 118.798 17.5547Q119.071 17.457 119.157 17.168Q119.247 16.8789 119.247 16.3047L119.247 8.36719Q119.247 7.77734 119.157 7.49609Q119.071 7.21484 118.79 7.11328Q118.513 7.00781 117.985 6.99219L117.985 6.67188Q118.352 6.6875 118.934 6.70312Q119.52 6.71875 120.192 6.71875Q120.802 6.71875 121.399 6.70312Q122.001 6.6875 122.384 6.67188Z" fill-rule="nonzero" fill="rgb(255, 255, 255)" fill-opacity="0.9"/>
	<path transform="matrix(1 0 0 1 20 109)" d="M134.834 9.56641L134.834 16.2734Q134.834 16.9922 135.08 17.3359Q135.33 17.6797 135.986 17.6797L135.986 18.0156Q135.49 17.9688 134.994 17.9688Q134.463 17.9688 133.982 18.0156Q133.506 18.0625 133.103 18.1914L133.103 16.4492Q132.705 17.4062 131.99 17.8164Q131.279 18.2227 130.498 18.2227Q129.904 18.2227 129.486 18.0547Q129.072 17.8867 128.799 17.6172Q128.513 17.2969 128.4 16.793Q128.287 16.2891 128.287 15.5195L128.287 11.4883Q128.287 10.7695 128.045 10.4258Q127.806 10.0781 127.135 10.0781L127.135 9.74219Q127.65 9.79297 128.127 9.79297Q128.658 9.79297 129.135 9.73828Q129.615 9.67969 130.017 9.56641L130.017 15.9688Q130.017 16.4336 130.08 16.8164Q130.142 17.1992 130.381 17.4258Q130.623 17.6484 131.154 17.6484Q131.713 17.6484 132.15 17.3125Q132.592 16.9766 132.845 16.4023Q133.103 15.8242 133.103 15.1055L133.103 11.4883Q133.103 10.7695 132.861 10.4258Q132.623 10.0781 131.951 10.0781L131.951 9.74219Q132.463 9.79297 132.943 9.79297Q133.47 9.79297 133.951 9.73828Q134.431 9.67969 134.834 9.56641Z" fill-rule="nonzero" fill="rgb(255, 255, 255)" fill-opacity="0.9"/>
	<path transform="matrix(1 0 0 1 20 109)" d="M139.887 9.74219L139.887 10.0781Q139.586 10.0781 139.391 10.2227Q139.199 10.3672 139.359 10.625L143.617 16.8633Q143.855 17.2305 144.07 17.418Q144.289 17.6016 144.578 17.6641L144.578 18Q144.383 17.9844 144.008 17.9609Q143.633 17.9375 143.25 17.9375Q142.719 17.9375 142.141 17.9609Q141.566 17.9844 141.297 18L141.297 17.6641Q141.617 17.6641 141.809 17.5117Q142 17.3594 141.824 17.1211L137.566 10.8789Q137.266 10.4492 137.078 10.2812Q136.894 10.1133 136.609 10.0781L136.609 9.74219Q136.816 9.76172 137.215 9.78516Q137.617 9.80859 138 9.80859Q138.527 9.80859 139.078 9.78516Q139.633 9.76172 139.887 9.74219ZM140.062 13.9375Q140.062 13.9375 140.086 14.0352Q140.113 14.1289 140.152 14.2422Q140.191 14.3516 140.191 14.3516L139.09 15.7773Q138.656 16.3359 138.625 16.7617Q138.594 17.1836 138.91 17.4102Q139.23 17.6328 139.793 17.6797L139.793 18Q139.504 17.9844 139.137 17.9766Q138.769 17.9688 138.414 17.9609Q138.062 17.9531 137.809 17.9531Q137.441 17.9531 137.152 17.9609Q136.863 17.9688 136.625 18L136.625 17.6797Q136.945 17.6172 137.273 17.3555Q137.602 17.0898 138.047 16.5273L140.062 13.9375ZM144.207 9.74219L144.207 10.0625Q143.887 10.1289 143.527 10.418Q143.168 10.7031 142.785 11.2305L140.961 13.6641Q140.961 13.6641 140.937 13.5625Q140.914 13.457 140.879 13.3633Q140.848 13.2656 140.848 13.2656L141.953 11.7422Q142.32 11.2148 142.414 10.8633Q142.512 10.5117 142.305 10.3047Q142.098 10.0977 141.519 10.0625L141.519 9.74219Q141.953 9.76172 142.297 9.77734Q142.641 9.79297 143.023 9.79297Q143.391 9.79297 143.68 9.77734Q143.969 9.76172 144.207 9.74219Z" fill-rule="nonzero" fill="rgb(255, 255, 255)" fill-opacity="0.9"/>
	<path transform="matrix(1 0 0 1 20 109)" d="M152.658 9.56641L152.658 16.2734Q152.658 16.9922 152.904 17.3359Q153.154 17.6797 153.81 17.6797L153.81 18.0156Q153.314 17.9688 152.818 17.9688Q152.287 17.9688 151.806 18.0156Q151.33 18.0625 150.927 18.1914L150.927 16.4492Q150.529 17.4062 149.814 17.8164Q149.103 18.2227 148.322 18.2227Q147.728 18.2227 147.31 18.0547Q146.896 17.8867 146.623 17.6172Q146.337 17.2969 146.224 16.793Q146.111 16.2891 146.111 15.5195L146.111 11.4883Q146.111 10.7695 145.869 10.4258Q145.63 10.0781 144.959 10.0781L144.959 9.74219Q145.474 9.79297 145.951 9.79297Q146.482 9.79297 146.959 9.73828Q147.439 9.67969 147.841 9.56641L147.841 15.9688Q147.841 16.4336 147.904 16.8164Q147.966 17.1992 148.205 17.4258Q148.447 17.6484 148.978 17.6484Q149.537 17.6484 149.974 17.3125Q150.416 16.9766 150.669 16.4023Q150.927 15.8242 150.927 15.1055L150.927 11.4883Q150.927 10.7695 150.685 10.4258Q150.447 10.0781 149.775 10.0781L149.775 9.74219Q150.287 9.79297 150.767 9.79297Q151.294 9.79297 151.775 9.73828Q152.255 9.67969 152.658 9.56641Z" fill-rule="nonzero" fill="rgb(255, 255, 255)" fill-opacity="0.9"/>
	<path transform="matrix(1 0 0 1 20 109)" d="M159.73 9.51953Q160.191 9.51953 160.519 9.71094Q160.847 9.90234 161.015 10.1992Q161.183 10.4961 161.183 10.8633Q161.183 11.3281 160.902 11.6562Q160.625 11.9844 160.16 11.9844Q159.761 11.9844 159.48 11.7461Q159.199 11.5039 159.199 11.0898Q159.199 10.7344 159.383 10.4883Q159.57 10.2383 159.808 10.0977Q159.648 9.96875 159.426 9.98438Q158.992 10 158.625 10.2656Q158.258 10.5273 158 10.9375Q157.746 11.3438 157.601 11.8086Q157.457 12.2734 157.457 12.6719L157.457 16.3516Q157.457 17.1367 157.886 17.4023Q158.32 17.6641 159.09 17.6641L159.09 18Q158.719 17.9844 158.039 17.9609Q157.359 17.9375 156.609 17.9375Q156.031 17.9375 155.453 17.9609Q154.879 17.9844 154.578 18L154.578 17.6641Q155.199 17.6641 155.465 17.4258Q155.73 17.1836 155.73 16.5117L155.73 11.4883Q155.73 10.7695 155.488 10.4258Q155.25 10.0781 154.578 10.0781L154.578 9.74219Q155.09 9.79297 155.57 9.79297Q156.113 9.79297 156.582 9.73828Q157.054 9.67969 157.457 9.56641L157.457 11.4062Q157.648 10.9453 157.969 10.5117Q158.289 10.0781 158.734 9.80078Q159.183 9.51953 159.73 9.51953Z" fill-rule="nonzero" fill="rgb(255, 255, 255)" fill-opacity="0.9"/>
	<path transform="matrix(1 0 0 1 20 109)" d="M169.376 9.74219L169.376 10.0625Q169.072 10.1133 168.814 10.3789Q168.56 10.6406 168.322 11.2812L165.826 17.9688L165.439 18.3516L162.322 10.9766Q162.017 10.3516 161.736 10.2148Q161.454 10.0781 161.263 10.0781L161.263 9.74219Q161.665 9.79297 162.111 9.81641Q162.56 9.83984 163.04 9.83984Q163.583 9.83984 164.134 9.80859Q164.689 9.77734 165.169 9.74219L165.169 10.0781Q164.783 10.0781 164.486 10.1367Q164.193 10.1914 164.103 10.4414Q164.017 10.6875 164.255 11.2812L166.24 16.1602L166.13 16.207L167.743 11.9219Q167.986 11.2812 167.935 10.8906Q167.888 10.4961 167.599 10.2969Q167.314 10.0977 166.751 10.0625L166.751 9.74219Q167.025 9.76172 167.255 9.76953Q167.49 9.77734 167.712 9.78516Q167.935 9.79297 168.161 9.79297Q168.513 9.79297 168.826 9.77734Q169.138 9.76172 169.376 9.74219ZM165.826 17.9688L165.247 19.4727Q165.087 19.8711 164.919 20.1406Q164.751 20.4141 164.56 20.5938Q164.322 20.8164 163.966 20.9102Q163.615 21.0078 163.263 21.0078Q162.927 21.0078 162.63 20.8867Q162.337 20.7695 162.142 20.5273Q161.951 20.2891 161.951 19.9375Q161.951 19.5195 162.224 19.2617Q162.497 19.0078 162.943 19.0078Q163.345 19.0078 163.615 19.2227Q163.888 19.4414 163.888 19.8555Q163.888 20.1445 163.736 20.3516Q163.583 20.5586 163.345 20.6719Q163.392 20.6875 163.439 20.6875Q163.49 20.6875 163.521 20.6875Q163.97 20.6875 164.322 20.3906Q164.673 20.0977 164.911 19.4414L165.49 17.9023L165.826 17.9688Z" fill-rule="nonzero" fill="rgb(255, 255, 255)" fill-opacity="0.9"/>
</svg>
