<?xml version="1.0" encoding="utf-8" ?>
<svg xmlns="http://www.w3.org/2000/svg" xmlns:xlink="http://www.w3.org/1999/xlink" width="390" height="64" viewBox="0 0 390 64">
	<path transform="matrix(1 0 0 1 0 0)" d="M0 0L390 0L390 64L0 64L0 0Z" fill-rule="nonzero" fill="rgb(19, 52, 83)"/>
	<defs>
		<clipPath id="clipPath8466650346">
			<path transform="matrix(1 0 0 1 39.0625 10)" d="M0 0L24 0L24 24L0 24L0 0Z" fill-rule="nonzero"/>
		</clipPath>
	</defs>
	<g clip-path="url(#clipPath8466650346)">
		<defs>
			<clipPath id="clipPath3008350017">
				<path transform="matrix(1 0 0 1 39.0625 10)" d="M0 0L24 0L24 24L0 24L0 0Z" fill-rule="nonzero"/>
			</clipPath>
		</defs>
		<g clip-path="url(#clipPath3008350017)">
			<path transform="matrix(1 0 0 1 42.8125 19.9375)" d="M0 -0.75C-0.41421 -0.75 -0.75 -0.41421 -0.75 0L-0.75 11.0625Q-0.75 11.6838 -0.310663 12.1232Q0.12868 12.5625 0.75 12.5625L5.25 12.5625Q5.32387 12.5625 5.39632 12.5481Q5.46877 12.5337 5.53701 12.5054Q5.60526 12.4771 5.66668 12.4361Q5.7281 12.3951 5.78033 12.3428Q5.83256 12.2906 5.8736 12.2292Q5.91464 12.1678 5.94291 12.0995Q5.97118 12.0313 5.98559 11.9588Q6 11.8864 6 11.8125L6 5.4375Q6 5.28217 6.10983 5.17234Q6.21967 5.0625 6.375 5.0625L10.125 5.0625Q10.2803 5.0625 10.3902 5.17234Q10.5 5.28217 10.5 5.4375L10.5 11.8125Q10.5 11.8864 10.5144 11.9588Q10.5288 12.0313 10.5571 12.0995Q10.5854 12.1678 10.6264 12.2292Q10.6674 12.2906 10.7197 12.3428Q10.7719 12.3951 10.8333 12.4361Q10.8947 12.4771 10.963 12.5054Q11.0312 12.5337 11.1037 12.5481Q11.1761 12.5625 11.25 12.5625L15.75 12.5625Q16.3713 12.5625 16.8107 12.1232Q17.25 11.6838 17.25 11.0625L17.25 0C17.25 -0.41421 16.9142 -0.75 16.5 -0.75C16.0858 -0.75 15.75 -0.41421 15.75 0L15.75 11.0625L12 11.0625L12 5.4375Q12 4.66085 11.4508 4.11167Q10.9016 3.5625 10.125 3.5625L6.375 3.5625Q5.59835 3.5625 5.04918 4.11167Q4.5 4.66085 4.5 5.4375L4.5 11.0625L0.75 11.0625L0.75 0C0.75 -0.41421 0.41421 -0.75 0 -0.75Z" fill-rule="evenodd" fill="rgb(135, 100, 33)"/>
			<path transform="matrix(1 0 0 1 40.5625 12.2508)" d="M20.4814 10.291L10.5149 0.750488Q10.5082 0.750015 10.5002 0.75Q10.492 0.749986 10.4852 0.750469L0.518624 10.291C0.219407 10.5774 -0.255358 10.567 -0.541784 10.2678C-0.828209 9.96859 -0.81784 9.49382 -0.518624 9.2074L9.46081 -0.345437Q9.85887 -0.751152 10.5029 -0.749997Q11.1451 -0.748846 11.5399 -0.344777L14.25 2.24949L14.25 0.749181Q14.25 0.675313 14.2644 0.602863Q14.2788 0.530414 14.3071 0.462169Q14.3354 0.393923 14.3764 0.332504Q14.4174 0.271084 14.4697 0.218851Q14.5219 0.166618 14.5833 0.125579Q14.6447 0.0845398 14.713 0.0562716Q14.7812 0.0280033 14.8537 0.0135922Q14.9261 -0.000818789 15 -0.000818789L17.25 -0.000818789Q17.3239 -0.000818789 17.3963 0.0135922Q17.4688 0.0280033 17.537 0.0562716Q17.6053 0.0845398 17.6667 0.125579Q17.7281 0.166618 17.7803 0.218851Q17.8326 0.271084 17.8736 0.332503Q17.9146 0.393923 17.9429 0.462169Q17.9712 0.530414 17.9856 0.602863Q18 0.675313 18 0.749181L18 5.83919L21.5186 9.2074C21.8178 9.49382 21.8282 9.96859 21.5418 10.2678C21.2554 10.567 20.7806 10.5774 20.4814 10.291ZM16.5 1.49918L16.5 4.40331L15.75 3.68537L15.75 1.49918L16.5 1.49918Z" fill-rule="evenodd" fill="rgb(135, 100, 33)"/>
		</g>
	</g>
	<path transform="matrix(1 0 0 1 34.4688 38)" d="M6.02717 13L6.02717 12.7598Q6.43439 12.7363 6.64533 12.666Q6.85627 12.5928 6.92658 12.376Q6.99982 12.1592 6.99982 11.7285L6.99982 5.77539Q6.99982 5.33301 6.92658 5.12207Q6.85627 4.91113 6.64533 4.83496Q6.43439 4.75586 6.02717 4.74414L6.02717 4.50391Q6.30256 4.51562 6.7215 4.52734Q7.14338 4.53906 7.55061 4.53906Q8.01936 4.53906 8.42658 4.52734Q8.83674 4.51562 9.08869 4.50391L9.08869 4.74414Q8.67854 4.75586 8.4676 4.83496Q8.25959 4.91113 8.18635 5.12207Q8.11604 5.33301 8.11604 5.77539L8.11604 11.7285Q8.11604 12.1592 8.18635 12.376Q8.25959 12.5928 8.4676 12.666Q8.67854 12.7363 9.08869 12.7598L9.08869 13Q8.83674 12.9766 8.42658 12.9707Q8.01936 12.9648 7.55061 12.9648Q7.14338 12.9648 6.7215 12.9707Q6.30256 12.9766 6.02717 13ZM1.01154 13L1.01154 12.7598Q1.41877 12.7363 1.62971 12.666Q1.84064 12.5928 1.91096 12.376Q1.9842 12.1592 1.9842 11.7285L1.9842 5.77539Q1.9842 5.33301 1.91096 5.12207Q1.84064 4.91113 1.62971 4.83496Q1.41877 4.75586 1.01154 4.74414L1.01154 4.50391Q1.2635 4.51562 1.67072 4.52734Q2.08088 4.53906 2.5467 4.53906Q2.96857 4.53906 3.38166 4.52734Q3.79475 4.51562 4.07307 4.50391L4.07307 4.74414Q3.66291 4.75586 3.45197 4.83496Q3.24397 4.91113 3.17072 5.12207Q3.10041 5.33301 3.10041 5.77539L3.10041 11.7285Q3.10041 12.1592 3.17072 12.376Q3.24397 12.5928 3.45197 12.666Q3.66291 12.7363 4.07307 12.7598L4.07307 13Q3.79475 12.9766 3.38166 12.9707Q2.96857 12.9648 2.5467 12.9648Q2.08088 12.9648 1.67072 12.9707Q1.2635 12.9766 1.01154 13ZM2.67854 8.84863L2.67854 8.6084L7.41877 8.6084L7.41877 8.84863L2.67854 8.84863Z" fill-rule="nonzero" fill="rgb(135, 100, 33)"/>
	<path transform="matrix(1 0 0 1 34.4688 38)" d="M12.6628 6.65137Q13.4304 6.65137 14.0427 6.98828Q14.655 7.3252 15.0212 8.0459Q15.3874 8.76367 15.3874 9.91504Q15.3874 11.0693 15.0212 11.7842Q14.655 12.4961 14.0427 12.833Q13.4304 13.167 12.6628 13.167Q11.9069 13.167 11.2888 12.833Q10.6706 12.4961 10.3044 11.7842Q9.94112 11.0693 9.94112 9.91504Q9.94112 8.76367 10.3044 8.0459Q10.6706 7.3252 11.2888 6.98828Q11.9069 6.65137 12.6628 6.65137ZM12.6628 6.8916Q11.9802 6.8916 11.5407 7.60059Q11.1042 8.30664 11.1042 9.91504Q11.1042 11.5234 11.5407 12.2266Q11.9802 12.9268 12.6628 12.9268Q13.3484 12.9268 13.7849 12.2266Q14.2243 11.5234 14.2243 9.91504Q14.2243 8.30664 13.7849 7.60059Q13.3484 6.8916 12.6628 6.8916Z" fill-rule="nonzero" fill="rgb(135, 100, 33)"/>
	<path transform="matrix(1 0 0 1 34.4688 38)" d="M20.2584 6.65137Q20.6803 6.65137 20.9908 6.77148Q21.3043 6.8916 21.5064 7.1084Q21.7349 7.34863 21.8199 7.73242Q21.9049 8.11621 21.9049 8.67871L21.9049 11.8838Q21.9049 12.3877 22.1129 12.5693Q22.3238 12.748 22.816 12.748L22.816 13Q22.6109 12.9883 22.192 12.9707Q21.773 12.9531 21.3746 12.9531Q20.9791 12.9531 20.6012 12.9707Q20.2232 12.9883 20.0328 13L20.0328 12.748Q20.4635 12.748 20.6422 12.5693Q20.8238 12.3877 20.8238 11.8838L20.8238 8.41504Q20.8238 8.04297 20.774 7.73242Q20.7271 7.41895 20.5338 7.22852Q20.3433 7.03516 19.9127 7.03516Q19.4439 7.03516 19.0777 7.3252Q18.7115 7.6123 18.5006 8.11035Q18.2926 8.6084 18.2926 9.2207L18.2926 11.8838Q18.2926 12.3877 18.4713 12.5693Q18.6529 12.748 19.0836 12.748L19.0836 13Q18.8932 12.9883 18.5123 12.9707Q18.1344 12.9531 17.7389 12.9531Q17.3433 12.9531 16.9215 12.9707Q16.5025 12.9883 16.3004 13L16.3004 12.748Q16.7926 12.748 17.0006 12.5693Q17.2115 12.3877 17.2115 11.8838L17.2115 8.12793Q17.2115 7.58887 17.0182 7.33105Q16.8277 7.07324 16.3004 7.07324L16.3004 6.82129Q16.6842 6.85645 17.0445 6.85645Q17.3932 6.85645 17.7096 6.81543Q18.0289 6.77148 18.2926 6.68945L18.2926 8.10449Q18.6031 7.3252 19.1422 6.98828Q19.6842 6.65137 20.2584 6.65137ZM23.8707 6.65137Q24.2926 6.65137 24.6031 6.77148Q24.9166 6.8916 25.1187 7.1084Q25.3473 7.34863 25.4322 7.73242Q25.5172 8.11621 25.5172 8.67871L25.5172 11.8838Q25.5172 12.3877 25.7252 12.5693Q25.9361 12.748 26.4283 12.748L26.4283 13Q26.2232 12.9883 25.8014 12.9707Q25.3824 12.9531 24.9869 12.9531Q24.5914 12.9531 24.2135 12.9707Q23.8355 12.9883 23.6451 13L23.6451 12.748Q24.0758 12.748 24.2545 12.5693Q24.4361 12.3877 24.4361 11.8838L24.4361 8.41504Q24.4361 8.04297 24.3863 7.73242Q24.3394 7.41895 24.1461 7.22852Q23.9557 7.03516 23.525 7.03516Q23.0562 7.03516 22.69 7.3252Q22.3238 7.6123 22.1129 8.10449Q21.9049 8.59668 21.9049 9.20898L21.8668 8.09277Q22.192 7.26367 22.7428 6.95898Q23.2965 6.65137 23.8707 6.65137Z" fill-rule="nonzero" fill="rgb(135, 100, 33)"/>
	<path transform="matrix(1 0 0 1 34.4688 38)" d="M29.8715 6.65137Q30.9291 6.65137 31.5209 7.29297Q32.1156 7.93457 32.1156 9.29102L27.8793 9.29102L27.8676 9.06543L30.9643 9.06543Q30.9877 8.47656 30.8676 7.97852Q30.7475 7.48047 30.4897 7.18164Q30.2318 6.87988 29.8246 6.87988Q29.2709 6.87988 28.8432 7.43359Q28.4184 7.98438 28.3363 9.18262L28.3715 9.23242Q28.3481 9.41113 28.3363 9.62793Q28.3246 9.84473 28.3246 10.0586Q28.3246 10.876 28.5883 11.4648Q28.852 12.0508 29.2768 12.3584Q29.7045 12.6631 30.1586 12.6631Q30.519 12.6631 30.8412 12.5488Q31.1664 12.4346 31.4418 12.1709Q31.7201 11.9072 31.9252 11.4648L32.1625 11.5586Q32.0307 11.957 31.7318 12.3291Q31.433 12.7012 30.976 12.9355Q30.519 13.167 29.9184 13.167Q29.057 13.167 28.4389 12.7715Q27.8207 12.376 27.4897 11.6758Q27.1586 10.9727 27.1586 10.0586Q27.1586 9.00391 27.4955 8.24219Q27.8324 7.48047 28.4447 7.06738Q29.057 6.65137 29.8715 6.65137Z" fill-rule="nonzero" fill="rgb(135, 100, 33)"/>
	<defs>
		<clipPath id="clipPath3759970624">
			<path transform="matrix(1 0 0 1 106.641 10)" d="M0 0L24 0L24 24L0 24L0 0Z" fill-rule="nonzero"/>
		</clipPath>
	</defs>
	<g clip-path="url(#clipPath3759970624)">
		<defs>
			<clipPath id="clipPath6180194846">
				<path transform="matrix(1 0 0 1 106.641 10)" d="M0 0L24 0L24 24L0 24L0 0Z" fill-rule="nonzero"/>
			</clipPath>
		</defs>
		<g clip-path="url(#clipPath6180194846)">
			<path transform="matrix(1 0 0 1 108.891 12.25)" d="M-0.75 0.9375C-0.75 0.00551945 0.00551945 -0.75 0.9375 -0.75L7.3125 -0.75C8.24448 -0.75 9 0.00551945 9 0.9375L9 7.3125C9 8.24448 8.24448 9 7.3125 9L0.9375 9C0.00551945 9 -0.75 8.24448 -0.75 7.3125L-0.75 0.9375ZM0.9375 0.75C0.833947 0.75 0.75 0.833947 0.75 0.9375L0.75 7.3125C0.75 7.41605 0.833947 7.5 0.9375 7.5L7.3125 7.5C7.41605 7.5 7.5 7.41605 7.5 7.3125L7.5 0.9375C7.5 0.833947 7.41605 0.75 7.3125 0.75L0.9375 0.75Z" fill-rule="nonzero" fill="rgb(135, 100, 33)"/>
			<path transform="matrix(1 0 0 1 120.141 12.25)" d="M-0.75 0.9375C-0.75 0.00551945 0.00551945 -0.75 0.9375 -0.75L7.3125 -0.75C8.24448 -0.75 9 0.00551945 9 0.9375L9 7.3125C9 8.24448 8.24448 9 7.3125 9L0.9375 9C0.00551945 9 -0.75 8.24448 -0.75 7.3125L-0.75 0.9375ZM0.9375 0.75C0.833947 0.75 0.75 0.833947 0.75 0.9375L0.75 7.3125C0.75 7.41605 0.833947 7.5 0.9375 7.5L7.3125 7.5C7.41605 7.5 7.5 7.41605 7.5 7.3125L7.5 0.9375C7.5 0.833947 7.41605 0.75 7.3125 0.75L0.9375 0.75Z" fill-rule="nonzero" fill="rgb(135, 100, 33)"/>
			<path transform="matrix(1 0 0 1 108.891 23.5)" d="M-0.75 0.9375C-0.75 0.00551945 0.00551945 -0.75 0.9375 -0.75L7.3125 -0.75C8.24448 -0.75 9 0.00551945 9 0.9375L9 7.3125C9 8.24448 8.24448 9 7.3125 9L0.9375 9C0.00551945 9 -0.75 8.24448 -0.75 7.3125L-0.75 0.9375ZM0.9375 0.75C0.833947 0.75 0.75 0.833947 0.75 0.9375L0.75 7.3125C0.75 7.41605 0.833947 7.5 0.9375 7.5L7.3125 7.5C7.41605 7.5 7.5 7.41605 7.5 7.3125L7.5 0.9375C7.5 0.833947 7.41605 0.75 7.3125 0.75L0.9375 0.75Z" fill-rule="nonzero" fill="rgb(135, 100, 33)"/>
			<path transform="matrix(1 0 0 1 120.141 23.5)" d="M-0.75 0.9375C-0.75 0.00551945 0.00551945 -0.75 0.9375 -0.75L7.3125 -0.75C8.24448 -0.75 9 0.00551945 9 0.9375L9 7.3125C9 8.24448 8.24448 9 7.3125 9L0.9375 9C0.00551945 9 -0.75 8.24448 -0.75 7.3125L-0.75 0.9375ZM0.9375 0.75C0.833947 0.75 0.75 0.833947 0.75 0.9375L0.75 7.3125C0.75 7.41605 0.833947 7.5 0.9375 7.5L7.3125 7.5C7.41605 7.5 7.5 7.41605 7.5 7.3125L7.5 0.9375C7.5 0.833947 7.41605 0.75 7.3125 0.75L0.9375 0.75Z" fill-rule="nonzero" fill="rgb(135, 100, 33)"/>
		</g>
	</g>
	<path transform="matrix(1 0 0 1 104.594 38)" d="M3.57803 4.37207Q4.17568 4.37207 4.48623 4.50977Q4.79971 4.64746 5.03994 4.81738Q5.18349 4.89941 5.27431 4.94336Q5.36514 4.98438 5.4501 4.98438Q5.57021 4.98438 5.62295 4.85254Q5.67568 4.7207 5.71377 4.45703L5.98916 4.45703Q5.97744 4.65918 5.95693 4.94336Q5.93935 5.22461 5.93349 5.6875Q5.92764 6.14746 5.92764 6.90332L5.65224 6.90332Q5.61709 6.3291 5.40029 5.80176Q5.18349 5.27148 4.77041 4.9375Q4.35732 4.60059 3.68349 4.60059Q3.04775 4.60059 2.63467 4.98438Q2.22158 5.36816 2.22158 5.99219Q2.22158 6.53125 2.49697 6.89746Q2.77236 7.26367 3.23525 7.55957Q3.69814 7.85254 4.23721 8.18945Q4.86123 8.57324 5.34756 8.95117Q5.83389 9.3291 6.11514 9.78613Q6.39639 10.2402 6.39639 10.8877Q6.39639 11.6553 6.04775 12.1592Q5.70205 12.6631 5.1249 12.915Q4.54775 13.167 3.85342 13.167Q3.21767 13.167 2.8456 13.0234Q2.47353 12.8799 2.20986 12.7246Q1.94619 12.5547 1.79971 12.5547Q1.67959 12.5547 1.62685 12.6895Q1.57412 12.8213 1.53603 13.085L1.26064 13.085Q1.28408 12.833 1.28994 12.4902Q1.2958 12.1475 1.30166 11.5967Q1.30752 11.043 1.30752 10.2051L1.58584 10.2051Q1.63271 10.9229 1.85537 11.5469Q2.07803 12.1709 2.53799 12.5488Q3.00088 12.9268 3.76846 12.9268Q4.16396 12.9268 4.51846 12.7656Q4.87295 12.6045 5.10146 12.25Q5.32998 11.8955 5.32998 11.333Q5.32998 10.8408 5.0956 10.4746Q4.86123 10.1084 4.43935 9.79199Q4.02041 9.47266 3.45791 9.13574Q2.89248 8.78711 2.40029 8.42969Q1.9081 8.06934 1.61514 7.59473Q1.32217 7.12012 1.32217 6.44922Q1.32217 5.74023 1.63857 5.28027Q1.95791 4.81738 2.47353 4.59473Q2.98916 4.37207 3.57803 4.37207Z" fill-rule="nonzero" fill="rgb(135, 100, 33)"/>
	<path transform="matrix(1 0 0 1 104.594 38)" d="M9.21725 3.60449L9.21725 8.09277Q9.52779 7.27539 10.0844 6.96484Q10.644 6.65137 11.2563 6.65137Q11.7133 6.65137 12.018 6.77148Q12.3256 6.8916 12.5278 7.1084Q12.7563 7.34863 12.853 7.70898Q12.9497 8.06934 12.9497 8.67871L12.9497 11.8838Q12.9497 12.3877 13.1577 12.5693Q13.3686 12.748 13.8608 12.748L13.8608 13Q13.6557 12.9883 13.2368 12.9707Q12.8178 12.9531 12.4194 12.9531Q12.0239 12.9531 11.646 12.9707Q11.268 12.9883 11.0776 13L11.0776 12.748Q11.5083 12.748 11.687 12.5693Q11.8686 12.3877 11.8686 11.8838L11.8686 8.41504Q11.8686 8.04297 11.8071 7.73242Q11.7485 7.41895 11.5376 7.22852Q11.3296 7.03516 10.896 7.03516Q10.4038 7.03516 10.0258 7.31348Q9.64791 7.58887 9.43111 8.08105Q9.21725 8.57324 9.21725 9.20898L9.21725 11.8838Q9.21725 12.3877 9.39596 12.5693Q9.5776 12.748 10.0083 12.748L10.0083 13Q9.81783 12.9883 9.4399 12.9707Q9.06197 12.9531 8.66354 12.9531Q8.26803 12.9531 7.84908 12.9707Q7.43014 12.9883 7.22506 13L7.22506 12.748Q7.71725 12.748 7.92525 12.5693Q8.13619 12.3877 8.13619 11.8838L8.13619 5.04297Q8.13619 4.50391 7.94283 4.24609Q7.7524 3.98828 7.22506 3.98828L7.22506 3.73633Q7.60885 3.77148 7.9692 3.77148Q8.31783 3.77148 8.63424 3.73047Q8.95358 3.68945 9.21725 3.60449Z" fill-rule="nonzero" fill="rgb(135, 100, 33)"/>
	<path transform="matrix(1 0 0 1 104.594 38)" d="M17.328 6.65137Q18.0956 6.65137 18.7079 6.98828Q19.3202 7.3252 19.6864 8.0459Q20.0526 8.76367 20.0526 9.91504Q20.0526 11.0693 19.6864 11.7842Q19.3202 12.4961 18.7079 12.833Q18.0956 13.167 17.328 13.167Q16.5721 13.167 15.954 12.833Q15.3358 12.4961 14.9696 11.7842Q14.6063 11.0693 14.6063 9.91504Q14.6063 8.76367 14.9696 8.0459Q15.3358 7.3252 15.954 6.98828Q16.5721 6.65137 17.328 6.65137ZM17.328 6.8916Q16.6454 6.8916 16.2059 7.60059Q15.7694 8.30664 15.7694 9.91504Q15.7694 11.5234 16.2059 12.2266Q16.6454 12.9268 17.328 12.9268Q18.0135 12.9268 18.4501 12.2266Q18.8895 11.5234 18.8895 9.91504Q18.8895 8.30664 18.4501 7.60059Q18.0135 6.8916 17.328 6.8916Z" fill-rule="nonzero" fill="rgb(135, 100, 33)"/>
	<path transform="matrix(1 0 0 1 104.594 38)" d="M22.8728 6.68945L22.8728 14.0547Q22.8728 14.5732 23.1775 14.7461Q23.4851 14.9189 24.0241 14.9189L24.0241 15.1709Q23.7605 15.1592 23.2917 15.1416Q22.8259 15.124 22.2956 15.124Q21.9236 15.124 21.5574 15.1416Q21.1941 15.1592 21.0007 15.1709L21.0007 14.9189Q21.4343 14.9189 21.613 14.7637Q21.7917 14.6084 21.7917 14.1748L21.7917 8.12793Q21.7917 7.58887 21.5984 7.33105Q21.4079 7.07324 20.8806 7.07324L20.8806 6.82129Q21.2644 6.85645 21.6247 6.85645Q21.9734 6.85645 22.2898 6.81543Q22.6091 6.77148 22.8728 6.68945ZM24.7917 6.65137Q25.4275 6.65137 25.9314 6.99414Q26.4382 7.33691 26.7312 7.99609Q27.0241 8.65527 27.0241 9.62793Q27.0241 10.2754 26.8689 10.9053Q26.7136 11.5352 26.3825 12.0449Q26.0515 12.5547 25.53 12.8623Q25.0085 13.167 24.2761 13.167Q23.7136 13.167 23.2976 12.9033Q22.8845 12.6396 22.7409 12.2676L22.8611 12.1006Q23.0281 12.4346 23.3445 12.6631Q23.6638 12.8916 24.1443 12.8916Q24.8181 12.8916 25.1902 12.4727Q25.5622 12.0508 25.7116 11.3506Q25.8611 10.6475 25.8611 9.79492Q25.8611 8.83691 25.7029 8.22461Q25.5476 7.6123 25.2341 7.31348Q24.9236 7.01172 24.4695 7.01172Q23.8806 7.01172 23.4001 7.49805Q22.9197 7.98438 22.7878 8.96875L22.6443 8.79883Q22.7761 7.7793 23.3708 7.2168Q23.9656 6.65137 24.7917 6.65137Z" fill-rule="nonzero" fill="rgb(135, 100, 33)"/>
	<defs>
		<clipPath id="clipPath3110168994">
			<path transform="matrix(1 0 0 1 182.852 10)" d="M0 0L24 0L24 24L0 24L0 0Z" fill-rule="nonzero"/>
		</clipPath>
	</defs>
	<g clip-path="url(#clipPath3110168994)">
		<defs>
			<clipPath id="clipPath3583993791">
				<path transform="matrix(1 0 0 1 182.852 10)" d="M0 0L24 0L24 24L0 24L0 0Z" fill-rule="nonzero"/>
			</clipPath>
		</defs>
		<g clip-path="url(#clipPath3583993791)">
			<path transform="matrix(1 0 0 1 185.851 13.75)" d="M13.5436 0.75Q11.9507 0.75 10.6593 2.03223Q10.2404 2.44814 9.90575 2.94831Q9.74389 3.19023 9.6713 3.33541Q9.63826 3.40148 9.59297 3.45984Q9.54768 3.51819 9.49188 3.56659Q9.43608 3.61499 9.3719 3.65157Q9.30773 3.68815 9.23765 3.71151Q9.16757 3.73487 9.09428 3.74411Q9.02099 3.75335 8.94731 3.74811Q8.87363 3.74288 8.80238 3.72337Q8.73114 3.70386 8.66507 3.67082Q8.55621 3.61639 8.47015 3.53033Q8.38409 3.44427 8.32966 3.33541Q8.25707 3.19023 8.09521 2.94831Q7.76056 2.44814 7.34166 2.03223Q6.05022 0.75 4.45735 0.75Q3.70549 0.75 3.02168 1.04903Q2.36172 1.33764 1.84907 1.86561Q1.33697 2.39301 1.05192 3.07615Q0.758291 3.77987 0.750439 4.54566Q0.717927 7.77717 3.15783 10.7517Q4.22064 12.0473 5.80827 13.3745Q7.13722 14.4854 8.99979 15.7496L9.00048 15.7501Q9.00048 15.7501 9.00048 15.7501Q10.8636 14.4854 12.1924 13.3745Q13.78 12.0473 14.8428 10.7517Q17.2827 7.7771 17.2505 4.54544Q17.2427 3.77987 16.949 3.07615Q16.664 2.39301 16.1519 1.86561Q15.6392 1.33764 14.9793 1.04904Q14.2955 0.750001 13.5436 0.750001L13.5436 0.75ZM13.5436 -0.749999Q14.6091 -0.75 15.5803 -0.325299Q16.5102 0.0813457 17.2281 0.820678Q17.9386 1.55246 18.3334 2.49853Q18.7396 3.4721 18.7504 4.53049Q18.7881 8.30707 16.0025 11.703Q14.8503 13.1077 13.1545 14.5253Q11.7681 15.6844 9.84423 16.9903Q9.46235 17.2501 9.00048 17.2501Q8.5386 17.2501 8.15742 16.9907Q6.23276 15.6844 4.84622 14.5254Q3.15036 13.1077 1.99809 11.703Q-0.787481 8.30708 -0.749482 4.53028Q-0.738633 3.4721 -0.332401 2.49853Q0.0623521 1.55247 0.772908 0.820679Q1.49079 0.081346 2.42068 -0.325299Q3.39185 -0.75 4.45735 -0.75Q5.67879 -0.75 6.78358 -0.203498Q7.65099 0.225584 8.39852 0.967774Q8.92385 1.48936 9.3419 2.11419Q9.55639 2.43477 9.6713 2.66459L9.00048 3L8.32966 2.66459Q8.44457 2.43476 8.65905 2.11419Q9.07711 1.48936 9.60244 0.967774Q10.35 0.225584 11.2174 -0.203498Q12.3222 -0.75 13.5436 -0.75L13.5436 -0.749999Z" fill-rule="nonzero" fill="rgb(135, 100, 33)"/>
		</g>
	</g>
	<path transform="matrix(1 0 0 1 169.625 38)" d="M6.99257 4.50391Q6.94569 4.96094 6.92519 5.38867Q6.90761 5.81348 6.90761 6.03906Q6.90761 6.3291 6.91933 6.58105Q6.93105 6.83301 6.94569 7.02344L6.66737 7.02344Q6.58534 6.18262 6.43886 5.69922Q6.2953 5.21289 5.93495 4.99609Q5.57753 4.7793 4.82167 4.7793L4.06581 4.7793Q3.65565 4.7793 3.44472 4.84668Q3.23671 4.91113 3.16347 5.12207Q3.09315 5.33301 3.09315 5.77539L3.09315 11.7285Q3.09315 12.1592 3.18105 12.376Q3.27187 12.5928 3.53554 12.666Q3.79921 12.7363 4.30312 12.7598L4.30312 13Q3.99257 12.9766 3.5121 12.9707Q3.03163 12.9648 2.53944 12.9648Q2.07362 12.9648 1.66347 12.9707Q1.25624 12.9766 1.00429 13L1.00429 12.7598Q1.41151 12.7363 1.62245 12.666Q1.83339 12.5928 1.9037 12.376Q1.97694 12.1592 1.97694 11.7285L1.97694 5.77539Q1.97694 5.33301 1.9037 5.12207Q1.83339 4.91113 1.62245 4.83496Q1.41151 4.75586 1.00429 4.74414L1.00429 4.50391Q1.4496 4.51562 1.93886 4.52148Q2.43105 4.52734 2.91151 4.5332Q3.39198 4.53906 3.80507 4.53906Q4.22108 4.53906 4.48476 4.53906Q5.03554 4.53906 5.73866 4.5332Q6.44179 4.52734 6.99257 4.50391ZM5.13222 8.72852Q5.13222 8.72852 5.13222 8.84863Q5.13222 8.96875 5.13222 8.96875L2.7328 8.96875Q2.7328 8.96875 2.7328 8.84863Q2.7328 8.72852 2.7328 8.72852L5.13222 8.72852ZM5.36073 7.14355Q5.31093 7.8291 5.31679 8.18945Q5.32558 8.54688 5.32558 8.84863Q5.32558 9.14746 5.3373 9.50781Q5.34901 9.86816 5.39589 10.5508L5.1205 10.5508Q5.07362 10.167 5.00624 9.80078Q4.94179 9.43457 4.71913 9.20312Q4.49648 8.96875 3.96913 8.96875L3.96913 8.72852Q4.36464 8.72852 4.57265 8.56738Q4.78358 8.40332 4.88026 8.15137Q4.97694 7.89941 5.0121 7.62988Q5.04726 7.36035 5.08534 7.14355L5.36073 7.14355Z" fill-rule="nonzero" fill="rgb(135, 100, 33)"/>
	<path transform="matrix(1 0 0 1 169.625 38)" d="M9.21121 13.085Q8.71902 13.085 8.35867 12.9004Q8.00125 12.7129 7.81375 12.376Q7.62918 12.0391 7.62918 11.5967Q7.62918 11.0693 7.87527 10.7324Q8.12137 10.3955 8.50516 10.1934Q8.88895 9.98828 9.31375 9.85059Q9.74149 9.71289 10.1253 9.58691Q10.5091 9.46094 10.7552 9.29395Q11.0013 9.12402 11.0013 8.84863L11.0013 8.10449Q11.0013 7.60059 10.8489 7.33691Q10.6995 7.07324 10.4475 6.98242Q10.1956 6.8916 9.88504 6.8916Q9.58328 6.8916 9.24051 6.97656Q8.90067 7.05859 8.69559 7.3252Q8.9241 7.37207 9.09109 7.56543Q9.26102 7.75586 9.26102 8.05469Q9.26102 8.35645 9.06766 8.53223Q8.87723 8.70508 8.57547 8.70508Q8.22977 8.70508 8.0657 8.48242Q7.90457 8.25977 7.90457 7.98438Q7.90457 7.6709 8.05984 7.48047Q8.21512 7.28711 8.45535 7.12012Q8.73367 6.92676 9.1702 6.78906Q9.60965 6.65137 10.1604 6.65137Q10.6526 6.65137 11.0013 6.76562Q11.3499 6.87988 11.5755 7.09668Q11.8889 7.38379 11.9827 7.7998Q12.0794 8.21289 12.0794 8.78711L12.0794 12.124Q12.0794 12.4229 12.1702 12.5576Q12.261 12.6895 12.4514 12.6895Q12.5833 12.6895 12.7034 12.6309Q12.8235 12.5693 12.9934 12.4346L13.1253 12.6396Q12.8733 12.833 12.6448 12.959Q12.4163 13.085 12.0325 13.085Q11.6839 13.085 11.4554 12.9648Q11.2298 12.8447 11.1155 12.6104Q11.0013 12.376 11.0013 12.0156Q10.6761 12.5547 10.2249 12.8213Q9.77664 13.085 9.21121 13.085ZM9.64481 12.6045Q10.0403 12.6045 10.3831 12.376Q10.7259 12.1475 11.0013 11.6934L11.0013 9.34082Q10.8577 9.54297 10.5794 9.68359Q10.304 9.82129 9.97879 9.95898Q9.65652 10.0967 9.36063 10.2842Q9.06766 10.4688 8.8743 10.7705Q8.68387 11.0693 8.68387 11.5469Q8.68387 12.0273 8.94168 12.3174Q9.19949 12.6045 9.64481 12.6045Z" fill-rule="nonzero" fill="rgb(135, 100, 33)"/>
	<path transform="matrix(1 0 0 1 169.625 38)" d="M18.9095 6.82129L18.9095 7.05859Q18.681 7.08496 18.4876 7.2666Q18.2972 7.44531 18.1273 7.89941L16.1614 13.0586Q16.1116 13.0586 16.0648 13.0586Q16.0179 13.0586 15.9564 13.0586L13.7474 7.74414Q13.5569 7.27539 13.3694 7.17578Q13.1849 7.07324 13.053 7.07324L13.053 6.82129Q13.2933 6.83301 13.5511 6.85059Q13.8089 6.86816 14.1077 6.86816Q14.4798 6.86816 14.8929 6.85645Q15.3089 6.84473 15.6693 6.82129L15.6693 7.07324Q15.3675 7.07324 15.1331 7.11426Q14.9017 7.15527 14.8343 7.34863Q14.7698 7.53906 14.9485 8.00781L16.4485 11.7168L16.3753 11.7754L17.7435 8.18945Q17.9017 7.79102 17.8694 7.55957Q17.8401 7.3252 17.6292 7.20508Q17.4212 7.08496 16.9876 7.05859L16.9876 6.82129Q17.2044 6.83301 17.3597 6.83887Q17.5179 6.84473 17.6673 6.85059Q17.8167 6.85645 17.9954 6.85645Q18.2737 6.85645 18.4935 6.84473Q18.7161 6.83301 18.9095 6.82129Z" fill-rule="nonzero" fill="rgb(135, 100, 33)"/>
	<path transform="matrix(1 0 0 1 169.625 38)" d="M22.1236 6.65137Q22.8912 6.65137 23.5035 6.98828Q24.1158 7.3252 24.482 8.0459Q24.8482 8.76367 24.8482 9.91504Q24.8482 11.0693 24.482 11.7842Q24.1158 12.4961 23.5035 12.833Q22.8912 13.167 22.1236 13.167Q21.3678 13.167 20.7496 12.833Q20.1314 12.4961 19.7652 11.7842Q19.4019 11.0693 19.4019 9.91504Q19.4019 8.76367 19.7652 8.0459Q20.1314 7.3252 20.7496 6.98828Q21.3678 6.65137 22.1236 6.65137ZM22.1236 6.8916Q21.441 6.8916 21.0016 7.60059Q20.565 8.30664 20.565 9.91504Q20.565 11.5234 21.0016 12.2266Q21.441 12.9268 22.1236 12.9268Q22.8092 12.9268 23.2457 12.2266Q23.6852 11.5234 23.6852 9.91504Q23.6852 8.30664 23.2457 7.60059Q22.8092 6.8916 22.1236 6.8916Z" fill-rule="nonzero" fill="rgb(135, 100, 33)"/>
	<path transform="matrix(1 0 0 1 169.625 38)" d="M29.4936 6.65137Q29.8159 6.65137 30.062 6.7832Q30.3081 6.91504 30.4458 7.12598Q30.5835 7.33691 30.5835 7.60059Q30.5835 7.89941 30.396 8.12793Q30.2114 8.35645 29.9008 8.35645Q29.6489 8.35645 29.4555 8.19531Q29.2651 8.03125 29.2651 7.73242Q29.2651 7.50391 29.3911 7.34277Q29.5171 7.17871 29.6723 7.08496Q29.5874 6.96484 29.4204 6.96484Q29.0483 6.96484 28.7348 7.1875Q28.4243 7.40723 28.2075 7.75586Q27.9936 8.10449 27.8735 8.49414Q27.7534 8.88379 27.7534 9.2207L27.7534 11.7637Q27.7534 12.3525 28.0932 12.5518Q28.436 12.748 29.0249 12.748L29.0249 13Q28.7495 12.9883 28.2456 12.9707Q27.7417 12.9531 27.1762 12.9531Q26.769 12.9531 26.3647 12.9707Q25.9633 12.9883 25.7612 13L25.7612 12.748Q26.2534 12.748 26.4614 12.5693Q26.6723 12.3877 26.6723 11.8838L26.6723 8.12793Q26.6723 7.58887 26.479 7.33105Q26.2885 7.07324 25.7612 7.07324L25.7612 6.82129Q26.145 6.85645 26.5053 6.85645Q26.854 6.85645 27.1704 6.81543Q27.4897 6.77148 27.7534 6.68945L27.7534 8.18945Q27.8852 7.84082 28.1313 7.48633Q28.3774 7.13184 28.7231 6.8916Q29.0717 6.65137 29.4936 6.65137Z" fill-rule="nonzero" fill="rgb(135, 100, 33)"/>
	<path transform="matrix(1 0 0 1 169.625 38)" d="M32.4694 3.82129Q32.78 3.82129 33.0085 4.0498Q33.237 4.27539 33.237 4.58887Q33.237 4.89941 33.0085 5.12793Q32.78 5.35645 32.4694 5.35645Q32.1559 5.35645 31.9274 5.12793Q31.6989 4.89941 31.6989 4.58887Q31.6989 4.27539 31.9274 4.0498Q32.1559 3.82129 32.4694 3.82129ZM33.0934 6.68945L33.0934 11.8838Q33.0934 12.3877 33.3014 12.5693Q33.5124 12.748 34.0046 12.748L34.0046 13Q33.7995 12.9883 33.3864 12.9707Q32.9733 12.9531 32.5514 12.9531Q32.1442 12.9531 31.7223 12.9707Q31.3034 12.9883 31.1012 13L31.1012 12.748Q31.5934 12.748 31.8014 12.5693Q32.0124 12.3877 32.0124 11.8838L32.0124 8.12793Q32.0124 7.58887 31.819 7.33105Q31.6286 7.07324 31.1012 7.07324L31.1012 6.82129Q31.485 6.85645 31.8454 6.85645Q32.194 6.85645 32.5104 6.81543Q32.8298 6.77148 33.0934 6.68945Z" fill-rule="nonzero" fill="rgb(135, 100, 33)"/>
	<path transform="matrix(1 0 0 1 169.625 38)" d="M36.5479 4.8291L36.5479 6.83301L38.3233 6.83301L38.3233 7.07324L36.5479 7.07324L36.5479 11.7168Q36.5479 12.2793 36.753 12.5078Q36.9581 12.7363 37.3155 12.7363Q37.6759 12.7363 37.9395 12.4434Q38.2032 12.1475 38.3966 11.4531L38.6368 11.5117Q38.5167 12.209 38.1622 12.6895Q37.8077 13.167 37.0753 13.167Q36.668 13.167 36.4044 13.0645Q36.1407 12.9648 35.9356 12.7715Q35.672 12.4961 35.5694 12.1123Q35.4698 11.7285 35.4698 11.0928L35.4698 7.07324L34.3155 7.07324L34.3155 6.83301L35.4698 6.83301L35.4698 4.99609Q35.7686 4.98438 36.044 4.94922Q36.3194 4.91113 36.5479 4.8291Z" fill-rule="nonzero" fill="rgb(135, 100, 33)"/>
	<path transform="matrix(1 0 0 1 169.625 38)" d="M41.7803 6.65137Q42.838 6.65137 43.4297 7.29297Q44.0245 7.93457 44.0245 9.29102L39.7881 9.29102L39.7764 9.06543L42.8731 9.06543Q42.8965 8.47656 42.7764 7.97852Q42.6563 7.48047 42.3985 7.18164Q42.1407 6.87988 41.7335 6.87988Q41.1797 6.87988 40.752 7.43359Q40.3272 7.98438 40.2452 9.18262L40.2803 9.23242Q40.2569 9.41113 40.2452 9.62793Q40.2335 9.84473 40.2335 10.0586Q40.2335 10.876 40.4971 11.4648Q40.7608 12.0508 41.1856 12.3584Q41.6133 12.6631 42.0674 12.6631Q42.4278 12.6631 42.7501 12.5488Q43.0753 12.4346 43.3506 12.1709Q43.629 11.9072 43.834 11.4648L44.0714 11.5586Q43.9395 11.957 43.6407 12.3291Q43.3419 12.7012 42.8848 12.9355Q42.4278 13.167 41.8272 13.167Q40.9659 13.167 40.3477 12.7715Q39.7296 12.376 39.3985 11.6758Q39.0674 10.9727 39.0674 10.0586Q39.0674 9.00391 39.4044 8.24219Q39.7413 7.48047 40.3536 7.06738Q40.9659 6.65137 41.7803 6.65137Z" fill-rule="nonzero" fill="rgb(135, 100, 33)"/>
	<path transform="matrix(1 0 0 1 169.625 38)" d="M47.0848 6.65137Q47.5653 6.65137 47.8992 6.80957Q48.2362 6.96484 48.3914 7.09668Q48.7899 7.41895 48.8719 6.66309L49.1473 6.66309Q49.1239 7 49.1121 7.46289Q49.1004 7.92285 49.1004 8.70508L48.825 8.70508Q48.7518 8.25977 48.5789 7.84082Q48.4061 7.41895 48.0692 7.14941Q47.7323 6.87988 47.1932 6.87988Q46.7713 6.87988 46.4901 7.11426Q46.2088 7.34863 46.2088 7.80273Q46.2088 8.16309 46.4227 8.4209Q46.6395 8.67871 46.9881 8.90137Q47.3367 9.12402 47.744 9.3877Q48.201 9.6748 48.5731 9.97656Q48.9451 10.2754 49.1649 10.6357Q49.3875 10.9961 49.3875 11.4883Q49.3875 12.0391 49.1004 12.4111Q48.8133 12.7832 48.3504 12.9766Q47.8875 13.167 47.3367 13.167Q47.0731 13.167 46.8387 13.126Q46.6043 13.085 46.3875 13Q46.2674 12.9414 46.1414 12.8564Q46.0155 12.7715 45.8953 12.6748Q45.7782 12.5811 45.6815 12.6836Q45.5848 12.7832 45.5379 13.085L45.2596 13.085Q45.286 12.7012 45.2977 12.1504Q45.3094 11.5967 45.3094 10.6826L45.5848 10.6826Q45.6698 11.3564 45.825 11.8604Q45.9803 12.3643 46.3172 12.6455Q46.6541 12.9268 47.2518 12.9268Q47.492 12.9268 47.7381 12.8213Q47.9842 12.7129 48.1512 12.4609Q48.3211 12.209 48.3211 11.7871Q48.3211 11.2598 47.9373 10.9258Q47.5535 10.5889 46.9647 10.2168Q46.534 9.94141 46.1561 9.66602Q45.7782 9.3877 45.5438 9.04199Q45.3094 8.69336 45.3094 8.20117Q45.3094 7.65918 45.5555 7.31934Q45.8016 6.97656 46.2088 6.81543Q46.616 6.65137 47.0848 6.65137Z" fill-rule="nonzero" fill="rgb(135, 100, 33)"/>
	<defs>
		<clipPath id="clipPath9422429337">
			<path transform="matrix(1 0 0 1 263.289 10)" d="M0 0L24 0L24 24L0 24L0 0Z" fill-rule="nonzero"/>
		</clipPath>
	</defs>
	<g clip-path="url(#clipPath9422429337)">
		<defs>
			<clipPath id="clipPath1855032396">
				<path transform="matrix(1 0 0 1 263.289 10)" d="M0 0L24 0L24 24L0 24L0 0Z" fill-rule="nonzero"/>
			</clipPath>
		</defs>
		<g clip-path="url(#clipPath1855032396)">
			<path transform="matrix(1 0 0 1 271.151 12.25)" d="M9.01117 4.55546Q8.93417 5.59391 8.51889 6.54798Q8.11769 7.46967 7.45704 8.18732Q6.78731 8.91483 5.95522 9.31977Q5.07115 9.75 4.13822 9.75Q3.20533 9.75 2.32095 9.31992Q1.48832 8.91501 0.818327 8.18767Q0.157041 7.46977 -0.243905 6.548Q-0.659162 5.59334 -0.734799 4.55446Q-0.814835 3.45395 -0.481068 2.46861Q-0.154744 1.50524 0.523744 0.773327Q1.19895 0.0449595 2.12544 -0.349487Q3.06618 -0.75 4.13822 -0.75Q5.21044 -0.75 6.15512 -0.341129Q7.07883 0.0586683 7.75454 0.792902Q8.43078 1.52771 8.75721 2.48751Q9.09154 3.4705 9.01117 4.5554L9.01117 4.55546ZM7.51527 4.4446Q7.57307 3.66431 7.3371 2.9705Q7.11262 2.31047 6.65081 1.80866Q6.19076 1.30876 5.55931 1.03546Q4.89976 0.75 4.13822 0.75Q3.37219 0.75 2.71302 1.03064Q2.08124 1.29962 1.62379 1.79308Q1.16316 2.28999 0.93964 2.94985Q0.703224 3.64779 0.761241 4.44554Q0.818315 5.22945 1.1316 5.94969Q1.43167 6.63953 1.92159 7.1714Q2.39941 7.69011 2.97695 7.97098Q3.55072 8.25 4.13822 8.25Q4.72553 8.25 5.29884 7.971Q5.87586 7.69019 6.35346 7.17139Q6.84311 6.6395 7.14353 5.94932Q7.45712 5.22889 7.51527 4.44454L7.51527 4.4446Z" fill-rule="nonzero" fill="rgb(135, 100, 33)"/>
			<path transform="matrix(1 0 0 1 266.289 24.25)" d="M9.00011 0.75Q7.55567 0.75 6.18921 1.13923Q4.80018 1.53489 3.68247 2.27992Q2.52414 3.05203 1.7869 4.11698Q1.00447 5.2472 0.755082 6.62999Q0.738021 6.72456 0.766918 6.76678Q0.762624 6.76051 0.750272 6.7539L0.750114 6.75L17.2501 6.75L17.2504 6.7538Q17.2381 6.76038 17.2338 6.76665Q17.2627 6.72451 17.2456 6.63003Q16.9961 5.24726 16.2136 4.11702Q15.4762 3.05204 14.3178 2.27993Q13.2001 1.53489 11.811 1.13923Q10.4446 0.75 9.00012 0.75L9.00011 0.75ZM9.00012 -0.75Q10.654 -0.75 12.2219 -0.303388Q13.8367 0.15657 15.1498 1.03179Q16.5464 1.96273 17.4468 3.26316Q18.4145 4.6608 18.7218 6.36372Q18.8481 7.06404 18.4715 7.61413Q18.2686 7.91041 17.9575 8.07668Q17.6333 8.25 17.2501 8.25L0.750114 8.25Q0.367035 8.25 0.0428174 8.07659Q-0.268125 7.91028 -0.470909 7.614Q-0.847413 7.06391 -0.721102 6.36376Q-0.413979 4.66086 0.553593 3.26319Q1.45386 1.96275 2.8505 1.03179Q4.16351 0.156574 5.77829 -0.303388Q7.3462 -0.75 9.00011 -0.75L9.00012 -0.75Z" fill-rule="nonzero" fill="rgb(135, 100, 33)"/>
		</g>
	</g>
	<path transform="matrix(1 0 0 1 257.016 38)" d="M1.01122 4.50391Q1.26317 4.51562 1.67039 4.52734Q2.08055 4.53906 2.47606 4.53906Q3.03856 4.53906 3.55418 4.52734Q4.07274 4.51562 4.28661 4.51562Q5.73973 4.51562 6.4575 5.17773Q7.17821 5.83691 7.17821 6.87988Q7.17821 7.31055 7.03465 7.78516Q6.8911 8.25977 6.53661 8.66406Q6.18211 9.06543 5.56981 9.31738Q4.96043 9.56934 4.02293 9.56934L2.87157 9.56934L2.87157 9.3291L3.90282 9.3291Q4.75536 9.3291 5.2036 9.00391Q5.65477 8.67871 5.8159 8.15137Q5.97997 7.62402 5.97997 7.01172Q5.97997 5.87207 5.52879 5.30957Q5.08055 4.74414 3.98778 4.74414Q3.43407 4.74414 3.26707 4.94922Q3.10008 5.15137 3.10008 5.77539L3.10008 11.7285Q3.10008 12.1592 3.18797 12.376Q3.27879 12.5928 3.54247 12.666Q3.80614 12.7363 4.31004 12.7598L4.31004 13Q3.9995 12.9766 3.51903 12.9707Q3.03856 12.9648 2.54637 12.9648Q2.08055 12.9648 1.67039 12.9707Q1.26317 12.9766 1.01122 13L1.01122 12.7598Q1.41844 12.7363 1.62938 12.666Q1.84032 12.5928 1.91063 12.376Q1.98387 12.1592 1.98387 11.7285L1.98387 5.77539Q1.98387 5.33301 1.91063 5.12207Q1.84032 4.91113 1.62938 4.83496Q1.41844 4.75586 1.01122 4.74414L1.01122 4.50391Z" fill-rule="nonzero" fill="rgb(135, 100, 33)"/>
	<path transform="matrix(1 0 0 1 257.016 38)" d="M11.6084 6.65137Q11.9307 6.65137 12.1768 6.7832Q12.4229 6.91504 12.5606 7.12598Q12.6983 7.33691 12.6983 7.60059Q12.6983 7.89941 12.5108 8.12793Q12.3262 8.35645 12.0156 8.35645Q11.7637 8.35645 11.5703 8.19531Q11.3799 8.03125 11.3799 7.73242Q11.3799 7.50391 11.5059 7.34277Q11.6319 7.17871 11.7871 7.08496Q11.7022 6.96484 11.5352 6.96484Q11.1631 6.96484 10.8496 7.1875Q10.5391 7.40723 10.3223 7.75586Q10.1084 8.10449 9.9883 8.49414Q9.86818 8.88379 9.86818 9.2207L9.86818 11.7637Q9.86818 12.3525 10.208 12.5518Q10.5508 12.748 11.1397 12.748L11.1397 13Q10.8643 12.9883 10.3604 12.9707Q9.85646 12.9531 9.29103 12.9531Q8.8838 12.9531 8.47951 12.9707Q8.07814 12.9883 7.87599 13L7.87599 12.748Q8.36818 12.748 8.57619 12.5693Q8.78712 12.3877 8.78712 11.8838L8.78712 8.12793Q8.78712 7.58887 8.59377 7.33105Q8.40334 7.07324 7.87599 7.07324L7.87599 6.82129Q8.25978 6.85645 8.62013 6.85645Q8.96877 6.85645 9.28517 6.81543Q9.60451 6.77148 9.86818 6.68945L9.86818 8.18945Q10 7.84082 10.2461 7.48633Q10.4922 7.13184 10.8379 6.8916Q11.1865 6.65137 11.6084 6.65137Z" fill-rule="nonzero" fill="rgb(135, 100, 33)"/>
	<path transform="matrix(1 0 0 1 257.016 38)" d="M15.9145 6.65137Q16.6821 6.65137 17.2944 6.98828Q17.9067 7.3252 18.2729 8.0459Q18.6391 8.76367 18.6391 9.91504Q18.6391 11.0693 18.2729 11.7842Q17.9067 12.4961 17.2944 12.833Q16.6821 13.167 15.9145 13.167Q15.1586 13.167 14.5405 12.833Q13.9223 12.4961 13.5561 11.7842Q13.1928 11.0693 13.1928 9.91504Q13.1928 8.76367 13.5561 8.0459Q13.9223 7.3252 14.5405 6.98828Q15.1586 6.65137 15.9145 6.65137ZM15.9145 6.8916Q15.2319 6.8916 14.7924 7.60059Q14.3559 8.30664 14.3559 9.91504Q14.3559 11.5234 14.7924 12.2266Q15.2319 12.9268 15.9145 12.9268Q16.6001 12.9268 17.0366 12.2266Q17.476 11.5234 17.476 9.91504Q17.476 8.30664 17.0366 7.60059Q16.6001 6.8916 15.9145 6.8916Z" fill-rule="nonzero" fill="rgb(135, 100, 33)"/>
	<path transform="matrix(1 0 0 1 257.016 38)" d="M23.5833 3.61621Q23.9202 3.61621 24.2191 3.66602Q24.5208 3.71289 24.7728 3.79199Q25.0247 3.86816 25.1917 3.97656Q25.3822 4.09668 25.4906 4.25781Q25.599 4.41895 25.599 4.63574Q25.599 4.96094 25.3704 5.18945Q25.1449 5.41504 24.8314 5.41504Q24.5208 5.41504 24.2923 5.18945Q24.0638 4.96094 24.0638 4.64746Q24.0638 4.43066 24.1722 4.25195Q24.2806 4.07324 24.4593 3.97656Q24.304 3.87988 24.0638 3.83887Q23.8236 3.79492 23.5833 3.79492Q22.9593 3.79492 22.5374 4.04688Q22.1185 4.29883 21.8783 4.7207Q21.7113 5.01953 21.6322 5.48828Q21.556 5.95703 21.556 6.83301L23.4866 6.83301Q23.9671 6.83301 24.3158 6.82129Q24.6644 6.80664 24.9398 6.77734Q25.2152 6.74805 25.4788 6.68945L25.4788 11.8838Q25.4788 12.3877 25.6898 12.5693Q25.9007 12.748 26.39 12.748L26.39 13Q26.1878 12.9883 25.7718 12.9707Q25.3587 12.9531 24.9398 12.9531Q24.5325 12.9531 24.1107 12.9707Q23.6917 12.9883 23.4866 13L23.4866 12.748Q23.9788 12.748 24.1898 12.5693Q24.4007 12.3877 24.4007 11.8838L24.4007 8.12793Q24.4007 7.58887 24.2074 7.33105Q24.014 7.07324 23.4866 7.07324L21.556 7.07324L21.556 11.8838Q21.556 12.3994 21.8314 12.5752Q22.1068 12.748 22.5872 12.748L22.5872 13Q22.347 12.9883 21.9075 12.9707Q21.471 12.9531 21.014 12.9531Q20.5716 12.9531 20.1702 12.9707Q19.7689 12.9883 19.5638 13L19.5638 12.748Q20.056 12.748 20.264 12.5693Q20.4749 12.3877 20.4749 11.8838L20.4749 7.07324L19.514 7.07324L19.514 6.83301L20.4749 6.83301Q20.4749 6.06543 20.6712 5.45312Q20.8704 4.84082 21.3392 4.39551Q21.6878 4.07324 22.2386 3.84473Q22.7923 3.61621 23.5833 3.61621Z" fill-rule="nonzero" fill="rgb(135, 100, 33)"/>
	<path transform="matrix(1 0 0 1 257.016 38)" d="M28.9114 3.59277L28.9114 11.8838Q28.9114 12.3877 29.1194 12.5693Q29.3303 12.748 29.8225 12.748L29.8225 13Q29.6203 12.9883 29.2043 12.9707Q28.7912 12.9531 28.3723 12.9531Q27.9621 12.9531 27.5432 12.9707Q27.1243 12.9883 26.9192 13L26.9192 12.748Q27.4114 12.748 27.6194 12.5693Q27.8303 12.3877 27.8303 11.8838L27.8303 5.03125Q27.8303 4.49219 27.6369 4.23438Q27.4465 3.97656 26.9192 3.97656L26.9192 3.72461Q27.303 3.75977 27.6633 3.75977Q28.0119 3.75977 28.3284 3.71875Q28.6477 3.6748 28.9114 3.59277Z" fill-rule="nonzero" fill="rgb(135, 100, 33)"/>
	<path transform="matrix(1 0 0 1 257.016 38)" d="M33.2312 6.65137Q34.2888 6.65137 34.8806 7.29297Q35.4753 7.93457 35.4753 9.29102L31.239 9.29102L31.2273 9.06543L34.324 9.06543Q34.3474 8.47656 34.2273 7.97852Q34.1072 7.48047 33.8494 7.18164Q33.5916 6.87988 33.1843 6.87988Q32.6306 6.87988 32.2029 7.43359Q31.7781 7.98438 31.696 9.18262L31.7312 9.23242Q31.7078 9.41113 31.696 9.62793Q31.6843 9.84473 31.6843 10.0586Q31.6843 10.876 31.948 11.4648Q32.2117 12.0508 32.6365 12.3584Q33.0642 12.6631 33.5183 12.6631Q33.8787 12.6631 34.2009 12.5488Q34.5261 12.4346 34.8015 12.1709Q35.0798 11.9072 35.2849 11.4648L35.5222 11.5586Q35.3904 11.957 35.0916 12.3291Q34.7927 12.7012 34.3357 12.9355Q33.8787 13.167 33.2781 13.167Q32.4167 13.167 31.7986 12.7715Q31.1804 12.376 30.8494 11.6758Q30.5183 10.9727 30.5183 10.0586Q30.5183 9.00391 30.8552 8.24219Q31.1921 7.48047 31.8044 7.06738Q32.4167 6.65137 33.2312 6.65137Z" fill-rule="nonzero" fill="rgb(135, 100, 33)"/>
	<defs>
		<clipPath id="clipPath8190200569">
			<path transform="matrix(1 0 0 1 331 10)" d="M0 0L24 0L24 24L0 24L0 0Z" fill-rule="nonzero"/>
		</clipPath>
	</defs>
	<g clip-path="url(#clipPath8190200569)">
		<defs>
			<clipPath id="clipPath2020324733">
				<path transform="matrix(1 0 0 1 331 10)" d="M0 0L24 0L24 24L0 24L0 0Z" fill-rule="nonzero"/>
			</clipPath>
		</defs>
		<g clip-path="url(#clipPath2020324733)">
			<path transform="matrix(1 0 0 1 334 12.25)" d="M3.75 5.25L3.75 4.5Q3.75 2.32538 5.28769 0.787689Q6.82538 -0.75 9 -0.75Q11.1746 -0.75 12.7123 0.787689Q14.25 2.32538 14.25 4.5L14.25 5.25L17.25 5.25Q17.8713 5.25 18.3107 5.68934Q18.75 6.12868 18.75 6.75L18.75 16.9336Q18.75 17.6123 18.4755 18.2351Q18.2139 18.8285 17.7411 19.2869Q17.2728 19.7409 16.6709 19.9909Q16.0474 20.25 15.375 20.25L2.625 20.25Q1.94821 20.25 1.31878 19.9774Q0.718782 19.7176 0.250607 19.2494Q-0.217571 18.7812 -0.477412 18.1812Q-0.75 17.5518 -0.75 16.875L-0.75 6.75Q-0.75 6.12868 -0.31066 5.68934Q0.128679 5.25 0.75 5.25L3.75 5.25ZM4.5 6.75L0.75 6.75L0.75 16.875Q0.75 17.6275 1.31127 18.1887Q1.87253 18.75 2.625 18.75L15.375 18.75Q16.1399 18.75 16.697 18.2099Q17.25 17.6738 17.25 16.9336L17.25 6.75L4.5 6.75ZM12.75 5.25L5.25 5.25L5.25 4.5Q5.25 2.9467 6.34835 1.84835Q7.4467 0.75 9 0.75Q10.5533 0.75 11.6516 1.84835Q12.75 2.9467 12.75 4.5L12.75 5.25Z" fill-rule="evenodd" fill="rgb(135, 100, 33)"/>
		</g>
	</g>
	<path transform="matrix(1 0 0 1 330.586 38)" d="M4.9571 4.33691Q5.74812 4.33691 6.25788 4.57129Q6.76765 4.80273 7.16315 5.11621Q7.40339 5.29492 7.52937 5.15723Q7.65534 5.01953 7.70515 4.50391L7.98054 4.50391Q7.9571 4.94922 7.94245 5.58496Q7.93073 6.2207 7.93073 7.26367L7.65534 7.26367Q7.57331 6.74805 7.50007 6.44336Q7.42683 6.13574 7.32429 5.92188Q7.22468 5.70508 7.05476 5.48828Q6.68269 4.99609 6.11726 4.77344Q5.55476 4.55078 4.93073 4.55078Q4.3448 4.55078 3.87019 4.84668Q3.39558 5.13965 3.0528 5.69336Q2.71296 6.24414 2.52546 7.02344Q2.34089 7.80273 2.34089 8.77539Q2.34089 9.7832 2.54304 10.5596Q2.74812 11.333 3.11433 11.8604Q3.48054 12.3877 3.97858 12.6572Q4.47663 12.9268 5.05085 12.9268Q5.59284 12.9268 6.17878 12.7129Q6.76765 12.4961 7.10456 12.0156Q7.36823 11.667 7.47077 11.2598Q7.57331 10.8525 7.65534 10.1201L7.93073 10.1201Q7.93073 11.2129 7.94245 11.8779Q7.9571 12.543 7.98054 13L7.70515 13Q7.65534 12.4844 7.54108 12.3525Q7.42683 12.2207 7.16315 12.3877Q6.72077 12.7012 6.22272 12.9355Q5.72468 13.167 4.94538 13.167Q3.8028 13.167 2.9444 12.6514Q2.08894 12.1357 1.61433 11.166Q1.13972 10.1934 1.13972 8.8252Q1.13972 7.48047 1.6319 6.47266Q2.12409 5.46484 2.98249 4.90234Q3.84089 4.33691 4.9571 4.33691Z" fill-rule="nonzero" fill="rgb(135, 100, 33)"/>
	<path transform="matrix(1 0 0 1 330.586 38)" d="M10.8108 13.085Q10.3186 13.085 9.95827 12.9004Q9.60085 12.7129 9.41335 12.376Q9.22878 12.0391 9.22878 11.5967Q9.22878 11.0693 9.47488 10.7324Q9.72097 10.3955 10.1048 10.1934Q10.4885 9.98828 10.9134 9.85059Q11.3411 9.71289 11.7249 9.58691Q12.1087 9.46094 12.3548 9.29395Q12.6009 9.12402 12.6009 8.84863L12.6009 8.10449Q12.6009 7.60059 12.4485 7.33691Q12.2991 7.07324 12.0471 6.98242Q11.7952 6.8916 11.4846 6.8916Q11.1829 6.8916 10.8401 6.97656Q10.5003 7.05859 10.2952 7.3252Q10.5237 7.37207 10.6907 7.56543Q10.8606 7.75586 10.8606 8.05469Q10.8606 8.35645 10.6673 8.53223Q10.4768 8.70508 10.1751 8.70508Q9.82937 8.70508 9.66531 8.48242Q9.50417 8.25977 9.50417 7.98438Q9.50417 7.6709 9.65945 7.48047Q9.81472 7.28711 10.055 7.12012Q10.3333 6.92676 10.7698 6.78906Q11.2093 6.65137 11.76 6.65137Q12.2522 6.65137 12.6009 6.76562Q12.9495 6.87988 13.1751 7.09668Q13.4885 7.38379 13.5823 7.7998Q13.679 8.21289 13.679 8.78711L13.679 12.124Q13.679 12.4229 13.7698 12.5576Q13.8606 12.6895 14.051 12.6895Q14.1829 12.6895 14.303 12.6309Q14.4231 12.5693 14.593 12.4346L14.7249 12.6396Q14.4729 12.833 14.2444 12.959Q14.0159 13.085 13.6321 13.085Q13.2835 13.085 13.055 12.9648Q12.8294 12.8447 12.7151 12.6104Q12.6009 12.376 12.6009 12.0156Q12.2757 12.5547 11.8245 12.8213Q11.3762 13.085 10.8108 13.085ZM11.2444 12.6045Q11.6399 12.6045 11.9827 12.376Q12.3255 12.1475 12.6009 11.6934L12.6009 9.34082Q12.4573 9.54297 12.179 9.68359Q11.9036 9.82129 11.5784 9.95898Q11.2561 10.0967 10.9602 10.2842Q10.6673 10.4688 10.4739 10.7705Q10.2835 11.0693 10.2835 11.5469Q10.2835 12.0273 10.5413 12.3174Q10.7991 12.6045 11.2444 12.6045Z" fill-rule="nonzero" fill="rgb(135, 100, 33)"/>
	<path transform="matrix(1 0 0 1 330.586 38)" d="M18.8171 6.65137Q19.1394 6.65137 19.3855 6.7832Q19.6316 6.91504 19.7693 7.12598Q19.907 7.33691 19.907 7.60059Q19.907 7.89941 19.7195 8.12793Q19.5349 8.35645 19.2244 8.35645Q18.9724 8.35645 18.779 8.19531Q18.5886 8.03125 18.5886 7.73242Q18.5886 7.50391 18.7146 7.34277Q18.8406 7.17871 18.9958 7.08496Q18.9109 6.96484 18.7439 6.96484Q18.3718 6.96484 18.0583 7.1875Q17.7478 7.40723 17.531 7.75586Q17.3171 8.10449 17.197 8.49414Q17.0769 8.88379 17.0769 9.2207L17.0769 11.7637Q17.0769 12.3525 17.4167 12.5518Q17.7595 12.748 18.3484 12.748L18.3484 13Q18.073 12.9883 17.5691 12.9707Q17.0652 12.9531 16.4997 12.9531Q16.0925 12.9531 15.6882 12.9707Q15.2869 12.9883 15.0847 13L15.0847 12.748Q15.5769 12.748 15.7849 12.5693Q15.9958 12.3877 15.9958 11.8838L15.9958 8.12793Q15.9958 7.58887 15.8025 7.33105Q15.6121 7.07324 15.0847 7.07324L15.0847 6.82129Q15.4685 6.85645 15.8288 6.85645Q16.1775 6.85645 16.4939 6.81543Q16.8132 6.77148 17.0769 6.68945L17.0769 8.18945Q17.2087 7.84082 17.4548 7.48633Q17.7009 7.13184 18.0466 6.8916Q18.3953 6.65137 18.8171 6.65137Z" fill-rule="nonzero" fill="rgb(135, 100, 33)"/>
	<path transform="matrix(1 0 0 1 330.586 38)" d="M22.3554 4.8291L22.3554 6.83301L24.1308 6.83301L24.1308 7.07324L22.3554 7.07324L22.3554 11.7168Q22.3554 12.2793 22.5605 12.5078Q22.7656 12.7363 23.123 12.7363Q23.4833 12.7363 23.747 12.4434Q24.0107 12.1475 24.204 11.4531L24.4443 11.5117Q24.3242 12.209 23.9697 12.6895Q23.6152 13.167 22.8828 13.167Q22.4755 13.167 22.2119 13.0645Q21.9482 12.9648 21.7431 12.7715Q21.4794 12.4961 21.3769 12.1123Q21.2773 11.7285 21.2773 11.0928L21.2773 7.07324L20.123 7.07324L20.123 6.83301L21.2773 6.83301L21.2773 4.99609Q21.5761 4.98438 21.8515 4.94922Q22.1269 4.91113 22.3554 4.8291Z" fill-rule="nonzero" fill="rgb(135, 100, 33)"/>
</svg>
