<?xml version="1.0" encoding="utf-8" ?>
<svg xmlns="http://www.w3.org/2000/svg" xmlns:xlink="http://www.w3.org/1999/xlink" width="24" height="24" viewBox="0 0 24 24">
	<path d="M23.1 1.125L18.225 0C17.6953 -0.121875 17.1516 0.154688 16.9359 0.651563L14.6859 5.90156C14.4891 6.36094 14.6203 6.9 15.0094 7.21406L17.85 9.53906C16.1625 13.1344 13.2141 16.125 9.54375 17.8453L7.21875 15.0047C6.9 14.6156 6.36562 14.4844 5.90625 14.6812L0.65625 16.9312C0.154687 17.1516 -0.121875 17.6953 0 18.225L1.125 23.1C1.24219 23.6063 1.69219 23.9719 2.22187 23.9719C14.2266 23.9719 23.9719 14.2453 23.9719 2.22188C23.9719 1.69688 23.6109 1.24219 23.1 1.125Z" fill-rule="nonzero" transform="matrix(1 0 0 1 0.028125 0.028125)" fill="rgb(8, 43, 59)"/>
</svg>
