<?xml version="1.0" encoding="utf-8" ?>
<svg xmlns="http://www.w3.org/2000/svg" xmlns:xlink="http://www.w3.org/1999/xlink" width="19.5" height="21" viewBox="0 0 19.5 21">
	<path d="M3.75 5.25L3.75 4.5Q3.75 2.32538 5.28769 0.787689Q6.82538 -0.75 9 -0.75Q11.1746 -0.75 12.7123 0.787689Q14.25 2.32538 14.25 4.5L14.25 5.25L17.25 5.25Q17.8713 5.25 18.3107 5.68934Q18.75 6.12868 18.75 6.75L18.75 16.9336Q18.75 17.6123 18.4755 18.2351Q18.2139 18.8285 17.7411 19.2869Q17.2728 19.7409 16.6709 19.9909Q16.0474 20.25 15.375 20.25L2.625 20.25Q1.94821 20.25 1.31878 19.9774Q0.718782 19.7176 0.250607 19.2494Q-0.217571 18.7812 -0.477412 18.1812Q-0.75 17.5518 -0.75 16.875L-0.75 6.75Q-0.75 6.12868 -0.31066 5.68934Q0.128679 5.25 0.75 5.25L3.75 5.25ZM4.5 6.75L0.75 6.75L0.75 16.875Q0.75 17.6275 1.31127 18.1887Q1.87253 18.75 2.625 18.75L15.375 18.75Q16.1399 18.75 16.697 18.2099Q17.25 17.6738 17.25 16.9336L17.25 6.75L4.5 6.75ZM12.75 5.25L5.25 5.25L5.25 4.5Q5.25 2.9467 6.34835 1.84835Q7.4467 0.75 9 0.75Q10.5533 0.75 11.6516 1.84835Q12.75 2.9467 12.75 4.5L12.75 5.25Z" fill-rule="evenodd" transform="matrix(1 0 0 1 0.75 0.75)" fill="rgb(214, 214, 214)"/>
</svg>
