<?xml version="1.0" encoding="utf-8" ?>
<svg xmlns="http://www.w3.org/2000/svg" xmlns:xlink="http://www.w3.org/1999/xlink" width="20" height="20" viewBox="0 0 20 20">
	<defs>
		<clipPath id="clipPath3060099830">
			<path d="M0 0L20 0L20 20L0 20L0 0Z" fill-rule="nonzero" transform="matrix(1 0 0 1 -0 -0)"/>
		</clipPath>
	</defs>
	<g clip-path="url(#clipPath3060099830)">
		<path d="M0.625 -0.625Q1.14277 -0.625 1.50888 -0.258883Q1.875 0.107233 1.875 0.625Q1.875 1.14277 1.50888 1.50888Q1.14277 1.875 0.625 1.875Q0.107233 1.875 -0.258883 1.50888Q-0.625 1.14277 -0.625 0.625Q-0.625 0.107233 -0.258883 -0.258883Q0.107233 -0.625 0.625 -0.625L0.625 -0.625ZM0.625 0.625Q0.625 0.625 0.625 0.625Q0.625 0.625 0.625 0.625L0.625 0.625L0.625 0.625L0.625 0.625Z" fill-rule="nonzero" transform="matrix(1 0 0 1 6.25 15.625)" fill="rgb(255, 255, 255)"/>
		<path d="M0.625 -0.625Q1.14277 -0.625 1.50888 -0.258883Q1.875 0.107233 1.875 0.625Q1.875 1.14277 1.50888 1.50888Q1.14277 1.875 0.625 1.875Q0.107233 1.875 -0.258883 1.50888Q-0.625 1.14277 -0.625 0.625Q-0.625 0.107233 -0.258883 -0.258883Q0.107233 -0.625 0.625 -0.625L0.625 -0.625ZM0.625 0.625Q0.625 0.625 0.625 0.625Q0.625 0.625 0.625 0.625L0.625 0.625L0.625 0.625L0.625 0.625Z" fill-rule="nonzero" transform="matrix(1 0 0 1 15 15.625)" fill="rgb(255, 255, 255)"/>
		<path d="M-0.625 0C-0.625 0.345175 -0.345175 0.625 0 0.625L1.97564 0.625L3.75951 10.7336Q3.76901 10.7875 3.78772 10.8388Q3.80642 10.8902 3.83377 10.9376Q3.86111 10.9849 3.89626 11.0268Q3.93141 11.0687 3.97329 11.1038Q4.01518 11.1389 4.06253 11.1663Q4.10988 11.1936 4.16126 11.2123Q4.21264 11.231 4.26648 11.2405Q4.32032 11.25 4.375 11.25L14.375 11.25C14.7202 11.25 15 10.9702 15 10.625C15 10.2798 14.7202 10 14.375 10L4.89936 10L3.11549 -0.108616Q3.10599 -0.162459 3.08728 -0.213834Q3.06858 -0.265209 3.04123 -0.312557Q3.01389 -0.359904 2.97874 -0.401784Q2.94359 -0.443664 2.90171 -0.478806Q2.85982 -0.513947 2.81247 -0.541282Q2.76512 -0.568617 2.71374 -0.587315Q2.66236 -0.606014 2.60852 -0.615507Q2.55468 -0.625 2.5 -0.625L0 -0.625C-0.345175 -0.625 -0.625 -0.345175 -0.625 0Z" fill-rule="evenodd" transform="matrix(1 0 0 1 1.875 3.125)" fill="rgb(255, 255, 255)"/>
		<path d="M10.7378 5.625L1.25 5.625C0.904825 5.625 0.625 5.90483 0.625 6.25C0.625 6.59517 0.904825 6.875 1.25 6.875L10.9937 6.875Q11.3286 6.87523 11.588 6.66275Q11.8474 6.45028 11.9132 6.12149L13.0383 0.496401Q13.1254 0.0611721 12.8438 -0.282067Q12.5623 -0.625308 12.1183 -0.625L0 -0.625C-0.345175 -0.625 -0.625 -0.345175 -0.625 0C-0.625 0.345175 -0.345175 0.625 0 0.625L11.7378 0.625L10.7378 5.625Z" fill-rule="evenodd" transform="matrix(1 0 0 1 5 5)" fill="rgb(255, 255, 255)"/>
	</g>
</svg>
