<?xml version="1.0" encoding="utf-8" ?>
<svg xmlns="http://www.w3.org/2000/svg" xmlns:xlink="http://www.w3.org/1999/xlink" width="19.8676" height="19.8676" viewBox="0 0 19.8676 19.8676">
	<defs>
		<clipPath id="clipPath0305676041">
			<path transform="matrix(0.910084 -0.414423 0.414423 0.910084 3.8147e-05 6.21635)" d="M0 0L15 0L15 15L0 15L0 0Z" fill-rule="nonzero"/>
		</clipPath>
	</defs>
	<g clip-path="url(#clipPath0305676041)">
		<defs>
			<clipPath id="clipPath7588075249">
				<path transform="matrix(0.656507 -0.75432 0.75432 0.656507 3.8147e-05 6.21635)" d="M0 0L14.5625 0L14.5625 14.5625L0 14.5625L0 0Z" fill-rule="nonzero"/>
			</clipPath>
		</defs>
		<g clip-path="url(#clipPath7588075249)">
			<path transform="matrix(0.656507 -0.75432 0.75432 0.656507 0.906205 6.12909)" d="M1.604 0.000331736C1.12918 0.00812495 0.722 0.15193 0.431603 0.445682C-0.497382 1.38562 0.122292 3.50679 1.82002 5.18489C2.95749 6.30922 4.42443 6.46551 5.37617 6.79453C4.28995 7.7961 3.07592 8.71707 1.6662 9.61829L3.41808 11.3498C4.36427 9.83107 5.35364 8.52224 6.44452 7.35095C8.33497 8.61806 9.65993 10.9482 10.9269 13.2376L13.3587 10.7773C11.0206 9.51869 8.67765 8.24709 7.40713 6.37765C8.57935 5.26231 9.87365 4.26894 11.3508 3.32453L9.59901 1.5931C8.73237 2.98402 7.83769 4.20084 6.84451 5.30666C6.51162 4.3556 6.32509 2.90399 5.18688 1.77889C4.01964 0.625211 2.64854 -0.0167337 1.604 0.000331736ZM2.08667 1.33894C2.68225 1.35075 3.5341 1.79431 4.28913 2.54063C5.33962 3.57892 5.80525 4.80982 5.32998 5.29064C4.85471 5.77152 3.61792 5.32014 2.56751 4.28185C1.51711 3.24362 1.05051 2.01178 1.52578 1.53093C1.65946 1.39569 1.85358 1.33431 2.08667 1.33894Z" fill-rule="nonzero" fill="rgb(255, 255, 255)"/>
		</g>
	</g>
</svg>
