<?xml version="1.0" encoding="utf-8" ?>
<svg xmlns="http://www.w3.org/2000/svg" xmlns:xlink="http://www.w3.org/1999/xlink" width="18.3899" height="18.3899" viewBox="0 0 18.3899 18.3899">
	<path transform="matrix(1 0 0 1 1.96695e-05 1.95503e-05)" d="M5.22461 0C4.66844 2.09656 6.03207 4.18844 6.23777 6.28172C5.11496 5.65633 3.45316 5.29813 2.77465 4.57641C3.14027 5.73102 4.76898 6.29891 5.78613 7.16672C3.55035 7.2275 1.81594 9.73508 0 10.2527C2.12969 11.4881 4.35262 10.2642 6.54051 11.1853C5.46027 12.5431 4.69348 13.8371 4.27605 15.376C5.08687 14.2485 6.07449 12.9669 7.03738 11.9751C6.5809 14.1134 7.08867 16.2515 8.13719 18.3899C8.64609 16.3205 10.7684 14.5307 11.068 12.2363C11.9534 13.6548 13.154 14.6686 14.3164 16.2964C13.7444 14.293 12.4758 12.8622 11.8078 11.4673C13.853 11.6856 16.3029 12.5876 18.3898 13.1653C17.2244 10.8688 15.869 9.10586 14.1797 8.27633C15.4691 8.30434 16.9476 8.49523 18.2153 8.70238C16.9115 7.95473 15.539 7.5998 13.9184 7.41207C15.833 5.54156 16.6115 3.6709 16.5905 1.80047C14.7143 3.07039 12.837 4.08836 10.9607 4.72039C11.6328 3.60164 12.5552 2.39344 13.3826 1.3818C12.0027 2.18395 10.9682 3.27543 9.93648 4.70578C9.01008 2.87414 6.81176 2.20313 5.22461 0ZM6.61621 2.8491C6.94141 3.88621 8.53051 5.2409 9.1052 6.4282C8.79523 6.51398 8.51191 6.64891 8.26781 6.82129C7.89008 5.51543 6.4509 4.0434 6.61621 2.8491ZM14.9475 4.09543C14.1606 5.44918 13.0958 6.47066 11.7053 7.48293C11.6118 7.19355 11.4286 6.94562 11.1926 6.75781C12.4213 6.07875 13.8087 5.02684 14.9475 4.09543ZM9.87668 7.05691C10.1368 7.06113 10.3704 7.11824 10.5554 7.21199C10.8374 7.35469 10.9998 7.55988 11.0376 7.81496C11.0755 8.07004 10.9771 8.34867 10.7435 8.60355C10.5098 8.8584 10.1448 9.0727 9.7168 9.15895C9.28883 9.2452 8.89281 9.18574 8.61086 9.04293C8.32891 8.90023 8.16656 8.69504 8.12867 8.43996C8.09078 8.18488 8.18922 7.90504 8.42281 7.65012C8.65652 7.39527 9.02156 7.18215 9.44949 7.09598C9.55645 7.07441 9.66137 7.06238 9.76317 7.05809C9.80133 7.05652 9.83953 7.05629 9.87668 7.05691ZM7.39379 8.25074C7.3884 8.3482 7.39246 8.44684 7.40723 8.54617C7.44563 8.80484 7.55363 9.03641 7.70871 9.23211C6.29324 8.93312 4.1166 10.1809 2.82348 9.62887C4.16059 9.59746 5.84562 8.54371 7.39379 8.25074ZM11.593 8.65113C13.29 9.30289 14.6552 10.0528 15.8276 11.2183C14.2825 10.5213 12.3933 9.75738 10.8838 9.44215C11.0309 9.33981 11.1652 9.22504 11.2817 9.09793C11.4058 8.96258 11.5116 8.81168 11.593 8.65113ZM9.9841 9.84617L9.9927 9.84734C9.22832 11.1308 9.30621 13.1191 8.26172 14.9975C8.58828 13.0391 8.38086 11.5526 8.94895 9.9023C9.23801 9.94527 9.5466 9.93758 9.86082 9.87426C9.90262 9.86578 9.94316 9.85629 9.9841 9.84617Z" fill-rule="nonzero" fill="rgb(255, 255, 255)"/>
</svg>
