<?xml version="1.0" encoding="utf-8" ?>
<svg xmlns="http://www.w3.org/2000/svg" xmlns:xlink="http://www.w3.org/1999/xlink" width="18.5059" height="28.8586" viewBox="0 0 18.5059 28.8586">
	<path transform="matrix(0.134948 0.990853 -0.990853 0.134948 18.0141 -0.397096)" d="M3.19423 0.000660624C2.24867 0.0161802 1.4378 0.302555 0.859501 0.88754C-0.990495 2.75934 0.243535 6.98349 3.62441 10.3253C5.88959 12.5643 8.81088 12.8755 10.7062 13.5307C8.54309 15.5253 6.12544 17.3593 3.3181 19.154L6.80682 22.6021C8.69109 19.5778 10.6613 16.9713 12.8337 14.6388C16.5984 17.1621 19.2369 21.8025 21.76 26.3615L26.6027 21.4621C21.9465 18.9557 17.2808 16.4234 14.7507 12.7006C17.0851 10.4795 19.6625 8.50123 22.6042 6.62053L19.1156 3.17254C17.3898 5.94243 15.6081 8.36563 13.6303 10.5678C12.9673 8.67381 12.5959 5.78304 10.3292 3.54251C8.00477 1.24506 5.27435 -0.0333238 3.19423 0.000660624ZM4.15542 2.66639C5.34147 2.6899 7.03786 3.57321 8.54144 5.05946C10.6334 7.12713 11.5607 9.57836 10.6142 10.5359C9.66774 11.4935 7.20478 10.5946 5.11299 8.52694C3.02119 6.45939 2.092 4.00629 3.03847 3.04872C3.30468 2.77939 3.69125 2.65716 4.15542 2.66639Z" fill-rule="nonzero" fill="rgb(255, 255, 255)"/>
</svg>
