<?xml version="1.0" encoding="utf-8" ?>
<svg xmlns="http://www.w3.org/2000/svg" xmlns:xlink="http://www.w3.org/1999/xlink" width="36.4604" height="36.4605" viewBox="0 0 36.4604 36.4605">
	<defs>
		<clipPath id="clipPath3930319796">
			<path transform="matrix(0.465167 0.885223 -0.885223 0.465167 23.901 -9.89437e-06)" d="M0 0L27 0L27 27L0 27L0 0Z" fill-rule="nonzero"/>
		</clipPath>
	</defs>
	<g clip-path="url(#clipPath3930319796)">
		<defs>
			<clipPath id="clipPath5139267062">
				<path transform="matrix(-0.56724 0.823553 -0.823553 -0.56724 23.901 -9.89437e-06)" d="M0 0L27 0L27 27L0 27L0 0Z" fill-rule="nonzero"/>
			</clipPath>
		</defs>
		<g clip-path="url(#clipPath5139267062)">
			<path transform="matrix(-0.56724 0.823553 -0.823553 -0.56724 22.2498 0.350237)" d="M2.97394 0.000615064C2.09359 0.0150643 1.33864 0.281689 0.800225 0.82633C-0.922185 2.56904 0.226739 6.50187 3.37445 9.61319C5.48341 11.6978 8.20323 11.9876 9.96783 12.5976C7.95391 14.4546 5.70299 16.1621 3.08927 17.8331L6.33739 21.0433C8.0917 18.2276 9.92607 15.8009 11.9486 13.6292C15.4537 15.9785 17.9103 20.2989 20.2593 24.5435L24.7681 19.982C20.433 17.6484 16.089 15.2907 13.7334 11.8247C15.9068 9.75673 18.3065 7.91494 21.0453 6.16394L17.7973 2.95374C16.1905 5.53261 14.5317 7.78869 12.6902 9.83895C12.073 8.07562 11.7272 5.38421 9.61689 3.2982C7.45272 1.15919 4.91061 -0.0310256 2.97394 0.000615064ZM3.86884 2.48251C4.9731 2.50439 6.55249 3.32678 7.95238 4.71053C9.90007 6.6356 10.7634 8.91779 9.88219 9.80926C9.001 10.7008 6.7079 9.86395 4.76037 7.93888C2.81283 6.01392 1.94773 3.72999 2.82892 2.83846C3.07677 2.58771 3.43668 2.47391 3.86884 2.48251Z" fill-rule="nonzero" fill="rgb(255, 255, 255)"/>
		</g>
	</g>
</svg>
