<?xml version="1.0" encoding="utf-8" ?>
<svg xmlns="http://www.w3.org/2000/svg" xmlns:xlink="http://www.w3.org/1999/xlink" width="19.4556" height="19.4556" viewBox="0 0 19.4556 19.4556">
	<path transform="matrix(1 0 0 1 0 0)" d="M19.1573 17.5027L14.7469 13.0922C15.2778 12.3854 15.683 11.6127 15.9624 10.774C16.2418 9.93532 16.381 9.07399 16.38 8.19C16.38 3.67406 12.7059 0 8.19 0C3.67406 0 0 3.67406 0 8.19C0 12.7059 3.67406 16.38 8.19 16.38C9.07399 16.381 9.93532 16.2418 10.774 15.9624C11.6127 15.683 12.3854 15.2778 13.0922 14.7469L17.5027 19.1573C17.7344 19.3645 18.0057 19.4638 18.3164 19.4551C18.6272 19.4464 18.8925 19.3321 19.1123 19.1123C19.3321 18.8925 19.4464 18.6272 19.4551 18.3164C19.4638 18.0057 19.3645 17.7344 19.1573 17.5027ZM2.34 8.19C2.34 6.57457 2.91114 5.19571 4.05342 4.05342C5.19571 2.91114 6.57457 2.34 8.19 2.34C9.80543 2.34 11.1843 2.91114 12.3266 4.05342C13.4689 5.19571 14.04 6.57457 14.04 8.19C14.04 9.80543 13.4689 11.1843 12.3266 12.3266C11.1843 13.4689 9.80543 14.04 8.19 14.04C6.57537 14.0381 5.1972 13.4662 4.05548 12.3245C2.91376 11.1828 2.34194 9.80463 2.34 8.19Z" fill-rule="nonzero" fill="rgb(43, 88, 147)"/>
</svg>
