<?xml version="1.0" encoding="utf-8" ?>
<svg xmlns="http://www.w3.org/2000/svg" xmlns:xlink="http://www.w3.org/1999/xlink" width="23.804" height="16.3442" viewBox="0 0 23.804 16.3442">
	<path transform="matrix(0.734441 -0.678672 0.678672 0.734441 -0.892155 7.66879)" d="M2.31306 0.000478383C1.62835 0.0117167 1.04117 0.219092 0.622397 0.642701C-0.717255 1.99814 0.176353 5.05701 2.62458 7.47693C4.26487 9.09828 6.38029 9.32366 7.75276 9.79813C6.18637 11.2425 4.43566 12.5705 2.40276 13.8702L4.92908 16.367C6.29355 14.177 7.72027 12.2896 9.29339 10.6005C12.0195 12.4278 13.9302 15.788 15.7572 19.0894L19.264 15.5415C15.8923 13.7265 12.5137 11.8928 10.6815 9.19696C12.3719 7.58857 14.2384 6.15606 16.3686 4.79418L13.8424 2.29735C12.5926 4.30314 11.3024 6.05787 9.87019 7.65252C9.39015 6.28104 9.12116 4.18772 7.4798 2.56527C5.79656 0.901592 3.81936 -0.024131 2.31306 0.000478383ZM3.0091 1.93084C3.86796 1.94786 5.09638 2.5875 6.18518 3.66375C7.70005 5.16102 8.37152 6.93606 7.68615 7.62943C7.00078 8.32288 5.21726 7.67196 3.70251 6.17468C2.18776 4.67749 1.5149 2.9011 2.20027 2.20769C2.39304 2.01266 2.67297 1.92415 3.0091 1.93084Z" fill-rule="nonzero" fill="rgb(255, 255, 255)"/>
</svg>
