<?xml version="1.0" encoding="utf-8" ?>
<svg xmlns="http://www.w3.org/2000/svg" xmlns:xlink="http://www.w3.org/1999/xlink" width="36.7797" height="36.7798" viewBox="0 0 36.7797 36.7798">
	<path transform="matrix(1 0 0 1 3.93391e-05 8.58307e-06)" d="M10.4492 0C9.33687 4.19313 12.0641 8.37687 12.4755 12.5634C10.2299 11.3127 6.90633 10.5963 5.5493 9.15281C6.28055 11.462 9.53797 12.5978 11.5723 14.3334C7.1007 14.455 3.63188 19.4702 0 20.5053C4.25938 22.9762 8.70523 20.5284 13.081 22.3705C10.9205 25.0862 9.38695 27.6743 8.55211 30.752C10.1737 28.497 12.149 25.9338 14.0748 23.9502C13.1618 28.2269 14.1773 32.503 16.2744 36.7798C17.2922 32.641 21.5369 29.0614 22.1361 24.4726C23.9068 27.3095 26.308 29.3371 28.6328 32.5927C27.4887 28.5859 24.9516 25.7245 23.6156 22.9345C27.7061 23.3713 32.6059 25.1752 36.7797 26.3306C34.4488 21.7377 31.738 18.2117 28.3594 16.5527C30.9383 16.6087 33.8952 16.9905 36.4306 17.4048C33.823 15.9095 31.078 15.1996 27.8369 14.8241C31.666 11.0831 33.223 7.3418 33.1811 3.60094C29.4285 6.14078 25.6741 8.17672 21.9214 9.44078C23.2656 7.20328 25.1105 4.78688 26.7652 2.76359C24.0053 4.36789 21.9365 6.55086 19.873 9.41156C18.0202 5.74828 13.6235 4.40625 10.4492 0ZM13.2324 5.6982C13.8828 7.77242 17.061 10.4818 18.2104 12.8564C17.5905 13.028 17.0238 13.2978 16.5356 13.6426C15.7802 11.0309 12.9018 8.0868 13.2324 5.6982ZM29.8949 8.19086C28.3212 10.8984 26.1916 12.9413 23.4105 14.9659C23.2235 14.3871 22.8572 13.8912 22.3852 13.5156C24.8426 12.1575 27.6174 10.0537 29.8949 8.19086ZM19.7534 14.1138C20.2737 14.1223 20.7407 14.2365 21.1108 14.424C21.6748 14.7094 21.9995 15.1198 22.0752 15.6299C22.151 16.1401 21.9541 16.6973 21.487 17.2071C21.0195 17.7168 20.2896 18.1454 19.4336 18.3179C18.5777 18.4904 17.7856 18.3715 17.2217 18.0859C16.6578 17.8005 16.3331 17.3901 16.2573 16.8799C16.1816 16.3698 16.3784 15.8101 16.8456 15.3002C17.313 14.7905 18.0431 14.3643 18.899 14.192C19.1129 14.1488 19.3227 14.1248 19.5263 14.1162C19.6027 14.113 19.6791 14.1126 19.7534 14.1138ZM14.7876 16.5015C14.7768 16.6964 14.7849 16.8937 14.8145 17.0923C14.8913 17.6097 15.1073 18.0728 15.4174 18.4642C12.5865 17.8662 8.2332 20.3619 5.64695 19.2577C8.32117 19.1949 11.6912 17.0874 14.7876 16.5015ZM23.186 17.3023C26.5801 18.6058 29.3105 20.1056 31.6552 22.4366C28.5649 21.0426 24.7866 19.5148 21.7675 18.8843C22.0619 18.6796 22.3303 18.4501 22.5634 18.1959C22.8116 17.9252 23.0231 17.6234 23.186 17.3023ZM19.9682 19.6923L19.9854 19.6947C18.4566 22.2616 18.6124 26.2382 16.5234 29.9951C17.1766 26.0783 16.7617 23.1052 17.8979 19.8046C18.476 19.8905 19.0932 19.8752 19.7216 19.7485C19.8052 19.7316 19.8863 19.7126 19.9682 19.6923Z" fill-rule="nonzero" fill="rgb(135, 100, 33)"/>
</svg>
