<?xml version="1.0" encoding="utf-8" ?>
<svg xmlns="http://www.w3.org/2000/svg" xmlns:xlink="http://www.w3.org/1999/xlink" width="18.3467" height="18.1804" viewBox="0 0 18.3467 18.1804">
	<path transform="matrix(1 0 0 1 -3.49283e-05 -1.60933e-05)" d="M2.20292 0.000455603C1.55081 0.0111587 0.991588 0.208659 0.59276 0.612096C-0.6831 1.90299 0.167955 4.8162 2.4996 7.12089C4.06178 8.66503 6.07647 8.87967 7.38358 9.33155C5.89178 10.7071 4.22444 11.9719 2.28835 13.2097L4.69436 15.5876C5.99385 13.5019 7.35264 11.7044 8.85085 10.0957C11.4472 11.836 13.2669 15.0362 15.0069 18.1804L18.3467 14.8015C15.1355 13.0729 11.9178 11.3265 10.1729 8.75901C11.7828 7.22721 13.5604 5.86292 15.5891 4.56588L13.1832 2.18796C11.993 4.09823 10.7642 5.7694 9.40018 7.28811C8.94299 5.98194 8.68682 3.98831 7.12362 2.44311C5.52053 0.858659 3.63749 -0.0229819 2.20292 0.000455603ZM2.86581 1.83889C3.68378 1.8551 4.8537 2.46428 5.89065 3.48928C7.33338 4.91526 7.97288 6.60577 7.32014 7.26612C6.66741 7.92655 4.96881 7.30663 3.5262 5.88065C2.08358 4.45475 1.44276 2.76296 2.09549 2.10257C2.27909 1.91682 2.54569 1.83253 2.86581 1.83889Z" fill-rule="nonzero" fill="rgb(255, 255, 255)"/>
</svg>
