<?xml version="1.0" encoding="utf-8" ?>
<svg xmlns="http://www.w3.org/2000/svg" xmlns:xlink="http://www.w3.org/1999/xlink" width="18.7471" height="13.75" viewBox="0 0 18.7471 13.75">
	<path transform="matrix(1 0 0 1 7.39694e-05 -4.76837e-07)" d="M18.5804 7.00234C18.4999 6.86087 18.3951 6.74048 18.2661 6.64118C18.1372 6.54187 17.994 6.47137 17.8366 6.42969C17.5541 6.35697 17.2676 6.30608 16.9772 6.277C16.6869 6.24793 16.396 6.24101 16.1046 6.25625C16.4171 4.70547 16.1827 3.47891 15.9484 2.75156C15.8493 2.44209 15.6592 2.20598 15.378 2.04323C15.0967 1.88047 14.7973 1.83325 14.4796 1.90156C14.0821 1.99009 13.696 2.11392 13.3211 2.27305C12.9462 2.43218 12.5889 2.62398 12.2491 2.84844C12.0003 2.34009 11.697 1.86659 11.3394 1.42794C10.9817 0.989278 10.579 0.596893 10.1312 0.250781C9.90826 0.0835937 9.65748 0 9.37883 0C9.10019 0 8.8494 0.0835937 8.62649 0.250781C8.17796 0.596673 7.77453 0.988953 7.41621 1.42762C7.05789 1.86629 6.75402 2.33989 6.50461 2.84844C6.16483 2.62398 5.80751 2.43218 5.43266 2.27305C5.05781 2.11392 4.67164 1.99009 4.27414 1.90156C3.95652 1.8329 3.65709 1.87998 3.37587 2.04282C3.09464 2.20566 2.90474 2.44191 2.80618 2.75156C2.5718 3.47891 2.33743 4.70469 2.64524 6.25625C2.35384 6.24101 2.06296 6.24793 1.77262 6.277C1.48227 6.30608 1.1958 6.35697 0.913207 6.42969C0.755854 6.47137 0.612688 6.54187 0.483709 6.64118C0.35473 6.74049 0.249979 6.86088 0.169457 7.00234C0.0852946 7.14716 0.032376 7.3026 0.010701 7.46869C-0.0109739 7.63477 0.000278056 7.7986 0.0444569 7.96016C0.309301 8.94297 1.12258 10.8109 3.58586 12.2828C6.04914 13.7547 8.21321 13.75 9.37883 13.75C10.5445 13.75 12.7124 13.75 15.1601 12.2828C17.6234 10.8109 18.4366 8.94297 18.7015 7.96016C18.7463 7.79885 18.7581 7.63517 18.7371 7.46909C18.7162 7.30301 18.6639 7.14743 18.5804 7.00234ZM4.22649 11.2102C2.14602 9.96641 1.47024 8.44141 1.24993 7.63281C1.53733 7.56185 1.82884 7.51868 2.12447 7.50331C2.42011 7.48793 2.71453 7.50063 3.00774 7.54141C3.10563 7.80362 3.21425 8.06132 3.33359 8.31449C3.45294 8.56766 3.5826 8.81544 3.72258 9.05781C4.06628 9.65036 4.46137 10.2064 4.90786 10.7259C5.35435 11.2454 5.84468 11.7196 6.37883 12.1484C6.00112 12.0398 5.63213 11.907 5.27186 11.75C4.91158 11.5929 4.56313 11.413 4.22649 11.2102ZM9.37493 12.375C8.64602 11.8328 6.87493 10.1695 6.87493 6.81016C6.87493 3.49219 8.62336 1.81563 9.37493 1.25C10.1265 1.81719 11.8749 3.49375 11.8749 6.81172C11.8749 10.1695 10.1038 11.8328 9.37493 12.375ZM17.4999 7.63438C17.2835 8.43438 16.6093 9.96328 14.5241 11.2102C14.1875 11.4128 13.839 11.5926 13.4787 11.7496C13.1185 11.9065 12.7495 12.0392 12.3718 12.1477C12.906 11.7188 13.3963 11.2446 13.8428 10.7251C14.2893 10.2056 14.6844 9.64958 15.0281 9.05703C15.168 8.81466 15.2977 8.56688 15.417 8.31371C15.5364 8.06054 15.645 7.80284 15.7429 7.54063C16.036 7.50023 16.3303 7.48786 16.6258 7.50349C16.9213 7.51913 17.2127 7.56328 17.4999 7.63438Z" fill-rule="nonzero" fill="rgb(255, 255, 255)"/>
</svg>
