<?xml version="1.0" encoding="utf-8" ?>
<svg xmlns="http://www.w3.org/2000/svg" xmlns:xlink="http://www.w3.org/1999/xlink" width="12.7656" height="18.1448" viewBox="0 0 12.7656 18.1448">
	<path transform="matrix(1 0 0 1 2.38419e-07 3.8147e-06)" d="M7.4375 0.000478402C4.3125 0.0375878 2.42969 1.62509 1.40625 4.00204C0.382813 6.37314 0.128906 9.51376 0.0128907 12.8653L0 13.2325C0.410156 13.2247 0.824219 13.213 1.23438 13.2052C1.69531 14.4864 2.33594 15.7052 3.23438 16.6036C4.20703 17.5724 5.46875 18.1856 7.22266 18.1427C8.95703 18.0997 10.1094 17.4825 10.9805 16.5138C11.7852 15.6192 12.3281 14.3966 12.7656 13.0684C12.543 12.9825 12.3125 12.9044 12.0898 12.8302C11.5586 14.502 10.8164 15.7091 9.90625 16.4903C8.9375 17.3224 7.77735 17.6388 6.6836 17.4942C4.61328 17.2286 2.79297 15.5177 1.875 13.1934L3.39063 13.1583C4.21094 14.8302 5.59375 15.9395 6.85938 16.1036C7.59766 16.2013 8.30078 16.0216 8.99219 15.4278C9.63672 14.8731 10.2695 13.92 10.7383 12.4434C10.5547 12.4005 10.375 12.3614 10.1875 12.3224C9.66016 13.3497 9.16016 14.0841 8.64063 14.5841C8.09375 15.1075 7.4961 15.3653 6.89844 15.3028C6.30078 15.2442 5.76172 14.9005 5.23828 14.377C4.90625 14.0372 4.57422 13.6231 4.23438 13.1388C4.51172 13.1388 4.8086 13.127 5.07422 13.1114C5.30078 13.4083 5.52344 13.67 5.73828 13.8849C6.19141 14.338 6.60547 14.5724 6.96875 14.6075C7.33203 14.6466 7.70313 14.5138 8.15625 14.0763C8.5586 13.6934 8.9961 13.0763 9.46485 12.2052C9.31641 12.1817 9.16406 12.1622 9.01172 12.1466C8.60938 12.7442 8.13672 13.4317 7.54688 13.7559C7.20703 13.9395 6.82422 13.8927 6.53516 13.7442C6.17188 13.5372 5.92969 13.2638 5.69141 12.9825C5.91797 12.9044 6.12891 12.7911 6.3125 12.6388C6.54688 12.8692 6.89063 13.3067 7.21094 13.1388C7.53516 12.9669 8.05078 12.3184 8.44922 11.7286C8.75781 11.3731 8.9375 10.7911 9.32813 10.5606C9.92188 10.3927 10.7773 11.0099 11.1602 10.5138C11.2891 10.338 11.3789 10.1622 11.4414 9.98641L10.8242 9.96688L10.4805 9.25204L11.5625 9.2911C11.5547 8.83407 11.4805 8.49423 11.4023 8.04501C11.7422 8.10751 12.125 8.14657 12.4258 8.07235C12.2656 7.69345 12.0547 7.31063 11.7305 6.98251C10.1211 7.18954 8.70704 7.00204 7.84766 5.71688C9.11719 5.18173 10.6289 5.02157 11.4102 5.59188C11.4141 5.3497 11.4063 5.10751 11.3633 4.86923C11.6406 4.88095 11.8672 4.90048 12.1523 4.92001L12.1602 4.54891C12.1875 3.58407 11.9023 2.45126 11.1563 1.54227C10.4102 0.633289 9.17969 -0.0202267 7.4375 0.000478402ZM7.44922 0.664541L7.59375 0.664541C9.08984 0.680557 10.0312 1.22509 10.6328 1.95673C11.1641 2.60282 11.4219 3.4161 11.4727 4.14657C10.3047 4.09579 9.40234 4.26376 8.70312 4.60751C7.93359 4.98642 7.42969 5.58017 7.12109 6.24423C6.50781 7.56845 6.60156 9.15829 6.51562 10.2442C6.44531 11.1622 6.25 11.6934 5.99219 11.9903C5.73438 12.2872 5.38672 12.4122 4.82031 12.4434L0.703125 12.5333C0.828125 9.33407 1.11328 6.38485 2.03125 4.25595C2.98828 2.04306 4.53516 0.699307 7.44922 0.664541ZM10.1211 5.86923C9.79297 5.88876 9.49609 5.93954 9.21875 6.01376C9.45312 6.15829 9.71484 6.26767 9.98047 6.34188C9.93359 6.17001 10.0078 5.96688 10.1211 5.86923ZM10.7852 6.02157C10.8477 6.1622 10.832 6.31845 10.7656 6.44345C10.918 6.43954 11.0703 6.42782 11.2109 6.39657C11.1094 6.23251 10.9375 6.11142 10.7852 6.02157Z" fill-rule="nonzero" fill="rgb(255, 255, 255)"/>
</svg>
