<?xml version="1.0" encoding="utf-8" ?>
<svg xmlns="http://www.w3.org/2000/svg" xmlns:xlink="http://www.w3.org/1999/xlink" width="17.1445" height="17.7121" viewBox="0 0 17.1445 17.7121">
	<path transform="matrix(1 0 0 1 0 4.88758e-05)" d="M10.2656 0L8.04688 1.32031L8.35156 1.83477L9.72656 1.01641L9.32812 3.57148L9.57422 3.98555L11.875 2.61562L11.5703 2.10117L10.1133 2.96602L10.5078 0.412109L10.2656 0ZM4.49609 1.32734C3.11026 2.09832 2.01498 3.16706 1.21025 4.53357C0.405519 5.90008 0.00210166 7.37626 0 8.96211C0 11.3784 0.854272 13.4407 2.56282 15.1493C4.27136 16.8578 6.33375 17.7121 8.75 17.7121C10.693 17.7111 12.4417 17.1276 13.996 15.9617C15.5503 14.7958 16.5998 13.2803 17.1445 11.4152C16.3786 12.2264 15.4836 12.8532 14.4595 13.2957C13.4354 13.7382 12.3656 13.9603 11.25 13.9621C9.00634 13.9621 7.09126 13.1689 5.50476 11.5824C3.91825 9.99585 3.125 8.08077 3.125 5.83711C3.12568 5.03425 3.24279 4.24876 3.47633 3.48062C3.70987 2.71248 4.04979 1.99472 4.49609 1.32734ZM14.0469 3.36055L13.7773 4.00508L15.5 4.72383L12.832 6.12617L12.6172 6.6418L15.4961 7.84492L15.7656 7.20039L13.9414 6.43867L16.6094 5.03633L16.8242 4.5207L14.0469 3.36055ZM9.55469 5.86055L5.73438 7.22773L6.05078 8.11445L8.41797 7.2668L7.03516 11.091L7.28906 11.798L11.25 10.384L10.9336 9.49726L8.42578 10.3957L9.80859 6.57148L9.55469 5.86055Z" fill-rule="nonzero" fill="rgb(255, 255, 255)"/>
</svg>
