<?xml version="1.0" encoding="utf-8" ?>
<svg xmlns="http://www.w3.org/2000/svg" xmlns:xlink="http://www.w3.org/1999/xlink" width="17.4043" height="12.4488" viewBox="0 0 17.4043 12.4488">
	<path transform="matrix(1 0 0 1 0.000109196 -9.53674e-06)" d="M5.26772 6.04987e-05C3.27475 0.00599802 1.34225 1.07143 0.155418 2.00569C0.0676191 2.07359 0.0169329 2.16262 0.00335947 2.27278C-0.0102141 2.38295 0.0173437 2.48162 0.0860327 2.56881C0.154722 2.65599 0.244205 2.70588 0.354484 2.71847C0.464762 2.73105 0.563185 2.70261 0.649754 2.63315C1.9246 1.62963 4.22827 0.48178 6.18198 0.887522C6.94081 1.0451 8.7235 1.69447 10.7486 2.22541C12.7738 2.75635 15.0752 3.18213 17.067 2.86752C17.1759 2.85022 17.2628 2.79693 17.3276 2.70763C17.3923 2.61834 17.416 2.51923 17.3987 2.41029C17.3813 2.30136 17.3279 2.21453 17.2386 2.14982C17.1493 2.08511 17.0501 2.06148 16.9412 2.07893C15.1571 2.36076 12.9314 1.97307 10.9513 1.45393C8.97104 0.934787 7.27018 0.298576 6.34433 0.106272C6.0505 0.045256 5.75487 0.0118965 5.46054 0.00252157C5.3962 0.000412166 5.33202 -0.000212789 5.26772 6.04987e-05ZM4.85389 3.49865C3.90889 3.49029 2.99706 3.71487 2.18905 4.34826C1.97577 4.51545 1.51229 4.93405 1.05995 5.40658C0.833777 5.64283 0.615926 5.88783 0.442254 6.12065C0.268621 6.35354 0.116277 6.53823 0.0906916 6.8519C0.0794417 6.99026 0.126395 7.21088 0.290926 7.33284C0.455379 7.45471 0.611395 7.44151 0.718153 7.42682C0.931668 7.39752 1.0912 7.31823 1.26503 7.24498C1.43886 7.1717 1.61249 7.09991 1.72518 7.07037C1.7619 7.06084 1.77218 7.06123 1.7887 7.05944C2.28155 7.51131 2.85917 7.77838 3.4721 7.90416C3.52593 8.27006 3.54991 8.54076 3.55757 8.73424C3.5012 8.68553 3.43319 8.63151 3.23893 8.63291C3.11573 8.63385 2.94089 8.72471 2.86901 8.83311C2.79729 8.94159 2.78854 9.02787 2.78362 9.10049C2.75929 9.45811 2.88862 9.72588 2.9814 9.91838C3.07413 10.1108 3.16038 10.2914 3.20718 10.7374C3.25886 11.2292 3.25796 11.1969 3.25725 11.2417C3.25659 11.2864 3.25386 11.4148 3.29878 12.0766C3.30637 12.1867 3.35176 12.2779 3.43494 12.3504C3.51813 12.4229 3.61476 12.4553 3.72481 12.4477C3.83487 12.4401 3.92613 12.3947 3.99859 12.3115C4.07104 12.2283 4.10348 12.1317 4.09589 12.0217C4.05147 11.3669 4.05354 11.3105 4.05436 11.2538C4.05526 11.1972 4.05233 11.1462 4.00069 10.6545C3.95636 10.232 3.86007 9.93873 3.7712 9.7292C3.8912 9.72815 4.02557 9.69756 4.12647 9.6083C4.28765 9.46572 4.3246 9.29943 4.34741 9.12979C4.38272 8.86779 4.3671 8.52979 4.29741 8.0226C5.91038 9.52166 6.93679 10.4669 7.91186 11.0952C8.91186 11.7393 9.85972 12.0301 11.2115 12.2085C12.1903 12.3376 13.4931 12.4017 14.6514 12.1816C15.2306 12.0715 15.7769 11.8906 16.2286 11.5859C16.6801 11.2811 17.0344 10.832 17.1575 10.2578C17.293 9.62541 16.9087 9.06479 16.4446 8.67815C15.9805 8.29158 15.3862 8.02006 14.7857 8.14592C14.3125 8.24514 13.98 8.59748 13.7517 8.9992C13.6376 9.20014 13.5532 9.42178 13.5541 9.67186C13.5548 9.92194 13.6822 10.2127 13.9239 10.375C14.0154 10.4365 14.1153 10.4567 14.2235 10.4354C14.3317 10.4142 14.4166 10.3579 14.4781 10.2663C14.5396 10.1748 14.5598 10.0749 14.5386 9.96671C14.5173 9.85849 14.461 9.77361 14.3694 9.71209C14.3394 9.69197 14.3525 9.71826 14.3523 9.66944C14.3522 9.62061 14.3793 9.50951 14.4451 9.39354C14.5769 9.16162 14.8775 8.94225 14.9493 8.92721C15.1672 8.88151 15.6092 9.02018 15.9344 9.291C16.2596 9.56186 16.4172 9.90526 16.3775 10.0906C16.3001 10.4521 16.1032 10.7074 15.7818 10.9243C15.4604 11.1412 15.0119 11.3011 14.5025 11.3979C13.4837 11.5915 12.2341 11.5387 11.3153 11.4174C10.023 11.2469 9.24784 11.0061 8.34409 10.4238C7.56128 9.91951 6.67815 9.13826 5.3619 7.92135C5.78409 7.86119 6.21151 7.76772 6.64003 7.65404C8.41542 7.18303 10.2326 6.36733 11.64 6.05736C13.434 6.39162 15.2437 6.39174 17.0525 5.92065C17.15 5.89609 17.2271 5.84239 17.284 5.75955C17.3409 5.67671 17.3633 5.58541 17.3512 5.48565C17.3392 5.38588 17.2956 5.30257 17.2206 5.23569C17.1456 5.16881 17.0579 5.13507 16.9574 5.13447C16.9394 5.13432 16.9216 5.13536 16.9038 5.13761C16.886 5.13986 16.8684 5.14329 16.8511 5.14791C15.0613 5.61412 13.2733 5.58815 11.4654 5.20893C11.4437 5.20446 11.4218 5.20182 11.3997 5.201C11.3776 5.20018 11.3555 5.2012 11.3336 5.20404C9.93983 4.86393 8.40097 4.19916 6.88288 3.80268C6.27058 3.64276 5.65073 3.5283 5.04331 3.50361C4.98003 3.50104 4.91714 3.49932 4.85389 3.49865ZM4.90761 4.29201C4.94882 4.29303 4.9905 4.29373 5.03214 4.29572C5.55292 4.32084 6.10382 4.42444 6.68128 4.57526C7.77362 4.86057 8.9264 5.31393 10.0761 5.67514C8.89085 6.06326 7.63323 6.56451 6.43475 6.88244C6.1078 6.96916 5.78616 7.0417 5.47401 7.09483C5.91792 6.82459 6.21866 6.34768 6.21866 5.79971C6.21866 5.04123 5.64366 4.41787 4.90761 4.29201ZM4.16784 4.33721C3.52675 4.53002 3.05093 5.10881 3.05093 5.79963C3.05093 6.40119 3.41186 6.91729 3.92866 7.16799C3.28979 7.09729 2.74429 6.87865 2.27698 6.42709C2.15198 6.30623 1.98909 6.26244 1.86198 6.25619C1.73491 6.24994 1.6271 6.27065 1.52386 6.29768C1.43038 6.32209 1.34093 6.35354 1.25409 6.38674C1.37018 6.24834 1.49796 6.10518 1.63737 5.95955C2.06175 5.51619 2.55089 5.07986 2.68229 4.97686C3.13932 4.61865 3.63542 4.4201 4.16784 4.33721Z" fill-rule="nonzero" fill="rgb(255, 255, 255)"/>
</svg>
