<?xml version="1.0" encoding="utf-8" ?>
<svg xmlns="http://www.w3.org/2000/svg" xmlns:xlink="http://www.w3.org/1999/xlink" width="16.7969" height="18" viewBox="0 0 16.7969 18">
	<path transform="matrix(1 0 0 1 0 0)" d="M8.39844 0L0.429688 4.25L16.3672 4.25L8.39844 0ZM1.25 4.95312L1.25 5.5L15.5469 5.5L15.5469 4.95312L1.25 4.95312ZM1.875 6.20312L1.875 14.25L3.04688 14.25L3.04688 6.20312L1.875 6.20312ZM5.83336 6.20312L5.83336 14.25L7.00523 14.25L7.00523 6.20312L5.83336 6.20312ZM9.79164 6.20312L9.79164 14.25L10.9635 14.25L10.9635 6.20312L9.79164 6.20312ZM13.75 6.20312L13.75 14.25L14.9219 14.25L14.9219 6.20312L13.75 6.20312ZM1.25 14.9531L1.25 16.125L15.5469 16.125L15.5469 14.9531L1.25 14.9531ZM0 16.8281L0 18L16.7969 18L16.7969 16.8281L0 16.8281Z" fill-rule="nonzero" fill="rgb(255, 255, 255)"/>
</svg>
