<?xml version="1.0" encoding="utf-8" ?>
<svg xmlns="http://www.w3.org/2000/svg" xmlns:xlink="http://www.w3.org/1999/xlink" width="120" height="120" viewBox="0 0 120 120">
	<defs>
		<clipPath id="clipPath0407740527">
			<path d="M0 0L120 0L120 120L0 120L0 0Z" fill-rule="nonzero" transform="matrix(1 0 0 1 -0 -0)"/>
		</clipPath>
	</defs>
	<g clip-path="url(#clipPath0407740527)">
		<path d="M3.75 -3.75Q5.27338 -3.75 6.67049 -3.15907Q8.01709 -2.58951 9.0533 -1.5533Q10.0895 -0.517095 10.6591 0.829511Q11.25 2.22662 11.25 3.75Q11.25 5.27338 10.6591 6.67049Q10.0895 8.0171 9.0533 9.0533Q8.0171 10.0895 6.67049 10.6591Q5.27338 11.25 3.75 11.25Q2.22662 11.25 0.829511 10.6591Q-0.517095 10.0895 -1.5533 9.0533Q-2.58951 8.01709 -3.15907 6.67049Q-3.75 5.27338 -3.75 3.75Q-3.75 2.22662 -3.15907 0.829511Q-2.58951 -0.517094 -1.5533 -1.5533Q-0.517094 -2.58951 0.829511 -3.15907Q2.22662 -3.75 3.75 -3.75ZM3.75 3.75L3.75 3.75L3.75 3.75L3.75 3.75L3.75 3.75Z" fill-rule="nonzero" transform="matrix(1 0 0 1 37.5 93.75)" fill="rgb(182, 91, 79)"/>
		<path d="M3.75 -3.75Q5.27338 -3.75 6.67049 -3.15907Q8.01709 -2.58951 9.0533 -1.5533Q10.0895 -0.517095 10.6591 0.829511Q11.25 2.22662 11.25 3.75Q11.25 5.27338 10.6591 6.67049Q10.0895 8.0171 9.0533 9.0533Q8.0171 10.0895 6.67049 10.6591Q5.27338 11.25 3.75 11.25Q2.22662 11.25 0.829511 10.6591Q-0.517095 10.0895 -1.5533 9.0533Q-2.58951 8.01709 -3.15907 6.67049Q-3.75 5.27338 -3.75 3.75Q-3.75 2.22662 -3.15907 0.829511Q-2.58951 -0.517094 -1.5533 -1.5533Q-0.517094 -2.58951 0.829511 -3.15907Q2.22662 -3.75 3.75 -3.75ZM3.75 3.75L3.75 3.75L3.75 3.75L3.75 3.75L3.75 3.75Z" fill-rule="nonzero" transform="matrix(1 0 0 1 90 93.75)" fill="rgb(182, 91, 79)"/>
		<path d="M-3.75 0C-3.75 2.07105 -2.07105 3.75 0 3.75L11.8538 3.75L22.5571 64.4017Q22.5855 64.5629 22.6279 64.721Q22.6703 64.8792 22.7263 65.033Q22.7823 65.1868 22.8515 65.3352Q22.9207 65.4836 23.0026 65.6253Q23.0845 65.7671 23.1784 65.9012Q23.2723 66.0353 23.3775 66.1607Q23.4828 66.2861 23.5986 66.4019Q23.7143 66.5176 23.8397 66.6228Q23.9652 66.7281 24.0993 66.8219Q24.2334 66.9158 24.3752 66.9977Q24.517 67.0795 24.6653 67.1487Q24.8137 67.2179 24.9675 67.2739Q25.1214 67.3299 25.2795 67.3723Q25.4377 67.4146 25.5989 67.443Q25.7601 67.4715 25.9232 67.4857Q26.0863 67.5 26.25 67.5L86.25 67.5C88.3211 67.5 90 65.8211 90 63.75C90 61.679 88.3211 60 86.25 60L29.3962 60L18.6929 -0.651695Q18.6645 -0.812916 18.6221 -0.971044Q18.5797 -1.12917 18.5237 -1.283Q18.4677 -1.43684 18.3985 -1.5852Q18.3293 -1.73357 18.2474 -1.87534Q18.1655 -2.01711 18.0716 -2.15121Q17.9777 -2.2853 17.8725 -2.4107Q17.7672 -2.5361 17.6514 -2.65186Q17.5357 -2.76761 17.4103 -2.87283Q17.2848 -2.97806 17.1507 -3.07195Q17.0166 -3.16584 16.8748 -3.24769Q16.733 -3.32954 16.5847 -3.39872Q16.4363 -3.4679 16.2825 -3.52389Q16.1286 -3.57988 15.9705 -3.62225Q15.8123 -3.66461 15.6511 -3.69304Q15.4899 -3.72147 15.3268 -3.73573Q15.1637 -3.75 15 -3.75L0 -3.75C-2.07105 -3.75 -3.75 -2.07105 -3.75 0Z" fill-rule="evenodd" transform="matrix(1 0 0 1 11.25 18.75)" fill="rgb(182, 91, 79)"/>
		<path d="M64.4267 33.75L7.5 33.75C5.42895 33.75 3.75 35.429 3.75 37.5C3.75 39.571 5.42895 41.25 7.5 41.25L65.9625 41.25Q66.9457 41.2507 67.8556 40.9259Q68.7656 40.6012 69.5282 39.9765Q70.2908 39.3519 70.7884 38.5237Q71.2859 37.6955 71.4794 36.7289L78.2295 2.97841Q78.482 1.71698 78.1805 0.509792Q77.879 -0.697384 77.0629 -1.69239Q76.2467 -2.68744 75.1217 -3.21917Q73.9968 -3.75089 72.7099 -3.75L0 -3.75C-2.07105 -3.75 -3.75 -2.07105 -3.75 0C-3.75 2.07105 -2.07105 3.75 0 3.75L70.4267 3.75L64.4267 33.75Z" fill-rule="evenodd" transform="matrix(1 0 0 1 30 30)" fill="rgb(182, 91, 79)"/>
	</g>
</svg>
