<svg width="18" height="12" viewBox="0 0 18 12" fill="none" xmlns="http://www.w3.org/2000/svg">
<path d="M17.8356 5.34981C16.0978 2.05323 12.7162 0 8.99413 0C5.28375 0 1.90215 2.05323 0.164384 5.34981C0.0704501 5.53232 0 5.79468 0 6C0 6.20532 0.0704501 6.46768 0.164384 6.65019C1.90215 9.94677 5.2955 12 9.00587 12C12.7162 12 16.1096 9.94677 17.8474 6.65019C17.9413 6.46768 18.0117 6.20532 18.0117 6C18 5.79468 17.9295 5.53232 17.8356 5.34981ZM16.8963 6.18251C15.3346 9.13688 12.317 10.9734 8.99413 10.9734C5.68297 10.9734 2.65362 9.13688 1.09198 6.18251C1.08023 6.14829 1.05675 6.04563 1.05675 6C1.05675 5.95437 1.08023 5.85171 1.10372 5.81749C2.66536 2.86312 5.68297 1.02662 9.00587 1.02662C12.317 1.02662 15.3464 2.86312 16.908 5.81749C16.9315 5.85171 16.955 5.96578 16.955 6C16.9432 6.04563 16.9198 6.14829 16.8963 6.18251Z" fill="#9C9EB9"/>
<path d="M8.99402 2.41821C8.71222 2.41821 8.27777 2.48665 8.00772 2.55509C8.20732 2.81745 8.37171 3.29654 8.37171 3.61593C8.37171 4.60833 7.54979 5.40681 6.52826 5.40681C6.1995 5.40681 5.70635 5.24711 5.43629 5.05319C5.36584 5.30414 5.30713 5.7262 5.30713 5.98855C5.30713 7.98475 6.96271 9.58171 8.99402 9.58171C11.0253 9.58171 12.6809 7.97334 12.6809 5.99996C12.6926 4.01517 11.0371 2.41821 8.99402 2.41821Z" fill="#9C9EB9"/>
</svg>
