<?xml version="1.0" encoding="utf-8" ?>
<svg xmlns="http://www.w3.org/2000/svg" xmlns:xlink="http://www.w3.org/1999/xlink" width="20" height="20" viewBox="0 0 20 20">
	<defs>
		<clipPath id="clipPath8298031650">
			<path d="M0 0L20 0L20 20L0 20L0 0Z" fill-rule="nonzero" transform="matrix(1 0 0 1 -0 -0)"/>
		</clipPath>
	</defs>
	<g clip-path="url(#clipPath8298031650)">
		<path d="M19.0625 9.91406C19.0625 15.4414 15.2773 19.375 9.6875 19.375C4.32812 19.375 0 15.0469 0 9.6875C0 4.32812 4.32812 0 9.6875 0C12.2969 0 14.4922 0.957031 16.1836 2.53516L13.5469 5.07031C10.0977 1.74219 3.68359 4.24219 3.68359 9.6875C3.68359 13.0664 6.38281 15.8047 9.6875 15.8047C13.5234 15.8047 14.9609 13.0547 15.1875 11.6289L9.6875 11.6289L9.6875 8.29688L18.9102 8.29688C19 8.79297 19.0625 9.26953 19.0625 9.91406Z" fill-rule="nonzero" transform="matrix(1 0 0 1 0.46875 0.3125)" fill="rgb(102, 102, 102)"/>
	</g>
</svg>
