<svg xmlns="http://www.w3.org/2000/svg" xmlns:xlink="http://www.w3.org/1999/xlink" width="500" zoomAndPan="magnify" viewBox="0 0 375 374.999991" height="500" preserveAspectRatio="xMidYMid meet" version="1.0"><defs><clipPath id="257e520d0f"><path d="M 144.84375 112.5 L 230.34375 112.5 L 230.34375 232 L 144.84375 232 Z M 144.84375 112.5 " clip-rule="nonzero"/></clipPath><clipPath id="661bc2b915"><path d="M 144.84375 219 L 230.34375 219 L 230.34375 262.5 L 144.84375 262.5 Z M 144.84375 219 " clip-rule="nonzero"/></clipPath></defs><g clip-path="url(#257e520d0f)"><path fill="#d6d6d6" d="M 169.867188 143.75 C 169.867188 134.011719 177.757812 126.121094 187.492188 126.121094 C 197.234375 126.121094 205.125 134.011719 205.125 143.75 C 205.125 153.488281 197.234375 161.378906 187.492188 161.378906 C 177.757812 161.378906 169.867188 153.488281 169.867188 143.75 Z M 230.160156 155.300781 C 230.160156 131.746094 211.058594 112.644531 187.496094 112.644531 C 163.941406 112.644531 144.839844 131.746094 144.839844 155.300781 C 144.839844 178.863281 187.496094 231.777344 187.496094 231.777344 C 187.496094 231.777344 230.160156 178.863281 230.160156 155.300781 " fill-opacity="1" fill-rule="nonzero"/></g><g clip-path="url(#661bc2b915)"><path fill="#d6d6d6" d="M 214.976562 219.59375 C 213.09375 218.699219 210.867188 219.503906 209.980469 221.375 C 209.09375 223.25 209.890625 225.484375 211.761719 226.371094 C 218.589844 229.605469 222.507812 233.90625 222.507812 238.167969 C 222.507812 246.058594 208.128906 254.851562 187.5 254.851562 C 166.871094 254.851562 152.492188 246.058594 152.492188 238.167969 C 152.492188 233.90625 156.410156 229.605469 163.238281 226.371094 C 165.105469 225.484375 165.90625 223.25 165.019531 221.375 C 164.136719 219.503906 161.898438 218.703125 160.023438 219.59375 C 150.46875 224.121094 144.992188 230.890625 144.992188 238.167969 C 144.992188 251.730469 163.660156 262.351562 187.5 262.351562 C 211.335938 262.351562 230.007812 251.730469 230.007812 238.167969 C 230.007812 230.890625 224.527344 224.121094 214.976562 219.59375 " fill-opacity="1" fill-rule="nonzero"/></g></svg>