<?xml version="1.0" encoding="utf-8" ?>
<svg xmlns="http://www.w3.org/2000/svg" xmlns:xlink="http://www.w3.org/1999/xlink" width="39" height="42" viewBox="0 0 39 42">
	<path d="M7.5 10.5L7.5 9Q7.5 4.65076 10.5754 1.57538Q13.6508 -1.5 18 -1.5Q22.3492 -1.5 25.4246 1.57538Q28.5 4.65075 28.5 9L28.5 10.5L34.5 10.5Q35.7426 10.5 36.6213 11.3787Q37.5 12.2574 37.5 13.5L37.5 33.8672Q37.5 35.2247 36.9509 36.4703Q36.4277 37.6571 35.4822 38.5737Q34.5455 39.4817 33.3419 39.9819Q32.0948 40.5 30.75 40.5L5.25 40.5Q3.89643 40.5 2.63756 39.9548Q1.43756 39.4351 0.501215 38.4988Q-0.435141 37.5624 -0.954825 36.3624Q-1.5 35.1036 -1.5 33.75L-1.5 13.5Q-1.5 12.2574 -0.621321 11.3787Q0.257358 10.5 1.5 10.5L7.5 10.5ZM9 13.5L1.5 13.5L1.5 33.75Q1.5 34.4819 1.79811 35.1702Q2.09053 35.8455 2.62254 36.3775Q3.15453 36.9095 3.82978 37.2019Q4.51814 37.5 5.25 37.5L30.75 37.5Q31.4964 37.5 32.1908 37.2115Q32.8673 36.9304 33.3941 36.4197Q33.9189 35.9109 34.2058 35.2602Q34.5 34.5928 34.5 33.8672L34.5 13.5L9 13.5ZM25.5 10.5L10.5 10.5L10.5 9Q10.5 5.8934 12.6967 3.6967Q14.8934 1.5 18 1.5Q21.1066 1.5 23.3033 3.6967Q25.5 5.89339 25.5 9L25.5 10.5Z" fill-rule="evenodd" transform="matrix(1 0 0 1 1.5 1.5)" fill="rgb(176, 168, 142)"/>
</svg>
