<?xml version="1.0" encoding="utf-8" ?>
<svg xmlns="http://www.w3.org/2000/svg" xmlns:xlink="http://www.w3.org/1999/xlink" width="77.0112" height="84" viewBox="0 0 77.0112 84">
	<path d="M53.5085 15L53.5085 18L61.4565 18Q62.8724 18 64.1861 18.5134Q65.4583 19.0106 66.4755 19.9263Q67.4928 20.8419 68.1204 22.0548Q68.7682 23.3069 68.916 24.714L73.968 72.714Q74.1391 74.3392 73.6249 75.8779Q73.1308 77.3563 72.0848 78.5185Q71.0386 79.6808 69.62 80.3272Q68.1433 81 66.5085 81L4.5085 81Q2.87075 81.0018 1.45053 80.3707Q0.0303192 79.7395 -1.06813 78.5205Q-2.16658 77.3014 -2.64683 75.8233Q-3.12708 74.3452 -2.95496 72.7133L2.101 24.7137Q2.24993 23.3016 2.86874 22.0881Q3.48754 20.8746 4.54271 19.925Q5.59789 18.9755 6.8697 18.4876Q8.14152 17.9997 9.56105 18L17.5085 18L17.5085 15Q17.5085 11.2967 18.8352 8.09369Q20.1619 4.89074 22.7806 2.27208Q25.3992 -0.34658 28.6022 -1.67329Q31.8052 -3 35.5085 -3Q39.2118 -3 42.4148 -1.67329Q45.6178 -0.346576 48.2364 2.27208Q50.8551 4.89073 52.1818 8.0937Q53.5085 11.2967 53.5085 15ZM47.5085 15L47.5085 18L23.5085 18L23.5085 15Q23.5085 12.4901 24.3785 10.3898Q25.2485 8.28946 27.0232 6.51472Q28.798 4.73998 30.8983 3.86999Q32.9986 3 35.5085 3Q38.0184 3 40.1187 3.86999Q42.219 4.73998 43.9938 6.51472Q45.7685 8.28946 46.6385 10.3898Q47.5085 12.4901 47.5085 15ZM47.5085 29.6453L47.5085 24L23.5085 24L23.5085 29.6453Q23.6012 29.7287 23.6905 29.818Q24.3321 30.4596 24.6703 31.2761Q25.0085 32.0926 25.0085 33Q25.0085 33.9074 24.6703 34.7239Q24.3321 35.5403 23.6905 36.182Q23.0488 36.8236 22.2324 37.1618Q21.4159 37.5 20.5085 37.5Q19.6011 37.5 18.7846 37.1618Q17.9681 36.8236 17.3265 36.182Q16.6849 35.5403 16.3467 34.7239Q16.0085 33.9074 16.0085 33Q16.0085 32.0926 16.3467 31.2761Q16.6849 30.4596 17.3265 29.818Q17.4158 29.7287 17.5085 29.6453L17.5085 24L9.55994 24Q9.25232 23.9999 9.01863 24.0896Q8.78494 24.1792 8.55628 24.385Q8.32761 24.5908 8.21391 24.8138Q8.10021 25.0367 8.06799 25.3423L3.01195 73.3427Q2.97372 73.7052 3.05952 73.9692Q3.14532 74.2333 3.38931 74.5041Q3.63331 74.7749 3.88704 74.8876Q4.14079 75.0004 4.5085 75L66.5085 75Q67.1792 75 67.6252 74.5045Q68.0712 74.009 68.001 73.342L62.9489 25.341Q62.889 24.7706 62.4615 24.3857Q62.0329 24 61.4565 24L53.5085 24L53.5085 29.6453Q53.6012 29.7287 53.6905 29.818Q54.3321 30.4596 54.6703 31.2761Q55.0085 32.0926 55.0085 33Q55.0085 33.9074 54.6703 34.7239Q54.3321 35.5404 53.6905 36.182Q53.0489 36.8236 52.2324 37.1618Q51.4159 37.5 50.5085 37.5Q49.6011 37.5 48.7846 37.1618Q47.9681 36.8236 47.3265 36.182Q46.6849 35.5404 46.3467 34.7239Q46.0085 33.9074 46.0085 33Q46.0085 32.0926 46.3467 31.2761Q46.6849 30.4596 47.3265 29.818Q47.4158 29.7287 47.5085 29.6453Z" fill-rule="evenodd" transform="matrix(1 0 0 1 3.00029 3)" fill="rgb(182, 91, 79)"/>
</svg>
