<?xml version="1.0" encoding="utf-8" ?>
<svg xmlns="http://www.w3.org/2000/svg" xmlns:xlink="http://www.w3.org/1999/xlink" width="24" height="24" viewBox="0 0 24 24">
	<defs>
		<clipPath id="clipPath8201079380">
			<path d="M0 0L24 0L24 24L0 24L0 0Z" fill-rule="nonzero" transform="matrix(1 0 0 1 -0 -0)"/>
		</clipPath>
	</defs>
	<g clip-path="url(#clipPath8201079380)">
		<path d="M6.93294 -0.490861C7.20403 -0.804036 7.67769 -0.838151 7.99086 -0.567059C8.30404 -0.295966 8.33815 0.177685 8.06706 0.490861L2.87331 6.49086Q2.82496 6.54671 2.76665 6.59206Q2.70834 6.6374 2.6423 6.6705Q2.57626 6.7036 2.50503 6.72318Q2.43381 6.74275 2.36013 6.74806Q2.28645 6.75337 2.21316 6.7442Q2.13986 6.73503 2.06976 6.71174Q1.99966 6.68845 1.93545 6.65193Q1.87124 6.6154 1.81539 6.56706Q1.79791 6.55193 1.78139 6.53575L-0.524858 4.27637C-0.82074 3.9865 -0.825615 3.51165 -0.535747 3.21577C-0.245878 2.91989 0.228975 2.91501 0.524858 3.20488L2.26128 4.90601L6.93294 -0.490861Z" fill-rule="evenodd" transform="matrix(1 0 0 1 8.25 8.25)" fill="rgb(182, 91, 79)"/>
		<path d="M19.3254 3.75556Q16.1645 3.18857 14.2271 2.58332Q12.3481 1.99629 9.44127 0.683527L9.74996 0L10.0587 0.683527Q7.15185 1.99629 5.27281 2.58332Q3.33546 3.18857 0.174568 3.75556L0.0421466 3.01734L0.790658 3.06457Q0.539221 7.04969 1.83525 10.3556Q2.87967 13.0197 4.88602 15.1485Q6.35957 16.7119 8.21501 17.8559Q9.23175 18.4828 10.0301 18.8043L9.74996 19.5L9.46978 18.8043Q10.2682 18.4828 11.2849 17.8559Q13.1404 16.7119 14.6139 15.1485Q16.6203 13.0197 17.6647 10.3556Q18.9607 7.04969 18.7093 3.06457L19.4578 3.01734L19.3254 3.75556ZM19.5902 2.27913Q19.6517 2.29016 19.7106 2.31123Q19.7694 2.33229 19.8239 2.36281Q19.8785 2.39332 19.9272 2.43245Q19.976 2.47157 20.0176 2.51822Q20.0592 2.56487 20.0925 2.61777Q20.1258 2.67066 20.1499 2.72833Q20.1739 2.78601 20.1881 2.84687Q20.2024 2.90774 20.2063 2.97012Q20.4787 7.28735 19.0612 10.9031Q17.9109 13.8374 15.7055 16.1773Q14.0961 17.8848 12.0721 19.1327Q10.9468 19.8265 10.0301 20.1957Q9.89531 20.25 9.74996 20.25Q9.60461 20.25 9.46978 20.1957Q8.55308 19.8265 7.42777 19.1327Q5.40379 17.8848 3.79445 16.1773Q1.58906 13.8374 0.438726 10.9031Q-0.978757 7.28735 -0.706365 2.97012Q-0.702429 2.90774 -0.688223 2.84687Q-0.674017 2.78601 -0.649932 2.72833Q-0.625847 2.67066 -0.592548 2.61777Q-0.559249 2.56487 -0.517654 2.51822Q-0.476059 2.47157 -0.427317 2.43245Q-0.378574 2.39332 -0.324028 2.36281Q-0.269482 2.33229 -0.210637 2.31123Q-0.151792 2.29016 -0.0902724 2.27913Q2.97799 1.72875 4.82551 1.15156Q6.61754 0.591714 9.44127 -0.683527Q9.58846 -0.75 9.74996 -0.75Q9.91146 -0.75 10.0587 -0.683527Q12.8824 0.591712 14.6744 1.15156Q16.5219 1.72875 19.5902 2.27913Z" fill-rule="nonzero" transform="matrix(1 0 0 1 2.25004 2.25)" fill="rgb(182, 91, 79)"/>
	</g>
</svg>
