<?xml version="1.0" encoding="utf-8" ?>
<svg xmlns="http://www.w3.org/2000/svg" xmlns:xlink="http://www.w3.org/1999/xlink" width="24" height="24" viewBox="0 0 24 24">
	<defs>
		<clipPath id="clipPath6183861776">
			<path d="M0 0L24 0L24 24L0 24L0 0Z" fill-rule="nonzero" transform="matrix(1 0 0 1 -0 -0)"/>
		</clipPath>
	</defs>
	<g clip-path="url(#clipPath6183861776)">
		<path d="M-0.75 9.75Q-0.75 11.7277 0.942819 16.0249C1.09464 16.4103 1.53013 16.5996 1.91552 16.4478C2.3009 16.296 2.49025 15.8605 2.33843 15.4751Q1.70397 13.8645 1.30965 12.5614Q0.75 10.7119 0.75 9.75Q0.75 7.94339 1.50456 6.26181Q2.22467 4.657 3.52309 3.39304Q4.80322 2.14689 6.41315 1.45528Q8.0549 0.75 9.75 0.75Q11.4451 0.75 13.0868 1.45528Q14.6968 2.14689 15.9769 3.39304Q17.2753 4.657 17.9954 6.26181Q18.75 7.94339 18.75 9.75Q18.75 11.3716 17.1599 15.4793C17.0104 15.8655 17.2024 16.2999 17.5886 16.4494C17.9749 16.599 18.4093 16.407 18.5588 16.0207Q20.25 11.6518 20.25 9.75Q20.25 7.62227 19.364 5.64772Q18.5267 3.7818 17.0232 2.31821Q15.544 0.878307 13.6789 0.0770672Q11.7537 -0.75 9.75 -0.75Q7.74634 -0.75 5.82109 0.0770678Q3.95595 0.878312 2.47679 2.31821Q0.9733 3.7818 0.136022 5.64772Q-0.75 7.62227 -0.75 9.75Z" fill-rule="evenodd" transform="matrix(1 0 0 1 2.25 2.25)" fill="rgb(182, 91, 79)"/>
		<path d="M15.9687 -0.545836L16.6105 -0.170836Q17.3336 0.252358 17.7202 1.07399Q18.0646 1.80609 18.0909 2.75555Q18.1159 3.65899 17.8496 4.63823Q17.579 5.63317 17.0422 6.57557Q16.5051 7.51845 15.7895 8.25422Q15.0841 8.97933 14.297 9.41051Q13.4679 9.86465 12.6647 9.92871Q11.7637 10.0006 11.0383 9.57605L10.3969 9.20128Q9.86276 8.88317 9.70549 8.28811Q9.54822 7.69304 9.85238 7.15796L13.9257 0.00570184Q14.23 -0.533147 14.8298 -0.696066Q15.4296 -0.858985 15.967 -0.546846L15.9687 -0.545836ZM1.37523 -0.546846Q1.91268 -0.858985 2.51246 -0.696065Q3.11224 -0.533144 3.4166 0.00572029L7.48986 7.15842Q7.79403 7.69351 7.63676 8.28858Q7.47949 8.88364 6.9453 9.20175L6.30398 9.57652Q5.57853 10.001 4.67734 9.92918Q3.87391 9.86512 3.04466 9.41102Q2.25714 8.97976 1.55194 8.25463Q0.836187 7.51863 0.299824 6.57564Q-0.236199 5.63325 -0.50655 4.63859Q-0.772714 3.65933 -0.747953 2.75613Q-0.721921 1.80659 -0.377823 1.07451Q0.00846298 0.252674 0.73178 -0.170836L1.37523 -0.546846ZM1.48859 1.12425L2.11796 0.756465L6.18582 7.89969Q6.18733 7.90235 6.18655 7.9053L5.54639 8.28189Q5.22782 8.46832 4.79657 8.43393Q4.31296 8.39537 3.76512 8.09537Q3.17532 7.77239 2.62729 7.20886Q2.04522 6.61034 1.60367 5.83403Q1.1615 5.05664 0.940935 4.24516Q0.732784 3.47934 0.751484 2.79724Q0.768926 2.16101 0.979698 1.71258Q1.16801 1.31195 1.48859 1.12425ZM11.1564 7.89921L15.2243 0.756465L15.8537 1.12425Q16.1745 1.31198 16.3629 1.71256Q16.5739 2.16095 16.5915 2.797Q16.6103 3.47905 16.4021 4.24459Q16.1814 5.05603 15.7388 5.83316Q15.2965 6.60975 14.7142 7.20833Q14.166 7.77197 13.5763 8.09494Q13.0287 8.39491 12.5454 8.43346Q12.1144 8.46784 11.7959 8.28143L11.1557 7.90483Q11.1549 7.90187 11.1564 7.89921Z" fill-rule="evenodd" transform="matrix(1 0 0 1 3.32888 12.5606)" fill="rgb(182, 91, 79)"/>
	</g>
</svg>
