<?xml version="1.0" encoding="utf-8" ?>
<svg xmlns="http://www.w3.org/2000/svg" xmlns:xlink="http://www.w3.org/1999/xlink" width="24" height="24" viewBox="0 0 24 24">
	<defs>
		<clipPath id="clipPath2002017049">
			<path d="M0 0L24 0L24 24L0 24L0 0Z" fill-rule="nonzero" transform="matrix(1 0 0 1 -0 -0)"/>
		</clipPath>
	</defs>
	<g clip-path="url(#clipPath2002017049)">
		<path d="M20.0962 2.89124Q20.3886 1.2363 20.1299 0.101781Q20.0718 -0.164998 19.8808 -0.361181Q19.6863 -0.561033 19.4148 -0.624957Q18.3265 -0.891157 16.6682 -0.596848Q15.1327 -0.324334 13.3904 0.372861Q11.6205 1.08112 10.022 2.07509Q8.30137 3.14498 7.08169 4.36377Q6.63365 4.80812 6.22406 5.29186Q5.9517 5.61352 5.6986 5.9501Q4.12298 5.88033 2.95397 6.3903Q1.16351 7.17755 0.147886 9.14964Q-0.486736 10.3819 -0.733669 11.881Q-0.826892 12.4533 -0.430131 12.8744Q-0.0333727 13.2954 0.542153 13.2365L3.56059 12.9051Q3.566 12.9596 3.57206 13.014Q3.59921 13.284 3.71963 13.536Q3.84005 13.788 4.03867 13.9843L5.50697 15.4526Q5.7004 15.6483 5.95261 15.7687Q6.20481 15.8891 6.48291 15.917Q6.53043 15.9223 6.5784 15.9271L6.24802 18.9373Q6.18925 19.5184 6.60963 19.9145Q7.03 20.3106 7.6002 20.2184Q9.09589 19.9782 10.3357 19.341Q12.3103 18.3261 13.0929 16.5361Q13.6 15.3726 13.5365 13.8019Q13.8749 13.5484 14.1983 13.2754Q14.6834 12.8657 15.131 12.4153Q16.3542 11.199 17.4222 9.50163Q18.4202 7.91561 19.1262 6.16391Q19.8238 4.4332 20.0962 2.89124ZM18.6659 0.428267Q18.6645 0.422226 18.6632 0.416185L18.6659 0.428267ZM18.7247 0.774013Q18.813 1.53262 18.6191 2.63028Q18.3739 4.01787 17.735 5.60316Q17.0791 7.23034 16.1526 8.70277Q15.1755 10.2557 14.067 11.358Q13.6656 11.7619 13.2305 12.1293Q12.7955 12.4967 12.33 12.8246Q12.2496 12.8813 12.1865 12.9567Q12.1235 13.0322 12.082 13.1213Q12.0405 13.2105 12.0234 13.3073Q12.0063 13.4041 12.0148 13.5021Q12.1408 14.9661 11.7185 15.9353Q11.1498 17.2361 9.65007 18.0068Q8.79903 18.4442 7.78764 18.6584L8.15579 15.3041Q8.15987 15.2669 8.16023 15.2296Q8.16095 15.1557 8.14724 15.0831Q8.13354 15.0105 8.10593 14.942Q8.07833 14.8735 8.03789 14.8117Q7.99745 14.7499 7.94573 14.6971Q7.894 14.6444 7.83299 14.6027Q7.77197 14.5611 7.704 14.5322Q7.63603 14.5032 7.56373 14.4881Q7.49142 14.473 7.41756 14.4723Q7.22289 14.4704 7.02856 14.4587Q6.83422 14.4469 6.63231 14.4244Q6.6148 14.4227 6.59892 14.4151Q6.58305 14.4075 6.56763 14.3919L5.0931 12.9174Q5.0806 12.9051 5.07302 12.8892Q5.06544 12.8733 5.06284 12.848Q5.04116 12.6533 5.02941 12.4578Q5.01766 12.2622 5.01586 12.0663Q5.01551 12.0287 5.01141 11.9914Q5.00335 11.9179 4.98112 11.8475Q4.95889 11.777 4.92334 11.7123Q4.88779 11.6475 4.8403 11.591Q4.7928 11.5344 4.73518 11.4882Q4.67756 11.4419 4.61203 11.4079Q4.5465 11.3738 4.47557 11.3531Q4.40465 11.3325 4.33106 11.326Q4.25747 11.3196 4.18404 11.3277L0.827599 11.6962Q1.04556 10.6828 1.48143 9.83641Q2.25374 8.33677 3.55375 7.76517Q4.52724 7.34049 5.99315 7.47312Q6.09132 7.482 6.18844 7.46522Q6.28557 7.44844 6.37506 7.40713Q6.46455 7.36582 6.54033 7.30279Q6.61611 7.23976 6.67303 7.15929Q7.00139 6.69509 7.36882 6.26115Q7.73625 5.82721 8.14196 5.42482Q9.23976 4.32782 10.8141 3.34891Q12.3004 2.42469 13.9477 1.7655Q15.5468 1.12563 16.9303 0.880072Q18.0029 0.689713 18.7247 0.774013ZM19.0631 0.833198Q19.0671 0.834151 19.071 0.835115Q19.0671 0.834183 19.0631 0.833198ZM11.2197 8.28781L11.2191 8.28719Q10.4136 7.48151 10.4135 6.34215Q10.4135 5.20236 11.2194 4.39637Q12.0253 3.59038 13.1651 3.59038Q14.3049 3.59038 15.1108 4.39637Q15.9168 5.20236 15.9167 6.34215Q15.9166 7.48195 15.1105 8.28781Q14.3056 9.09448 13.1651 9.09448Q12.0251 9.09448 11.2197 8.28781ZM12.2808 7.22765Q12.6469 7.59448 13.1651 7.59448Q13.6833 7.59448 14.05 7.22703Q14.4166 6.86048 14.4167 6.34204Q14.4167 5.8236 14.0501 5.45699Q13.6836 5.09038 13.1651 5.09038Q12.6467 5.09038 12.2801 5.45699Q11.9135 5.8236 11.9135 6.34204Q11.9136 6.86048 12.2802 7.22703L12.2808 7.22765Z" fill-rule="evenodd" transform="matrix(1 0 0 1 2.24974 2.25836)" fill="rgb(182, 91, 79)"/>
		<path d="M2.88379 -0.0913794C2.83332 -0.502503 2.45912 -0.794879 2.048 -0.744412Q1.57308 -0.686115 1.14295 -0.476518Q0.712824 -0.266923 0.374255 0.0711784Q-0.319731 0.767524 -0.60027 2.757Q-0.729089 3.67053 -0.749756 4.48088Q-0.75356 4.63001 -0.700002 4.76925Q-0.646444 4.90849 -0.543679 5.01664Q-0.440914 5.12478 -0.304586 5.18537Q-0.168258 5.24595 -0.0191217 5.24976Q-5.74626e-06 5.25024 0.0191103 5.24976Q0.829973 5.22909 1.74373 5.10014Q3.73432 4.81923 4.42814 4.12502Q4.76699 3.78761 4.97725 3.35612Q5.18751 2.92463 5.24466 2.44805C5.29398 2.03679 5.00056 1.6634 4.5893 1.61409C4.17804 1.56477 3.80465 1.85819 3.75534 2.26945Q3.7283 2.49491 3.62883 2.69904Q3.52936 2.90317 3.36718 3.06466Q3.21533 3.2166 2.72063 3.36791Q2.23807 3.51552 1.53413 3.61486Q1.15568 3.66826 0.798877 3.70113Q0.831708 3.34462 0.885036 2.96644Q0.984293 2.26255 1.13178 1.77967Q1.28313 1.28414 1.43418 1.13257Q1.59531 0.971661 1.80002 0.871909Q2.00473 0.772157 2.23075 0.744412C2.64188 0.693945 2.93425 0.319745 2.88379 -0.0913794Z" fill-rule="evenodd" transform="matrix(1 0 0 1 3 16.5)" fill="rgb(182, 91, 79)"/>
	</g>
</svg>
