<?xml version="1.0" encoding="utf-8" ?>
<svg xmlns="http://www.w3.org/2000/svg" xmlns:xlink="http://www.w3.org/1999/xlink" width="24" height="24" viewBox="0 0 24 24">
	<defs>
		<clipPath id="clipPath0854753906">
			<path d="M0 0L24 0L24 24L0 24L0 0Z" fill-rule="nonzero" transform="matrix(1 0 0 1 -0 -0)"/>
		</clipPath>
	</defs>
	<g clip-path="url(#clipPath0854753906)">
		<path d="M8.25 0.75Q5.1434 0.75 2.9467 2.9467Q0.750001 5.1434 0.75 8.25Q0.75 11.3566 2.9467 13.5533Q5.1434 15.75 8.25 15.75Q11.3566 15.75 13.5533 13.5533Q15.75 11.3566 15.75 8.25Q15.75 5.1434 13.5533 2.9467Q11.3566 0.75 8.25 0.75ZM8.25 -0.75Q11.9779 -0.75 14.614 1.88604Q17.25 4.52208 17.25 8.25Q17.25 11.9779 14.614 14.614Q11.9779 17.25 8.25 17.25Q4.52208 17.25 1.88604 14.614Q-0.75 11.9779 -0.75 8.25Q-0.75 4.52208 1.88604 1.88604Q4.52208 -0.75 8.25 -0.75Z" fill-rule="nonzero" transform="matrix(1 0 0 1 3.75 3.75)" fill="rgb(102, 102, 102)"/>
		<path d="M-0.478267 1.33028Q-0.640265 1.72769 -0.655495 2.04499C-0.672872 2.407 -0.393481 2.71457 -0.0314636 2.73194C0.326734 2.74914 0.631623 2.47579 0.654849 2.11934L0.655193 2.11624Q0.657766 2.09429 0.663627 2.06468Q0.686198 1.95067 0.737135 1.82571Q0.912244 1.39613 1.32873 1.06103Q1.81559 0.66882 2.63484 0.656532Q3.26506 0.648461 3.58653 0.801489Q4.59375 1.28093 4.59375 2.13504Q4.59375 2.71205 4.23864 3.12864Q3.97511 3.4378 3.17964 3.97126Q1.73438 4.94049 1.73438 6.46911C1.73438 6.83154 2.02819 7.12536 2.39062 7.12536C2.75306 7.12536 3.04688 6.83154 3.04688 6.46911Q3.04688 6.07143 3.20579 5.77497Q3.40743 5.39881 3.91067 5.06133Q4.36452 4.75696 4.59614 4.57779Q4.98332 4.27826 5.23749 3.98008Q5.90625 3.19554 5.90625 2.13504Q5.90625 1.11822 5.216 0.374791Q4.79791 -0.075497 4.15066 -0.383591Q3.55353 -0.667842 2.61516 -0.655821Q1.3441 -0.636756 0.505958 0.0384324Q-0.175017 0.586339 -0.478267 1.33028Z" fill-rule="evenodd" transform="matrix(1 0 0 1 9.375 7.40589)" fill="rgb(102, 102, 102)"/>
		<path d="M0.9375 0C1.45527 0 1.875 0.419733 1.875 0.9375C1.875 1.45527 1.45527 1.875 0.9375 1.875C0.419733 1.875 0 1.45527 0 0.9375C0 0.419733 0.419733 0 0.9375 0Z" fill-rule="nonzero" transform="matrix(1 0 0 1 10.7812 15.375)" fill="rgb(102, 102, 102)"/>
	</g>
</svg>
