<?xml version="1.0" encoding="utf-8" ?>
<svg xmlns="http://www.w3.org/2000/svg" xmlns:xlink="http://www.w3.org/1999/xlink" width="24" height="24" viewBox="0 0 24 24">
	<defs>
		<clipPath id="clipPath8316393060">
			<path d="M0 0L24 0L24 24L0 24L0 0Z" fill-rule="nonzero" transform="matrix(1 0 0 1 -0 -0)"/>
		</clipPath>
	</defs>
	<g clip-path="url(#clipPath8316393060)">
		<path d="M16.5 7.5L16.5 6C16.5 2.69156 13.8084 0 10.5 0C7.19156 0 4.5 2.69156 4.5 6L4.5 7.5L0 7.5L0 20.25C0 22.3211 1.67892 24 3.75 24L17.25 24C19.3211 24 21 22.3211 21 20.25L21 7.5L16.5 7.5ZM7.5 6C7.5 4.34578 8.84578 3 10.5 3C12.1542 3 13.5 4.34578 13.5 6L13.5 7.5L7.5 7.5L7.5 6ZM15 11.625C14.3787 11.625 13.875 11.1213 13.875 10.5C13.875 9.87867 14.3787 9.375 15 9.375C15.6213 9.375 16.125 9.87867 16.125 10.5C16.125 11.1213 15.6213 11.625 15 11.625ZM6 11.625C5.37867 11.625 4.875 11.1213 4.875 10.5C4.875 9.87867 5.37867 9.375 6 9.375C6.62133 9.375 7.125 9.87867 7.125 10.5C7.125 11.1213 6.62133 11.625 6 11.625Z" fill-rule="nonzero" transform="matrix(1 0 0 1 1.5 0)" fill="rgb(182, 91, 79)"/>
	</g>
</svg>
