<?xml version="1.0" encoding="utf-8" ?>
<svg xmlns="http://www.w3.org/2000/svg" xmlns:xlink="http://www.w3.org/1999/xlink" width="24" height="24" viewBox="0 0 24 24">
	<defs>
		<clipPath id="clipPath5782834449">
			<path d="M0 0L24 0L24 24L0 24L0 0Z" fill-rule="nonzero" transform="matrix(1 0 0 1 -0 -0)"/>
		</clipPath>
	</defs>
	<g clip-path="url(#clipPath5782834449)">
		<path d="M-0.75 2.25C-0.75 0.593146 0.593146 -0.75 2.25 -0.75L17.25 -0.75C18.9069 -0.75 20.25 0.593146 20.25 2.25L20.25 11.25C20.25 12.9069 18.9069 14.25 17.25 14.25L2.25 14.25C0.593146 14.25 -0.75 12.9069 -0.75 11.25L-0.75 2.25ZM2.25 0.75C1.42157 0.75 0.75 1.42157 0.75 2.25L0.75 11.25C0.75 12.0784 1.42157 12.75 2.25 12.75L17.25 12.75C18.0784 12.75 18.75 12.0784 18.75 11.25L18.75 2.25C18.75 1.42157 18.0784 0.75 17.25 0.75L2.25 0.75Z" fill-rule="nonzero" transform="matrix(1 0 0 1 2.25 6.75)" fill="rgb(26, 26, 26)"/>
		<path d="M16.2825 3.75467L16.2825 2.34842Q16.2823 1.59894 15.7046 1.1211Q15.1269 0.643251 14.3904 0.783598L2.03118 2.8932Q1.48138 2.99811 1.11549 3.44061Q0.749611 3.88311 0.75 4.45729L0.750001 6.75467L-0.749999 6.75467L-0.749999 4.4583Q-0.750755 3.34373 -0.0405114 2.48476Q0.669732 1.62579 1.77882 1.41458L14.1096 -0.689885Q15.5392 -0.962322 16.6606 -0.0347378Q17.782 0.892845 17.7825 2.34842L17.7825 3.75467L16.2825 3.75467Z" fill-rule="nonzero" transform="matrix(1 0 0 1 2.25 2.99533)" fill="rgb(26, 26, 26)"/>
		<path d="M1.5 3C1.08579 3 0.732232 2.85355 0.439339 2.56066C0.146446 2.26777 0 1.91421 0 1.5C0 1.08579 0.146446 0.732232 0.439339 0.439339C0.732232 0.146446 1.08579 0 1.5 0C1.91421 0 2.26777 0.146446 2.56066 0.439339C2.85355 0.732232 3 1.08579 3 1.5C3 1.91421 2.85355 2.26777 2.56066 2.56066C2.26777 2.85355 1.91421 3 1.5 3Z" fill-rule="nonzero" transform="matrix(1 0 0 1 15.75 12)" fill="rgb(26, 26, 26)"/>
	</g>
</svg>
