<?xml version="1.0" encoding="utf-8" ?>
<svg xmlns="http://www.w3.org/2000/svg" xmlns:xlink="http://www.w3.org/1999/xlink" width="24" height="24" viewBox="0 0 24 24">
	<defs>
		<clipPath id="clipPath8502666843">
			<path d="M0 0L24 0L24 24L0 24L0 0Z" fill-rule="nonzero" transform="matrix(1 0 0 1 -0 -0)"/>
		</clipPath>
	</defs>
	<g clip-path="url(#clipPath8502666843)">
		<path d="M6 0C6 -0.41421 6.33579 -0.75 6.75 -0.75C7.16421 -0.75 7.5 -0.41421 7.5 0L7.5 1.5L10.919 1.5C10.9299 1.49976 10.9409 1.49976 10.9518 1.5L13.5 1.5C13.9142 1.5 14.25 1.83579 14.25 2.25C14.25 2.66421 13.9142 3 13.5 3L11.4991 3Q11.4666 3.10447 11.4296 3.21967Q11.1219 4.17839 10.7201 5.1546Q9.42855 8.29263 7.65896 10.4589Q5.90866 12.6015 3.73606 14.3275Q3.05446 14.869 2.40967 15.3054Q2.0799 15.5286 1.88119 15.6459C1.52447 15.8564 1.06462 15.7379 0.854094 15.3812C0.643571 15.0245 0.762089 14.5646 1.11881 14.3541Q1.27752 14.2604 1.56885 14.0632Q2.16624 13.6589 2.803 13.153Q4.84915 11.5274 6.49729 9.50989Q8.12613 7.51597 9.33301 4.58369Q9.66189 3.78463 9.92328 3L0 3C-0.41421 3 -0.75 2.66421 -0.75 2.25C-0.75 1.83579 -0.41421 1.5 0 1.5L6 1.5L6 0ZM14.3106 7.20456L9.81064 17.7046C9.64748 18.0853 9.82384 18.5262 10.2046 18.6894C10.5853 18.8525 11.0262 18.6762 11.1894 18.2954L12.2803 15.75L17.7197 15.75L18.8106 18.2954C18.9738 18.6762 19.4147 18.8525 19.7954 18.6894C20.1762 18.5262 20.3525 18.0853 20.1894 17.7046L15.6894 7.20456Q15.6325 7.0718 15.5303 6.96967Q15.4282 6.86754 15.2954 6.81064Q15.2275 6.78154 15.1553 6.76625Q15.083 6.75096 15.0091 6.75006Q14.9353 6.74915 14.8627 6.76268Q14.79 6.77621 14.7215 6.80364Q14.6529 6.83108 14.591 6.87136Q14.529 6.91165 14.4762 6.96324Q14.4233 7.01484 14.3815 7.07575Q14.3397 7.13666 14.3106 7.20456ZM17.0769 14.25L15 9.40394L12.9231 14.25L17.0769 14.25Z" fill-rule="evenodd" transform="matrix(1 0 0 1 2.25 3)" fill="rgb(102, 102, 102)"/>
		<path d="M-0.342604 -0.667175C-0.711071 -0.477962 -0.856388 -0.0258639 -0.667175 0.342604Q-0.431358 0.801828 0.0231859 1.54122Q0.922832 3.00464 2.03099 4.44226Q3.14998 5.89392 4.4454 7.1288Q5.10071 7.7535 5.5419 8.09384C5.86986 8.34684 6.34084 8.28607 6.59384 7.9581C6.84684 7.63014 6.78607 7.15916 6.4581 6.90616Q6.07897 6.61369 5.48039 6.04308Q4.26798 4.88733 3.21901 3.52649Q2.1592 2.15161 1.30103 0.755657Q0.87667 0.06536 0.667175 -0.342604C0.477962 -0.711071 0.0258639 -0.856388 -0.342604 -0.667175Z" fill-rule="evenodd" transform="matrix(1 0 0 1 6 8.25)" fill="rgb(102, 102, 102)"/>
	</g>
</svg>
