<?xml version="1.0" encoding="utf-8" ?>
<svg xmlns="http://www.w3.org/2000/svg" xmlns:xlink="http://www.w3.org/1999/xlink" width="21.8125" height="21.8125" viewBox="0 0 21.8125 21.8125">
	<defs>
		<clipPath id="clipPath7798568097">
			<path d="M0 0L21.8125 0L21.8125 21.8125L0 21.8125L0 0Z" fill-rule="nonzero" transform="matrix(1 0 0 1 -0 -0)"/>
		</clipPath>
	</defs>
	<g clip-path="url(#clipPath7798568097)">
		<path d="M6.13477 0.681641Q5.008 0.681641 3.98163 1.05727Q2.99803 1.41724 2.24317 2.07003Q1.49919 2.71341 1.09453 3.54029Q0.681641 4.38397 0.681641 5.30457Q0.681641 7.29624 2.81473 10.797Q4.19229 13.0578 6.1201 15.4248L6.12587 15.4322Q6.12079 15.4281 6.11418 15.425Q6.11021 15.4232 6.10933 15.423Q6.11834 15.4249 6.13477 15.4249Q6.15118 15.4249 6.1602 15.423Q6.15932 15.4232 6.15536 15.425Q6.14875 15.4281 6.14366 15.4322L6.14591 15.4291Q8.07733 13.0587 9.45482 10.7983Q11.5879 7.29797 11.5879 5.30457Q11.5879 4.38397 11.175 3.54029Q10.7703 2.71341 10.0264 2.07003Q9.2715 1.41724 8.2879 1.05727Q7.26153 0.681641 6.13477 0.681641L6.13477 0.681641ZM6.13477 -0.68164Q7.50315 -0.68164 8.75644 -0.222971Q9.97444 0.222786 10.9181 1.03885Q11.8725 1.86423 12.3995 2.94103Q12.9512 4.06828 12.9512 5.30457Q12.9512 7.68063 10.619 11.5077Q9.19302 13.8477 7.20999 16.2814Q6.8041 16.7882 6.13477 16.7882Q5.46544 16.7882 5.06306 16.2857Q3.07651 13.8466 1.65054 11.5064Q-0.681641 7.67885 -0.681641 5.30457Q-0.681641 4.06828 -0.129981 2.94103Q0.396989 1.86423 1.35142 1.03885Q2.29509 0.222786 3.51309 -0.222971Q4.76638 -0.681641 6.13477 -0.681641L6.13477 -0.68164Z" fill-rule="nonzero" transform="matrix(1 0 0 1 4.77148 2.8526)" fill="rgb(182, 91, 79)"/>
		<path d="M2.04492 -0.681641Q2.58746 -0.681641 3.08548 -0.490196Q3.57175 -0.303268 3.94936 0.0399199Q4.33399 0.389495 4.54714 0.847506Q4.77148 1.32957 4.77148 1.85854Q4.77148 2.3875 4.54714 2.86957Q4.33399 3.32758 3.94936 3.67715Q3.57175 4.02034 3.08548 4.20727Q2.58746 4.39871 2.04492 4.39871Q1.50238 4.39871 1.00436 4.20727Q0.518093 4.02034 0.140488 3.67715Q-0.244145 3.32758 -0.457295 2.86957Q-0.681641 2.3875 -0.681641 1.85854Q-0.681641 1.32957 -0.457295 0.847506Q-0.244145 0.389495 0.140488 0.0399199Q0.518093 -0.303268 1.00436 -0.490196Q1.50238 -0.68164 2.04492 -0.68164L2.04492 -0.681641ZM2.04492 0.681641Q1.46136 0.681641 1.0574 1.04879Q0.681641 1.3903 0.681641 1.85854Q0.681641 2.32678 1.0574 2.66829Q1.46136 3.03543 2.04492 3.03543Q2.62848 3.03543 3.03244 2.66829Q3.4082 2.32678 3.4082 1.85854Q3.4082 1.3903 3.03244 1.04879Q2.62848 0.681641 2.04492 0.681641L2.04492 0.681641Z" fill-rule="nonzero" transform="matrix(1 0 0 1 8.86133 6.56967)" fill="rgb(182, 91, 79)"/>
	</g>
</svg>
