<?xml version="1.0" encoding="utf-8" ?>
<svg xmlns="http://www.w3.org/2000/svg" xmlns:xlink="http://www.w3.org/1999/xlink" width="24" height="24" viewBox="0 0 24 24">
	<defs>
		<clipPath id="clipPath4314988697">
			<path d="M0 0L24 0L24 24L0 24L0 0Z" fill-rule="nonzero" transform="matrix(1 0 0 1 -0 -0)"/>
		</clipPath>
	</defs>
	<g clip-path="url(#clipPath4314988697)">
		<path d="M8.625 0.75Q7.02254 0.75 5.56016 1.36861Q4.14708 1.96635 3.05672 3.05672Q1.96635 4.14708 1.36861 5.56016Q0.75 7.02254 0.75 8.625Q0.75 10.2275 1.36861 11.6898Q1.96635 13.1029 3.05672 14.1933Q4.14708 15.2836 5.56016 15.8814Q7.02254 16.5 8.625 16.5Q10.2275 16.5 11.6898 15.8814Q13.1029 15.2836 14.1933 14.1933Q15.2836 13.1029 15.8814 11.6898Q16.5 10.2275 16.5 8.625Q16.5 7.02254 15.8814 5.56016Q15.2836 4.14708 14.1933 3.05672Q13.1029 1.96635 11.6898 1.36861Q10.2275 0.75 8.625 0.75ZM8.625 -0.75Q10.5317 -0.75 12.2742 -0.0128783Q13.9567 0.698837 15.2539 1.99606Q16.5512 3.29328 17.2629 4.97578Q18 6.71834 18 8.625Q18 10.5317 17.2629 12.2742Q16.5512 13.9567 15.2539 15.2539Q13.9567 16.5512 12.2742 17.2629Q10.5317 18 8.625 18Q6.71834 18 4.97578 17.2629Q3.29328 16.5512 1.99606 15.2539Q0.698837 13.9567 -0.0128782 12.2742Q-0.75 10.5317 -0.75 8.625Q-0.75 6.71834 -0.0128783 4.97578Q0.698836 3.29328 1.99606 1.99606Q3.29328 0.698836 4.97578 -0.0128782Q6.71834 -0.75 8.625 -0.75Z" fill-rule="nonzero" transform="matrix(1 0 0 1 3 3)" fill="rgb(102, 102, 102)"/>
		<path d="M-0.75 0C-0.75 0.41421 -0.41421 0.75 0 0.75L0.75 0.75L0.75 5.4375C0.75 5.85171 1.08579 6.1875 1.5 6.1875C1.91421 6.1875 2.25 5.85171 2.25 5.4375L2.25 0Q2.25 -0.0738685 2.23559 -0.146318Q2.22118 -0.218767 2.19291 -0.287013Q2.16464 -0.355258 2.1236 -0.416678Q2.08256 -0.478097 2.03033 -0.53033Q1.9781 -0.582563 1.91668 -0.623602Q1.85526 -0.664641 1.78701 -0.69291Q1.71877 -0.721178 1.64632 -0.735589Q1.57387 -0.75 1.5 -0.75L0 -0.75C-0.41421 -0.75 -0.75 -0.41421 -0.75 0Z" fill-rule="evenodd" transform="matrix(1 0 0 1 10.3125 10.3125)" fill="rgb(102, 102, 102)"/>
		<path d="M-0.75 0C-0.75 0.41421 -0.41421 0.75 0 0.75L4.125 0.75C4.53921 0.75 4.875 0.41421 4.875 0C4.875 -0.41421 4.53921 -0.75 4.125 -0.75L0 -0.75C-0.41421 -0.75 -0.75 -0.41421 -0.75 0Z" fill-rule="evenodd" transform="matrix(1 0 0 1 9.75 15.9375)" fill="rgb(102, 102, 102)"/>
		<path d="M1.21875 0C0.882201 0 0.594939 0.118988 0.356963 0.356963C0.118988 0.594939 0 0.882201 0 1.21875C0 1.5553 0.118988 1.84256 0.356963 2.08054C0.594939 2.31851 0.882201 2.4375 1.21875 2.4375C1.5553 2.4375 1.84256 2.31851 2.08054 2.08054C2.31851 1.84256 2.4375 1.5553 2.4375 1.21875C2.4375 0.882201 2.31851 0.594939 2.08054 0.356963C1.84256 0.118988 1.5553 0 1.21875 0Z" fill-rule="nonzero" transform="matrix(1 0 0 1 10.4062 6.09375)" fill="rgb(102, 102, 102)"/>
	</g>
</svg>
