<?xml version="1.0" encoding="utf-8" ?>
<svg xmlns="http://www.w3.org/2000/svg" xmlns:xlink="http://www.w3.org/1999/xlink" width="24" height="21.3333" viewBox="0 0 24 21.3333">
	<defs>
		<clipPath id="clipPath6698302354">
			<path d="M0 0L24 0L24 21.3333L0 21.3333L0 0Z" fill-rule="nonzero" transform="matrix(1 0 0 1 -0 -0)"/>
		</clipPath>
	</defs>
	<g clip-path="url(#clipPath6698302354)">
		<path d="M9.95002 0.659729L7.22919 5.56343L1.14169 6.35232C0.0500199 6.49306 -0.38748 7.68936 0.404186 8.37455L4.80835 12.1894L3.76669 17.5783C3.57919 18.5523 4.73335 19.282 5.70002 18.8264L11.1459 16.282L16.5917 18.8264C17.5584 19.2783 18.7125 18.5523 18.525 17.5782L17.4834 12.1894L21.8875 8.37454C22.6792 7.68936 22.2417 6.49306 21.15 6.35232L15.0625 5.56343L12.3417 0.659729C11.8542 -0.214345 10.4417 -0.225456 9.95002 0.659729Z" fill-rule="nonzero" transform="matrix(1 0 0 1 0.854156 1.18472)" fill="rgb(182, 91, 79)"/>
	</g>
</svg>
