<?xml version="1.0" encoding="utf-8" ?>
<svg xmlns="http://www.w3.org/2000/svg" xmlns:xlink="http://www.w3.org/1999/xlink" width="160" height="160" viewBox="0 0 160 160">
	<defs>
		<clipPath id="clipPath1467554105">
			<path transform="matrix(1 0 0 1 16 16)" d="M0 0L128 0L128 128L0 128L0 0Z" fill-rule="nonzero"/>
		</clipPath>
	</defs>
	<g clip-path="url(#clipPath1467554105)">
		<defs>
			<clipPath id="clipPath0253363005">
				<path transform="matrix(1 0 0 1 16 16)" d="M0 0L128 0L128 128L0 128L0 0Z" fill-rule="nonzero"/>
			</clipPath>
		</defs>
		<g clip-path="url(#clipPath0253363005)">
			<path transform="matrix(1 0 0 1 20.6408 20.8595)" d="M33.4375 0C29.878 13.418 38.6052 26.806 39.9217 40.203C32.7357 36.2005 22.1002 33.908 17.7577 29.289C20.0977 36.6785 30.5215 40.313 37.0312 45.867C22.7222 46.256 11.622 62.3045 0 65.617C13.63 73.524 27.8568 65.691 41.8592 71.5858C34.9458 80.2758 30.0382 88.5578 27.3667 98.4065C32.556 91.1905 38.8768 82.988 45.0392 76.6405C42.1177 90.326 45.3675 104.01 52.078 117.696C55.335 104.451 68.918 92.9965 70.8355 78.3123C76.5017 87.3905 84.1855 93.8788 91.625 104.297C87.964 91.475 79.845 82.3183 75.57 73.3905C88.6595 74.788 104.339 80.5605 117.695 84.258C110.236 69.5605 101.562 58.2775 90.75 52.9685C99.0025 53.1478 108.465 54.3695 116.578 55.6953C108.234 50.9103 99.4498 48.6388 89.078 47.4373C101.331 35.466 106.314 23.4938 106.18 11.523C94.1713 19.6505 82.157 26.1655 70.1485 30.2105C74.45 23.0505 80.3535 15.318 85.6485 8.8435C76.817 13.9773 70.1967 20.9628 63.5935 30.117C57.6645 18.3945 43.5953 14.1 33.4375 0ZM42.3438 18.2342C44.425 24.8717 54.5952 33.5417 58.2733 41.1405C56.2895 41.6895 54.4762 42.553 52.914 43.6562C50.4965 35.2987 41.2858 25.8778 42.3438 18.2342ZM95.6638 26.2108C90.6278 34.8747 83.813 41.4123 74.9138 47.8908C74.3153 46.0387 73.143 44.452 71.6328 43.25C79.4963 38.904 88.3758 32.1718 95.6638 26.2108ZM63.2108 45.1642C64.8757 45.1912 66.3703 45.5568 67.5545 46.1567C69.3595 47.07 70.3985 48.3833 70.6407 50.0158C70.8832 51.6483 70.2533 53.4315 68.7583 55.0628C67.2625 56.6938 64.9268 58.0653 62.1875 58.6173C59.4485 59.1693 56.914 58.7888 55.1095 57.8748C53.305 56.9615 52.266 55.6483 52.0235 54.0158C51.781 52.3833 52.411 50.5923 53.906 48.9608C55.4018 47.3298 57.738 45.9658 60.4768 45.4142C61.1613 45.2762 61.8328 45.1992 62.4843 45.1717C62.7285 45.1618 62.973 45.1602 63.2108 45.1642ZM47.3203 52.8047C47.2858 53.4285 47.3118 54.0597 47.4062 54.6955C47.652 56.351 48.3433 57.833 49.3358 59.0855C40.2768 57.172 26.3463 65.158 18.0703 61.6248C26.6278 61.4238 37.412 54.6798 47.3203 52.8047ZM74.1953 55.3672C85.0563 59.5385 93.7935 64.338 101.297 71.7973C91.4078 67.3363 79.3173 62.4473 69.656 60.4298C70.598 59.7748 71.457 59.0403 72.203 58.2268C72.9973 57.3605 73.674 56.3948 74.1953 55.3672ZM63.8983 63.0155L63.9533 63.023C59.0613 71.237 59.5597 83.9622 52.875 95.9843C54.965 83.4505 53.6375 73.9368 57.2733 63.3748C59.1232 63.6498 61.0982 63.6005 63.1092 63.1953C63.3768 63.141 63.6362 63.0803 63.8983 63.0155Z" fill-rule="nonzero" fill="rgb(135, 100, 33)"/>
		</g>
	</g>
	<defs>
		<filter id="filter1135358878" filterUnits="userSpaceOnUse" color-interpolation-filters="sRGB">
			<feGaussianBlur in="SourceGraphic" stdDeviation="4"/>
		</filter>
	</defs>
	<g filter="url(#filter1135358878)">
		<g opacity="0.5">
			<defs>
				<clipPath id="clipPath5812162073">
					<path transform="matrix(1 0 0 1 16 16)" d="M0 0L128 0L128 128L0 128L0 0Z" fill-rule="nonzero"/>
				</clipPath>
			</defs>
			<g clip-path="url(#clipPath5812162073)">
				<defs>
					<clipPath id="clipPath3734195366">
						<path transform="matrix(1 0 0 1 16 16)" d="M0 0L128 0L128 128L0 128L0 0Z" fill-rule="nonzero"/>
					</clipPath>
				</defs>
				<g clip-path="url(#clipPath3734195366)">
					<path transform="matrix(1 0 0 1 20.6408 20.8595)" d="M33.4375 0C29.878 13.418 38.6052 26.806 39.9217 40.203C32.7357 36.2005 22.1002 33.908 17.7577 29.289C20.0977 36.6785 30.5215 40.313 37.0312 45.867C22.7222 46.256 11.622 62.3045 0 65.617C13.63 73.524 27.8568 65.691 41.8592 71.5858C34.9458 80.2758 30.0382 88.5578 27.3667 98.4065C32.556 91.1905 38.8768 82.988 45.0392 76.6405C42.1177 90.326 45.3675 104.01 52.078 117.696C55.335 104.451 68.918 92.9965 70.8355 78.3123C76.5017 87.3905 84.1855 93.8788 91.625 104.297C87.964 91.475 79.845 82.3183 75.57 73.3905C88.6595 74.788 104.339 80.5605 117.695 84.258C110.236 69.5605 101.562 58.2775 90.75 52.9685C99.0025 53.1478 108.465 54.3695 116.578 55.6953C108.234 50.9103 99.4498 48.6388 89.078 47.4373C101.331 35.466 106.314 23.4938 106.18 11.523C94.1713 19.6505 82.157 26.1655 70.1485 30.2105C74.45 23.0505 80.3535 15.318 85.6485 8.8435C76.817 13.9773 70.1967 20.9628 63.5935 30.117C57.6645 18.3945 43.5953 14.1 33.4375 0ZM42.3438 18.2342C44.425 24.8717 54.5952 33.5417 58.2733 41.1405C56.2895 41.6895 54.4762 42.553 52.914 43.6562C50.4965 35.2987 41.2858 25.8778 42.3438 18.2342ZM95.6638 26.2108C90.6278 34.8747 83.813 41.4123 74.9138 47.8908C74.3153 46.0387 73.143 44.452 71.6328 43.25C79.4963 38.904 88.3758 32.1718 95.6638 26.2108ZM63.2108 45.1642C64.8757 45.1912 66.3703 45.5568 67.5545 46.1567C69.3595 47.07 70.3985 48.3833 70.6407 50.0158C70.8832 51.6483 70.2533 53.4315 68.7583 55.0628C67.2625 56.6938 64.9268 58.0653 62.1875 58.6173C59.4485 59.1693 56.914 58.7888 55.1095 57.8748C53.305 56.9615 52.266 55.6483 52.0235 54.0158C51.781 52.3833 52.411 50.5923 53.906 48.9608C55.4018 47.3298 57.738 45.9658 60.4768 45.4142C61.1613 45.2762 61.8328 45.1992 62.4843 45.1717C62.7285 45.1618 62.973 45.1602 63.2108 45.1642ZM47.3203 52.8047C47.2858 53.4285 47.3118 54.0597 47.4062 54.6955C47.652 56.351 48.3433 57.833 49.3358 59.0855C40.2768 57.172 26.3463 65.158 18.0703 61.6248C26.6278 61.4238 37.412 54.6798 47.3203 52.8047ZM74.1953 55.3672C85.0563 59.5385 93.7935 64.338 101.297 71.7973C91.4078 67.3363 79.3173 62.4473 69.656 60.4298C70.598 59.7748 71.457 59.0403 72.203 58.2268C72.9973 57.3605 73.674 56.3948 74.1953 55.3672ZM63.8983 63.0155L63.9533 63.023C59.0613 71.237 59.5597 83.9622 52.875 95.9843C54.965 83.4505 53.6375 73.9368 57.2733 63.3748C59.1232 63.6498 61.0982 63.6005 63.1092 63.1953C63.3768 63.141 63.6362 63.0803 63.8983 63.0155Z" fill-rule="nonzero" fill="rgb(135, 100, 33)"/>
				</g>
			</g>
		</g>
	</g>
</svg>
