<?xml version="1.0" encoding="utf-8" ?>
<svg xmlns="http://www.w3.org/2000/svg" xmlns:xlink="http://www.w3.org/1999/xlink" width="240" height="240" viewBox="0 0 240 240">
	<g opacity="0.05">
		<defs>
			<clipPath id="clipPath3269861726">
				<path transform="matrix(1 0 0 1 0 0)" d="M0 0L240 0L240 240L0 240L0 0Z" fill-rule="nonzero"/>
			</clipPath>
		</defs>
		<g clip-path="url(#clipPath3269861726)">
			<defs>
				<clipPath id="clipPath4212185531">
					<path transform="matrix(1 0 0 1 -0 -0)" d="M0 0L240 0L240 240L0 240L0 0Z" fill-rule="nonzero"/>
				</clipPath>
			</defs>
			<g clip-path="url(#clipPath4212185531)">
				<path transform="matrix(1 0 0 1 11.1952 29.2982)" d="M129.7 0.000548959C127.289 0.0122684 124.55 0.256017 121.399 0.681642C120.54 6.31133 119.608 12.0512 118.695 17.8782C118.752 17.8552 118.802 17.8327 118.86 17.8102L121.977 25.651C115.935 28.0529 112.23 30.4398 110.547 32.2098C108.864 33.9793 108.916 34.4785 109.272 35.6476C109.627 36.8162 111.133 38.8998 113.948 41.1526C116.764 43.4054 120.727 45.8363 125.357 48.2907L121.405 55.7462C118.892 54.4135 116.527 53.0748 114.345 51.7093C113.645 59.9884 113.299 68.3513 113.544 76.7429C128.378 79.2554 141.9 81.0413 161.403 72.362C161.178 72.4623 161.803 72.0727 162.373 70.7551C162.944 69.4379 163.452 67.4326 163.718 65.2051C164.247 60.7548 163.768 55.3435 162.593 52.1879L156.262 36.706L155.385 25.3046L155.383 25.2634C155.184 21.7824 153.342 15.5734 150.602 10.5301C147.863 5.48681 144.053 1.91868 142.079 1.49212C137.563 0.516186 133.928 -0.0195944 129.7 0.000548959ZM112.769 1.12648C82.1358 4.65617 55.2361 17.1081 39.3717 53.0593C46.0036 56.1371 60.2138 58.8366 73.7077 59.7662C80.9883 60.2677 88.1517 60.3545 94.027 60.0254C99.1059 59.7409 103.363 58.9857 105.356 58.3543C105.592 54.1159 105.946 49.9168 106.368 45.7529C103.971 43.516 102.103 41.0785 101.198 38.101C100.019 34.2216 101.315 29.6734 104.432 26.3954C105.787 24.9704 107.433 23.6626 109.406 22.4218C110.519 15.1285 111.699 8.01242 112.769 1.12648ZM147.573 25.4171C149.858 32.2491 148.913 34.2999 145.424 41.1315L129.479 28.4677L147.573 25.4171ZM39.2878 62.2215C40.8581 72.347 45.93 81.6512 56.5411 88.6416C73.2089 99.2785 89.9189 102.573 108.238 104.587C105.651 92.0101 104.813 79.5052 105.025 67.2366C102.026 67.8999 98.5298 68.2234 94.4986 68.4488C88.1639 68.8037 80.7174 68.7066 73.1278 68.1835C60.7753 67.3323 48.2991 65.6185 39.2878 62.2215ZM114.015 85.3304C114.634 93.0427 115.807 100.762 117.733 108.443L119.186 114.239L113.239 113.669C94.1217 111.837 75.6764 109.103 57.375 98.9546C53.7975 103.975 49.4091 108.828 43.2563 112.988L42.1856 113.711L0 113.711L0 131.483L154.166 131.483C152.1 124.849 149.156 118.449 144.935 112.366C140.898 106.548 137.755 100.489 137.251 93.6891C137.088 91.502 137.235 89.2754 137.691 87.0202C129.255 87.5532 121.568 86.5641 114.015 85.3304ZM0 139.921L0 153.983L158.321 153.983C157.898 149.221 157.272 144.525 156.324 139.921L0 139.921ZM0 162.421L0 174.052C6.67641 172.643 14.535 171.545 24.9333 170.648C26.8631 170.482 28.6795 170.406 30.3909 170.419C35.5252 170.456 39.7134 171.291 43.1752 172.875C47.7909 174.987 50.8814 178.515 52.702 182.235C55.4442 187.838 56.0128 193.864 56.783 198.417L217.498 198.417C218.06 192.333 216.641 186.256 210.065 181.356C207.979 179.801 204.841 178.487 197.856 178.251C190.87 178.015 180.278 178.986 164.31 181.929L159.425 182.829L159.327 177.863C159.225 172.677 159.118 167.522 158.875 162.421L0 162.421ZM30.3094 178.86C28.8984 178.848 27.352 178.909 25.6575 179.055C14.5003 180.016 6.61219 181.133 1.78814e-06 182.62L1.78814e-06 198.417L48.0548 198.417C47.1848 193.706 46.7142 189.194 45.1233 185.943C43.9538 183.554 42.4852 181.838 39.6642 180.547C37.5488 179.579 34.5408 178.895 30.3094 178.86Z" fill-rule="nonzero" fill="rgb(255, 255, 255)"/>
			</g>
		</g>
	</g>
</svg>
