<?xml version="1.0" encoding="utf-8" ?>
<svg xmlns="http://www.w3.org/2000/svg" xmlns:xlink="http://www.w3.org/1999/xlink" width="342" height="160" viewBox="0 0 342 160">
	<path transform="matrix(1 0 0 1 91 0)" d="M80 0C35.8172 0 0 35.8172 0 80L0 80.12C0 124.303 35.6972 160 79.88 160L80 160C124.183 160 160 124.303 160 80.12L160 80C160 35.8172 124.303 0 80.12 0L80 0Z" fill-rule="nonzero" fill="rgb(135, 100, 33)" fill-opacity="0.1"/>
	<path transform="matrix(1 0 0 1 107 16)" d="M64 0C28.6538 0 0 28.6538 0 64L0 64.096C0 99.4422 28.5578 128 63.904 128L64 128C99.3462 128 128 99.4422 128 64.096L128 64C128 28.6538 99.4422 0 64.096 0L64 0Z" fill-rule="nonzero" fill="rgb(135, 100, 33)" fill-opacity="0.2"/>
	<defs>
		<clipPath id="clipPath6396047004">
			<path transform="matrix(1 0 0 1 131 40)" d="M0 0L80 0L80 80L0 80L0 0Z" fill-rule="nonzero"/>
		</clipPath>
	</defs>
	<g clip-path="url(#clipPath6396047004)">
		<defs>
			<clipPath id="clipPath3587192960">
				<path transform="matrix(1 0 0 1 131 40)" d="M0 0L80 0L80 80L0 80L0 0Z" fill-rule="nonzero"/>
			</clipPath>
		</defs>
		<g clip-path="url(#clipPath3587192960)">
			<path transform="matrix(1 0 0 1 138.5 47.5)" d="M32.5 0C14.5797 0 0 14.5797 0 32.5C0 50.4203 14.5797 65 32.5 65C50.4203 65 65 50.4203 65 32.5C65 14.5797 50.4203 0 32.5 0ZM49.4141 21.6078L28.4141 46.6078C28.181 46.8854 27.9008 47.102 27.5736 47.2578C27.2463 47.4135 26.9015 47.4942 26.5391 47.5L26.4969 47.5C26.1425 47.4999 25.8036 47.4277 25.4799 47.2834C25.1563 47.1392 24.876 46.9353 24.6391 46.6719L15.6391 36.6719C15.1577 36.1613 14.9314 35.5555 14.9602 34.8543C14.9889 34.1532 15.2641 33.5679 15.7857 33.0985C16.3073 32.6291 16.9183 32.417 17.6185 32.462C18.3188 32.5071 18.8975 32.7958 19.3547 33.3281L26.4313 41.1906L45.5859 18.3922C46.033 17.8754 46.597 17.5898 47.2782 17.5355C47.9594 17.4813 48.5615 17.6739 49.0848 18.1134C49.608 18.5529 49.9016 19.1128 49.9658 19.7931C50.0299 20.4734 49.846 21.0783 49.4141 21.6078Z" fill-rule="nonzero" fill="rgb(135, 100, 33)"/>
		</g>
	</g>
	<path transform="matrix(1 0 0 1 91 0)" d="M-0 80C0 35.8172 35.8172 -0 80 -0L80 0C124.183 0 160 35.8172 160 80L160 80C160 124.183 124.183 160 80 160L80 160C35.8172 160 -0 124.183 -0 80L0 80ZM80 2C36.9218 2 2 36.9218 2 80L2 80C2 123.078 36.9218 158 80 158L80 158C123.078 158 158 123.078 158 80L158 80C158 36.9218 123.078 2 80 2L80 2Z" fill-rule="nonzero" fill="rgb(135, 100, 33)" fill-opacity="0.3"/>
</svg>
