<svg xmlns="http://www.w3.org/2000/svg" xmlns:xlink="http://www.w3.org/1999/xlink" width="500" zoomAndPan="magnify" viewBox="0 0 375 374.999991" height="500" preserveAspectRatio="xMidYMid meet" version="1.0"><defs><clipPath id="be4010ef97"><path d="M 87.039062 141 L 209 141 L 209 168 L 87.039062 168 Z M 87.039062 141 " clip-rule="nonzero"/></clipPath><clipPath id="92d485c98a"><path d="M 87.039062 151 L 224 151 L 224 254.726562 L 87.039062 254.726562 Z M 87.039062 151 " clip-rule="nonzero"/></clipPath><clipPath id="6692b0d7e2"><path d="M 170 190 L 231.039062 190 L 231.039062 223 L 170 223 Z M 170 190 " clip-rule="nonzero"/></clipPath></defs><g clip-path="url(#be4010ef97)"><path fill="#3a3335" d="M 205.835938 167.113281 L 99.609375 167.113281 C 92.679688 167.113281 87.039062 161.476562 87.039062 154.546875 C 87.039062 147.621094 92.679688 141.984375 99.609375 141.984375 L 120.335938 141.984375 C 120.699219 141.984375 121.046875 142.054688 121.378906 142.191406 C 121.714844 142.332031 122.007812 142.527344 122.261719 142.78125 C 122.519531 143.039062 122.714844 143.332031 122.855469 143.667969 C 122.992188 144 123.0625 144.347656 123.0625 144.707031 C 123.0625 145.070312 122.992188 145.417969 122.855469 145.75 C 122.714844 146.085938 122.519531 146.378906 122.261719 146.636719 C 122.007812 146.890625 121.714844 147.085938 121.378906 147.226562 C 121.046875 147.363281 120.699219 147.433594 120.335938 147.433594 L 99.609375 147.433594 C 99.144531 147.433594 98.679688 147.476562 98.222656 147.570312 C 97.761719 147.660156 97.316406 147.796875 96.886719 147.972656 C 96.453125 148.152344 96.042969 148.371094 95.65625 148.632812 C 95.265625 148.890625 94.90625 149.1875 94.578125 149.515625 C 94.246094 149.847656 93.949219 150.207031 93.691406 150.59375 C 93.429688 150.984375 93.210938 151.394531 93.03125 151.824219 C 92.855469 152.257812 92.71875 152.703125 92.628906 153.160156 C 92.535156 153.617188 92.492188 154.082031 92.492188 154.546875 C 92.492188 155.015625 92.535156 155.476562 92.628906 155.9375 C 92.71875 156.394531 92.855469 156.839844 93.03125 157.273438 C 93.210938 157.703125 93.429688 158.113281 93.691406 158.5 C 93.949219 158.890625 94.246094 159.25 94.578125 159.582031 C 94.90625 159.910156 95.265625 160.207031 95.65625 160.464844 C 96.042969 160.726562 96.453125 160.945312 96.886719 161.121094 C 97.316406 161.300781 97.761719 161.4375 98.222656 161.527344 C 98.679688 161.617188 99.144531 161.664062 99.609375 161.664062 L 203.109375 161.664062 L 203.109375 159.976562 C 203.109375 153.058594 197.480469 147.433594 190.558594 147.433594 L 184.4375 147.433594 C 184.078125 147.433594 183.730469 147.363281 183.394531 147.226562 C 183.0625 147.085938 182.765625 146.890625 182.511719 146.636719 C 182.253906 146.378906 182.058594 146.085938 181.921875 145.75 C 181.78125 145.417969 181.714844 145.070312 181.714844 144.707031 C 181.714844 144.347656 181.78125 144 181.921875 143.667969 C 182.058594 143.332031 182.253906 143.039062 182.511719 142.78125 C 182.765625 142.527344 183.0625 142.332031 183.394531 142.191406 C 183.730469 142.054688 184.078125 141.984375 184.4375 141.984375 L 190.558594 141.984375 C 191.148438 141.984375 191.738281 142.015625 192.324219 142.070312 C 192.910156 142.128906 193.492188 142.214844 194.070312 142.332031 C 194.648438 142.445312 195.21875 142.589844 195.785156 142.757812 C 196.347656 142.929688 196.902344 143.128906 197.449219 143.355469 C 197.992188 143.578125 198.523438 143.832031 199.042969 144.109375 C 199.566406 144.386719 200.070312 144.691406 200.558594 145.015625 C 201.050781 145.34375 201.523438 145.695312 201.980469 146.070312 C 202.433594 146.441406 202.871094 146.835938 203.289062 147.253906 C 203.703125 147.671875 204.101562 148.105469 204.472656 148.5625 C 204.847656 149.019531 205.199219 149.492188 205.527344 149.980469 C 205.855469 150.46875 206.15625 150.976562 206.433594 151.496094 C 206.710938 152.015625 206.964844 152.546875 207.191406 153.089844 C 207.414062 153.636719 207.613281 154.1875 207.785156 154.753906 C 207.957031 155.316406 208.097656 155.886719 208.214844 156.464844 C 208.328125 157.042969 208.414062 157.625 208.472656 158.210938 C 208.53125 158.796875 208.558594 159.386719 208.558594 159.976562 L 208.558594 164.386719 C 208.558594 164.75 208.492188 165.097656 208.351562 165.429688 C 208.214844 165.765625 208.015625 166.058594 207.761719 166.3125 C 207.507812 166.570312 207.210938 166.765625 206.878906 166.90625 C 206.542969 167.042969 206.195312 167.113281 205.835938 167.113281 Z M 205.835938 167.113281 " fill-opacity="1" fill-rule="nonzero"/></g><path fill="#3a3335" d="M 128.621094 166.441406 C 127.816406 166.441406 127.148438 166.148438 126.605469 165.554688 C 125.859375 164.742188 125.15625 163.890625 124.496094 163.007812 C 123.832031 162.125 123.214844 161.214844 122.636719 160.273438 C 122.0625 159.328125 121.535156 158.363281 121.054688 157.367188 C 120.574219 156.375 120.140625 155.363281 119.757812 154.328125 C 119.371094 153.292969 119.039062 152.242188 118.757812 151.175781 C 118.472656 150.109375 118.242188 149.03125 118.0625 147.941406 C 117.886719 146.851562 117.757812 145.757812 117.6875 144.65625 C 117.613281 143.554688 117.59375 142.453125 117.625 141.347656 C 117.65625 140.246094 117.742188 139.148438 117.882812 138.050781 C 118.023438 136.957031 118.210938 135.871094 118.457031 134.796875 C 118.699219 133.71875 118.992188 132.65625 119.339844 131.609375 C 119.683594 130.5625 120.082031 129.53125 120.527344 128.519531 C 120.96875 127.511719 121.460938 126.523438 122.003906 125.5625 C 122.542969 124.601562 123.128906 123.664062 123.757812 122.757812 C 124.386719 121.851562 125.058594 120.976562 125.773438 120.136719 C 126.488281 119.296875 127.242188 118.488281 128.03125 117.71875 C 128.824219 116.949219 129.652344 116.222656 130.511719 115.53125 C 131.375 114.84375 132.269531 114.195312 133.191406 113.59375 C 134.117188 112.988281 135.066406 112.429688 136.046875 111.917969 C 137.023438 111.40625 138.023438 110.941406 139.046875 110.527344 C 140.070312 110.109375 141.109375 109.746094 142.167969 109.429688 C 143.226562 109.113281 144.296875 108.847656 145.382812 108.636719 C 146.464844 108.421875 147.554688 108.261719 148.65625 108.15625 C 149.753906 108.046875 150.855469 107.992188 151.960938 107.992188 C 153.0625 107.988281 154.164062 108.039062 155.265625 108.144531 C 156.363281 108.25 157.457031 108.40625 158.539062 108.617188 C 159.625 108.824219 160.695312 109.085938 161.753906 109.398438 C 162.8125 109.710938 163.855469 110.074219 164.878906 110.488281 C 165.902344 110.898438 166.90625 111.359375 167.882812 111.871094 C 168.863281 112.378906 169.816406 112.933594 170.742188 113.535156 C 171.667969 114.136719 172.566406 114.78125 173.429688 115.464844 C 174.292969 116.152344 175.121094 116.878906 175.917969 117.648438 C 176.710938 118.414062 177.464844 119.21875 178.183594 120.054688 C 178.898438 120.894531 179.574219 121.769531 180.207031 122.671875 C 180.839844 123.578125 181.425781 124.507812 181.96875 125.46875 C 182.511719 126.433594 183.007812 127.417969 183.457031 128.425781 C 183.902344 129.433594 184.300781 130.460938 184.652344 131.507812 C 185 132.554688 185.296875 133.617188 185.542969 134.691406 C 185.792969 135.769531 185.984375 136.855469 186.128906 137.949219 C 186.269531 139.042969 186.359375 140.140625 186.394531 141.242188 C 186.433594 142.347656 186.414062 143.449219 186.34375 144.550781 C 186.273438 145.652344 186.152344 146.746094 185.976562 147.835938 C 185.800781 148.925781 185.574219 150.003906 185.292969 151.074219 C 185.015625 152.140625 184.683594 153.191406 184.304688 154.226562 C 183.925781 155.265625 183.496094 156.277344 183.015625 157.273438 C 182.539062 158.269531 182.011719 159.238281 181.441406 160.183594 C 180.867188 161.125 180.253906 162.039062 179.59375 162.925781 C 178.933594 163.808594 178.230469 164.660156 177.488281 165.476562 C 177.246094 165.746094 176.960938 165.957031 176.632812 166.109375 C 176.308594 166.265625 175.964844 166.351562 175.601562 166.367188 C 175.242188 166.386719 174.890625 166.332031 174.550781 166.210938 C 174.210938 166.089844 173.90625 165.90625 173.640625 165.664062 C 173.371094 165.421875 173.160156 165.136719 173.007812 164.808594 C 172.851562 164.484375 172.765625 164.140625 172.75 163.777344 C 172.730469 163.417969 172.785156 163.066406 172.90625 162.726562 C 173.027344 162.386719 173.210938 162.082031 173.453125 161.816406 C 174.390625 160.785156 175.246094 159.695312 176.023438 158.539062 C 176.800781 157.386719 177.492188 156.183594 178.097656 154.929688 C 178.699219 153.675781 179.210938 152.386719 179.628906 151.058594 C 180.046875 149.730469 180.367188 148.382812 180.589844 147.007812 C 180.8125 145.636719 180.9375 144.253906 180.960938 142.863281 C 180.984375 141.472656 180.910156 140.085938 180.730469 138.707031 C 180.554688 137.324219 180.28125 135.964844 179.910156 134.625 C 179.535156 133.285156 179.070312 131.976562 178.507812 130.703125 C 177.945312 129.429688 177.296875 128.203125 176.558594 127.023438 C 175.820312 125.847656 175 124.726562 174.101562 123.664062 C 173.199219 122.601562 172.226562 121.613281 171.183594 120.691406 C 170.140625 119.769531 169.039062 118.925781 167.875 118.164062 C 166.710938 117.402344 165.496094 116.726562 164.234375 116.140625 C 162.972656 115.554688 161.675781 115.058594 160.339844 114.660156 C 159.007812 114.261719 157.652344 113.957031 156.277344 113.753906 C 154.898438 113.546875 153.515625 113.441406 152.121094 113.4375 L 152.007812 113.4375 C 150.613281 113.4375 149.222656 113.539062 147.839844 113.738281 C 146.460938 113.941406 145.101562 114.238281 143.761719 114.636719 C 142.421875 115.035156 141.121094 115.527344 139.855469 116.113281 C 138.585938 116.699219 137.367188 117.371094 136.199219 118.136719 C 135.03125 118.898438 133.921875 119.738281 132.875 120.660156 C 131.828125 121.582031 130.851562 122.578125 129.949219 123.640625 C 129.042969 124.703125 128.222656 125.824219 127.480469 127.007812 C 126.738281 128.191406 126.085938 129.421875 125.523438 130.695312 C 124.960938 131.972656 124.492188 133.285156 124.117188 134.628906 C 123.742188 135.972656 123.46875 137.335938 123.292969 138.71875 C 123.117188 140.105469 123.039062 141.496094 123.066406 142.890625 C 123.089844 144.285156 123.214844 145.671875 123.441406 147.046875 C 123.667969 148.425781 123.992188 149.777344 124.410156 151.109375 C 124.832031 152.4375 125.347656 153.730469 125.957031 154.984375 C 126.566406 156.242188 127.261719 157.449219 128.042969 158.601562 C 128.828125 159.757812 129.691406 160.851562 130.632812 161.878906 C 130.996094 162.277344 131.222656 162.746094 131.308594 163.277344 C 131.394531 163.808594 131.332031 164.324219 131.113281 164.816406 C 130.894531 165.308594 130.558594 165.703125 130.109375 166 C 129.65625 166.292969 129.160156 166.441406 128.621094 166.441406 Z M 128.621094 166.441406 " fill-opacity="1" fill-rule="nonzero"/><path fill="#3a3335" d="M 156.507812 155.382812 L 156.476562 155.382812 L 141.246094 155.324219 C 140.882812 155.320312 140.535156 155.253906 140.203125 155.113281 C 139.871094 154.972656 139.574219 154.777344 139.320312 154.519531 C 139.066406 154.265625 138.867188 153.96875 138.730469 153.636719 C 138.59375 153.300781 138.523438 152.953125 138.527344 152.59375 C 138.527344 152.230469 138.597656 151.886719 138.734375 151.550781 C 138.875 151.21875 139.070312 150.925781 139.328125 150.667969 C 139.582031 150.414062 139.878906 150.21875 140.214844 150.082031 C 140.546875 149.941406 140.894531 149.875 141.257812 149.875 L 141.265625 149.875 L 156.496094 149.933594 L 156.507812 149.933594 C 156.875 149.933594 157.230469 149.863281 157.570312 149.722656 C 157.910156 149.582031 158.207031 149.382812 158.46875 149.125 C 158.730469 148.863281 158.929688 148.566406 159.074219 148.226562 C 159.214844 147.886719 159.289062 147.535156 159.289062 147.167969 L 159.289062 147.15625 C 159.292969 146.785156 159.222656 146.429688 159.082031 146.089844 C 158.941406 145.75 158.742188 145.445312 158.484375 145.183594 C 158.222656 144.921875 157.921875 144.722656 157.582031 144.578125 C 157.242188 144.4375 156.886719 144.363281 156.519531 144.363281 L 146.796875 144.324219 C 146.257812 144.324219 145.722656 144.269531 145.191406 144.160156 C 144.660156 144.054688 144.148438 143.894531 143.648438 143.6875 C 143.148438 143.476562 142.675781 143.222656 142.226562 142.921875 C 141.78125 142.617188 141.363281 142.277344 140.984375 141.890625 C 140.601562 141.507812 140.261719 141.089844 139.964844 140.640625 C 139.667969 140.191406 139.414062 139.714844 139.210938 139.214844 C 139.003906 138.714844 138.851562 138.199219 138.746094 137.667969 C 138.644531 137.140625 138.59375 136.605469 138.59375 136.0625 C 138.597656 135.523438 138.652344 134.988281 138.757812 134.457031 C 138.867188 133.929688 139.023438 133.414062 139.234375 132.917969 C 139.441406 132.417969 139.699219 131.945312 140 131.496094 C 140.300781 131.050781 140.644531 130.632812 141.027344 130.253906 C 141.414062 129.875 141.832031 129.535156 142.28125 129.234375 C 142.730469 128.9375 143.207031 128.683594 143.707031 128.480469 C 144.207031 128.277344 144.722656 128.121094 145.253906 128.019531 C 145.785156 127.914062 146.320312 127.863281 146.859375 127.867188 L 162.101562 127.925781 C 162.464844 127.925781 162.8125 127.996094 163.144531 128.136719 C 163.480469 128.273438 163.773438 128.472656 164.027344 128.726562 C 164.285156 128.984375 164.480469 129.277344 164.617188 129.613281 C 164.753906 129.945312 164.824219 130.292969 164.824219 130.65625 C 164.820312 131.015625 164.753906 131.363281 164.613281 131.695312 C 164.472656 132.03125 164.277344 132.324219 164.019531 132.578125 C 163.765625 132.835938 163.46875 133.03125 163.136719 133.167969 C 162.800781 133.304688 162.453125 133.375 162.089844 133.375 L 162.082031 133.375 L 146.839844 133.3125 L 146.828125 133.3125 C 146.460938 133.3125 146.105469 133.382812 145.761719 133.523438 C 145.421875 133.664062 145.121094 133.863281 144.859375 134.125 C 144.597656 134.386719 144.394531 134.6875 144.253906 135.027344 C 144.113281 135.367188 144.042969 135.722656 144.039062 136.089844 C 144.039062 136.460938 144.109375 136.8125 144.25 137.15625 C 144.390625 137.496094 144.589844 137.796875 144.851562 138.058594 C 145.113281 138.320312 145.414062 138.523438 145.753906 138.664062 C 146.09375 138.804688 146.449219 138.875 146.816406 138.878906 L 156.539062 138.914062 C 157.078125 138.917969 157.613281 138.972656 158.144531 139.082031 C 158.671875 139.1875 159.1875 139.347656 159.683594 139.554688 C 160.183594 139.765625 160.65625 140.019531 161.105469 140.320312 C 161.554688 140.625 161.96875 140.964844 162.347656 141.347656 C 162.730469 141.730469 163.066406 142.148438 163.367188 142.597656 C 163.664062 143.046875 163.917969 143.523438 164.125 144.023438 C 164.328125 144.519531 164.484375 145.035156 164.585938 145.566406 C 164.691406 146.097656 164.742188 146.628906 164.742188 147.171875 L 164.742188 147.1875 C 164.738281 147.726562 164.683594 148.261719 164.574219 148.789062 C 164.46875 149.316406 164.308594 149.828125 164.101562 150.324219 C 163.894531 150.820312 163.640625 151.292969 163.339844 151.742188 C 163.039062 152.1875 162.695312 152.601562 162.316406 152.980469 C 161.933594 153.359375 161.519531 153.699219 161.070312 154 C 160.621094 154.296875 160.148438 154.550781 159.648438 154.757812 C 159.152344 154.960938 158.636719 155.117188 158.109375 155.222656 C 157.582031 155.328125 157.046875 155.382812 156.507812 155.382812 Z M 156.507812 155.382812 " fill-opacity="1" fill-rule="nonzero"/><path fill="#3a3335" d="M 151.71875 133.335938 L 151.707031 133.335938 C 151.347656 133.332031 151 133.261719 150.664062 133.125 C 150.332031 132.984375 150.039062 132.785156 149.78125 132.527344 C 149.527344 132.273438 149.332031 131.976562 149.195312 131.640625 C 149.058594 131.308594 148.992188 130.960938 148.992188 130.597656 L 149.019531 124.070312 C 149.019531 123.707031 149.089844 123.363281 149.226562 123.03125 C 149.367188 122.699219 149.5625 122.402344 149.820312 122.148438 C 150.074219 121.894531 150.371094 121.699219 150.703125 121.5625 C 151.035156 121.425781 151.382812 121.355469 151.742188 121.355469 L 151.753906 121.355469 C 152.117188 121.355469 152.464844 121.425781 152.796875 121.566406 C 153.128906 121.707031 153.421875 121.90625 153.679688 122.160156 C 153.933594 122.417969 154.128906 122.710938 154.265625 123.046875 C 154.402344 123.382812 154.46875 123.730469 154.46875 124.089844 L 154.445312 130.621094 C 154.441406 130.980469 154.371094 131.328125 154.234375 131.660156 C 154.09375 131.992188 153.898438 132.285156 153.644531 132.539062 C 153.386719 132.792969 153.09375 132.992188 152.757812 133.128906 C 152.425781 133.265625 152.078125 133.335938 151.71875 133.335938 Z M 151.71875 133.335938 " fill-opacity="1" fill-rule="nonzero"/><path fill="#3a3335" d="M 151.601562 163.386719 L 151.589844 163.386719 C 151.230469 163.382812 150.882812 163.3125 150.546875 163.175781 C 150.214844 163.035156 149.921875 162.835938 149.667969 162.582031 C 149.410156 162.324219 149.214844 162.027344 149.078125 161.695312 C 148.941406 161.359375 148.875 161.011719 148.875 160.652344 L 148.894531 155.050781 C 148.898438 154.6875 148.96875 154.34375 149.105469 154.007812 C 149.246094 153.675781 149.441406 153.382812 149.699219 153.128906 C 149.953125 152.875 150.246094 152.679688 150.582031 152.542969 C 150.914062 152.402344 151.261719 152.335938 151.621094 152.335938 L 151.632812 152.335938 C 151.996094 152.335938 152.339844 152.40625 152.675781 152.546875 C 153.007812 152.6875 153.300781 152.882812 153.558594 153.140625 C 153.8125 153.398438 154.007812 153.691406 154.144531 154.027344 C 154.28125 154.359375 154.347656 154.707031 154.347656 155.070312 L 154.324219 160.671875 C 154.324219 161.035156 154.253906 161.378906 154.113281 161.710938 C 153.976562 162.042969 153.777344 162.335938 153.523438 162.589844 C 153.269531 162.84375 152.972656 163.042969 152.640625 163.179688 C 152.308594 163.316406 151.960938 163.386719 151.601562 163.386719 Z M 151.601562 163.386719 " fill-opacity="1" fill-rule="nonzero"/><g clip-path="url(#92d485c98a)"><path fill="#3a3335" d="M 211.316406 254.71875 L 98.8125 254.71875 C 92.320312 254.71875 87.039062 249.441406 87.039062 242.953125 L 87.039062 154.546875 C 87.039062 154.1875 87.109375 153.839844 87.246094 153.503906 C 87.386719 153.171875 87.582031 152.878906 87.839844 152.621094 C 88.09375 152.367188 88.386719 152.167969 88.722656 152.03125 C 89.054688 151.894531 89.402344 151.824219 89.765625 151.824219 C 90.125 151.824219 90.472656 151.894531 90.808594 152.03125 C 91.140625 152.167969 91.4375 152.367188 91.691406 152.621094 C 91.949219 152.878906 92.144531 153.171875 92.285156 153.503906 C 92.421875 153.839844 92.492188 154.1875 92.492188 154.546875 C 92.492188 155.015625 92.539062 155.476562 92.628906 155.9375 C 92.71875 156.394531 92.855469 156.839844 93.035156 157.269531 C 93.214844 157.703125 93.433594 158.109375 93.691406 158.5 C 93.953125 158.886719 94.246094 159.246094 94.578125 159.578125 C 94.910156 159.90625 95.269531 160.203125 95.65625 160.460938 C 96.046875 160.722656 96.457031 160.941406 96.886719 161.121094 C 97.320312 161.300781 97.765625 161.433594 98.222656 161.527344 C 98.679688 161.617188 99.144531 161.664062 99.609375 161.664062 L 211.316406 161.664062 C 217.808594 161.664062 223.089844 166.941406 223.089844 173.433594 L 223.089844 193.628906 C 223.089844 193.992188 223.023438 194.339844 222.882812 194.671875 C 222.746094 195.007812 222.550781 195.300781 222.292969 195.554688 C 222.039062 195.8125 221.742188 196.007812 221.410156 196.148438 C 221.074219 196.285156 220.726562 196.355469 220.367188 196.355469 C 220.003906 196.355469 219.65625 196.285156 219.324219 196.148438 C 218.988281 196.007812 218.695312 195.8125 218.4375 195.554688 C 218.183594 195.300781 217.988281 195.007812 217.847656 194.671875 C 217.710938 194.339844 217.640625 193.992188 217.640625 193.628906 L 217.640625 173.429688 C 217.640625 173.015625 217.597656 172.605469 217.519531 172.199219 C 217.4375 171.792969 217.316406 171.398438 217.15625 171.011719 C 217 170.628906 216.804688 170.265625 216.574219 169.921875 C 216.34375 169.578125 216.082031 169.257812 215.785156 168.964844 C 215.492188 168.671875 215.175781 168.410156 214.828125 168.179688 C 214.484375 167.949219 214.121094 167.753906 213.734375 167.59375 C 213.351562 167.433594 212.957031 167.316406 212.550781 167.234375 C 212.144531 167.152344 211.734375 167.113281 211.316406 167.113281 L 99.609375 167.113281 C 97.007812 167.113281 94.632812 166.375 92.492188 164.898438 L 92.492188 242.953125 C 92.492188 243.367188 92.53125 243.777344 92.613281 244.183594 C 92.695312 244.589844 92.816406 244.984375 92.972656 245.367188 C 93.132812 245.753906 93.328125 246.117188 93.558594 246.460938 C 93.789062 246.804688 94.050781 247.125 94.34375 247.417969 C 94.636719 247.710938 94.957031 247.972656 95.304688 248.203125 C 95.648438 248.433594 96.011719 248.628906 96.394531 248.789062 C 96.777344 248.949219 97.175781 249.066406 97.582031 249.148438 C 97.988281 249.230469 98.398438 249.269531 98.8125 249.273438 L 211.316406 249.273438 C 211.734375 249.273438 212.144531 249.230469 212.550781 249.148438 C 212.957031 249.066406 213.351562 248.949219 213.734375 248.789062 C 214.121094 248.628906 214.484375 248.433594 214.828125 248.203125 C 215.175781 247.972656 215.492188 247.710938 215.785156 247.417969 C 216.082031 247.125 216.34375 246.804688 216.574219 246.460938 C 216.804688 246.117188 217 245.753906 217.15625 245.371094 C 217.316406 244.984375 217.4375 244.589844 217.519531 244.183594 C 217.597656 243.777344 217.640625 243.367188 217.640625 242.953125 L 217.640625 221.445312 C 217.640625 221.085938 217.710938 220.738281 217.847656 220.40625 C 217.988281 220.070312 218.183594 219.777344 218.4375 219.519531 C 218.695312 219.265625 218.988281 219.070312 219.324219 218.929688 C 219.65625 218.792969 220.003906 218.722656 220.367188 218.722656 C 220.726562 218.722656 221.074219 218.792969 221.410156 218.929688 C 221.742188 219.070312 222.039062 219.265625 222.292969 219.519531 C 222.550781 219.777344 222.746094 220.070312 222.882812 220.40625 C 223.023438 220.738281 223.089844 221.085938 223.089844 221.445312 L 223.089844 242.953125 C 223.089844 249.441406 217.808594 254.71875 211.316406 254.71875 Z M 211.316406 254.71875 " fill-opacity="1" fill-rule="nonzero"/></g><g clip-path="url(#6692b0d7e2)"><path fill="#3a3335" d="M 228.3125 222.546875 L 185.832031 222.546875 C 177.105469 222.546875 170.003906 215.449219 170.003906 206.726562 C 170.003906 198 177.105469 190.90625 185.832031 190.90625 L 228.3125 190.90625 C 228.671875 190.90625 229.019531 190.976562 229.355469 191.113281 C 229.6875 191.25 229.984375 191.449219 230.238281 191.703125 C 230.492188 191.957031 230.691406 192.253906 230.828125 192.585938 C 230.96875 192.921875 231.035156 193.269531 231.035156 193.628906 L 231.035156 219.820312 C 231.035156 220.183594 230.96875 220.53125 230.828125 220.863281 C 230.691406 221.199219 230.492188 221.492188 230.238281 221.746094 C 229.984375 222.003906 229.6875 222.199219 229.355469 222.339844 C 229.019531 222.476562 228.671875 222.546875 228.3125 222.546875 Z M 185.832031 196.351562 C 180.109375 196.351562 175.457031 201.007812 175.457031 206.726562 C 175.457031 212.445312 180.109375 217.097656 185.832031 217.097656 L 225.585938 217.097656 L 225.585938 196.351562 Z M 185.832031 196.351562 " fill-opacity="1" fill-rule="nonzero"/></g><path fill="#3a3335" d="M 192.421875 206.726562 C 192.421875 207.042969 192.390625 207.359375 192.328125 207.667969 C 192.265625 207.980469 192.171875 208.285156 192.050781 208.578125 C 191.929688 208.871094 191.78125 209.148438 191.605469 209.414062 C 191.429688 209.675781 191.226562 209.921875 191.003906 210.148438 C 190.777344 210.371094 190.53125 210.570312 190.269531 210.75 C 190.003906 210.925781 189.726562 211.074219 189.433594 211.195312 C 189.136719 211.316406 188.835938 211.410156 188.523438 211.472656 C 188.210938 211.53125 187.898438 211.5625 187.578125 211.5625 C 187.261719 211.5625 186.945312 211.53125 186.632812 211.472656 C 186.324219 211.410156 186.019531 211.316406 185.726562 211.195312 C 185.433594 211.074219 185.152344 210.925781 184.890625 210.75 C 184.625 210.570312 184.378906 210.371094 184.15625 210.148438 C 183.929688 209.921875 183.730469 209.675781 183.554688 209.414062 C 183.378906 209.148438 183.226562 208.871094 183.105469 208.578125 C 182.984375 208.285156 182.894531 207.980469 182.832031 207.667969 C 182.769531 207.359375 182.738281 207.042969 182.738281 206.726562 C 182.738281 206.40625 182.769531 206.09375 182.832031 205.78125 C 182.894531 205.46875 182.984375 205.167969 183.105469 204.875 C 183.226562 204.582031 183.378906 204.300781 183.554688 204.039062 C 183.730469 203.773438 183.929688 203.527344 184.15625 203.304688 C 184.378906 203.078125 184.625 202.878906 184.890625 202.703125 C 185.152344 202.527344 185.433594 202.375 185.726562 202.253906 C 186.019531 202.132812 186.324219 202.042969 186.632812 201.980469 C 186.945312 201.917969 187.261719 201.886719 187.578125 201.886719 C 187.898438 201.886719 188.210938 201.917969 188.523438 201.980469 C 188.835938 202.042969 189.136719 202.132812 189.433594 202.253906 C 189.726562 202.375 190.003906 202.527344 190.269531 202.703125 C 190.53125 202.878906 190.777344 203.078125 191.003906 203.304688 C 191.226562 203.527344 191.429688 203.773438 191.605469 204.039062 C 191.78125 204.300781 191.929688 204.582031 192.050781 204.875 C 192.171875 205.167969 192.265625 205.46875 192.328125 205.78125 C 192.390625 206.09375 192.421875 206.40625 192.421875 206.726562 Z M 192.421875 206.726562 " fill-opacity="1" fill-rule="nonzero"/></svg>