<?xml version="1.0" encoding="utf-8" ?>
<svg xmlns="http://www.w3.org/2000/svg" xmlns:xlink="http://www.w3.org/1999/xlink" width="21" height="21" viewBox="0 0 21 21">
	<path d="M10.4953 0C13.275 0 15.8906 1.08281 17.8547 3.05156C19.8187 5.02031 21 7.63125 21 10.4109C21 16.1484 16.2281 20.8172 10.4953 20.8172L10.4906 20.8172C8.74688 20.8172 7.03594 20.3813 5.51719 19.5516L0 21L1.47656 15.6094C0.567187 14.0297 0.0890622 12.2391 0.0890622 10.4062C0.0890622 4.66875 4.75781 0 10.4953 0ZM10.4953 19.0641C8.93906 19.0641 7.41563 18.6469 6.08906 17.8594L5.775 17.6719L2.50312 18.5297L3.375 15.3375L3.16875 15.0094C2.30156 13.6313 1.84687 12.0422 1.84687 10.4062C1.84687 5.63906 5.72813 1.75781 10.5 1.75781C12.8109 1.75781 14.9813 2.65781 16.6125 4.29375C18.2437 5.92969 19.2469 8.1 19.2422 10.4109C19.2422 15.1828 15.2625 19.0641 10.4953 19.0641ZM13.4625 11.7422C13.7016 11.8266 14.9812 12.4547 15.2391 12.5859C15.4969 12.7125 15.6703 12.7781 15.7312 12.8953C15.7969 13.0031 15.7969 13.5234 15.5812 14.1328C15.3656 14.7422 14.3297 15.2953 13.8281 15.3703C13.0031 15.4922 12.3562 15.4313 10.7062 14.7188C8.09531 13.5891 6.39375 10.9641 6.2625 10.7906C6.13594 10.6172 5.20312 9.37969 5.20312 8.1C5.20312 6.82031 5.87344 6.19219 6.1125 5.92969C6.35156 5.67187 6.63281 5.60625 6.80625 5.60625C6.97969 5.60625 7.15312 5.60625 7.30312 5.61562C7.32245 5.61676 7.34261 5.61673 7.36348 5.61669L7.36349 5.61669C7.51474 5.61642 7.70371 5.61609 7.88906 6.06094C8.10469 6.58125 8.625 7.86094 8.69062 7.99219C8.75625 8.12344 8.79844 8.27344 8.71406 8.44687C8.49308 8.88883 8.26469 9.12774 8.10268 9.29721C7.90042 9.50879 7.80164 9.61211 7.95 9.86719C8.95781 11.5969 9.96094 12.1969 11.4891 12.9609C11.7469 13.0922 11.9016 13.0687 12.0516 12.8953C12.2062 12.7172 12.7031 12.1359 12.8766 11.8734C13.05 11.6109 13.2234 11.6531 13.4625 11.7422Z" fill-rule="evenodd" transform="matrix(1 0 0 1 0 0)" fill="rgb(8, 43, 59)"/>
</svg>
