<?xml version="1.0" encoding="utf-8" ?>
<svg xmlns="http://www.w3.org/2000/svg" xmlns:xlink="http://www.w3.org/1999/xlink" width="22.7559" height="14.2222" viewBox="0 0 22.7559 14.2222">
	<path d="M22.2801 2.2253C22.0184 1.34937 21.2473 0.659518 20.2683 0.425407C18.4937 0 11.3778 0 11.3778 0C11.3778 0 4.26196 0 2.48733 0.425407C1.50829 0.659555 0.737208 1.34937 0.4755 2.2253C0 3.81296 0 7.12548 0 7.12548C0 7.12548 0 10.438 0.4755 12.0257C0.737208 12.9016 1.50829 13.5627 2.48733 13.7968C4.26196 14.2222 11.3778 14.2222 11.3778 14.2222C11.3778 14.2222 18.4936 14.2222 20.2683 13.7968C21.2473 13.5627 22.0184 12.9016 22.2801 12.0257C22.7556 10.438 22.7556 7.12548 22.7556 7.12548C22.7556 7.12548 22.7556 3.81296 22.2801 2.2253ZM9.0505 4.11796L9.0505 10.133L14.998 7.12556L9.0505 4.11796Z" fill-rule="evenodd" transform="matrix(1 0 0 1 0.000152707 -4.69685e-05)" fill="rgb(8, 43, 59)"/>
</svg>
